<svg xml:space="preserve" viewBox="0 0 1200 1200" y="0px" x="0px" xmlns:xlink="http://www.w3.org/1999/xlink" xmlns="http://www.w3.org/2000/svg" id="图层_1" version="1.1">
<path d="M628.5,105.1c4.3,2.2,9,1.3,13.4,1.7c85.9,7.5,164.9,34.9,236,83.6c96.9,66.3,162.4,156.1,196.7,268.5
	c10.8,35.4,17.1,71.7,19.4,108.7c0.1,1-0.6,2.4,1,3c0,3.7,0,7.3,0,11c-1.1,2-0.3,4.2-0.5,6.2c0.2,2.9-0.5,5.9,0.5,8.8c0,2,0,4,0,6
	c-1.1,2.9-0.3,5.8-0.5,8.7c0.3,2.1-0.6,4.2,0.5,6.2c0,4,0,8,0,12c-2.1,3.7-1.4,8-1.8,11.9c-8.6,96.2-42,182.8-100.8,259.4
	c-50.3,65.5-113.3,115.2-188.4,149.3c-48,21.8-98.4,35.5-150.9,40.9c-102,10.5-198.5-8.3-288.6-57.2
	c-87.7-47.7-154.8-116.1-201.6-204.3c-29.6-55.7-47.7-115.1-53.8-177.8c-12.8-131.1,20.1-249.8,100.5-354.3
	c72-93.6,166.7-153.1,281.6-180.1c25.4-6,51.3-9.5,77.4-11.2c1-0.1,2.4,0.6,3-1c1,0,2,0,3,0c2.3,0.8,4.7,0.8,7,0c1.7,0,3.3,0,5,0
	c2.7,0.8,5.3,0.8,8,0c4,0,8,0,12,0c2.7,0.8,5.3,0.8,8,0c1.7,0,3.3,0,5,0c2.3,0.8,4.7,0.8,7,0C627.2,105.1,627.8,105.1,628.5,105.1z" fill="#4D1000"></path>
<path d="M1094.9,596.5c-2-2.8-0.6-6-0.9-9.1c0.3-0.4,0.7-0.4,0.9,0.1C1094.9,590.5,1094.9,593.5,1094.9,596.5z" fill="#5C2516"></path>
<path d="M1094,611.5c0.3-3-1-6.2,0.9-9.1c0,3,0,6,0,9C1094.6,611.9,1094.3,611.9,1094,611.5z" fill="#5C2516"></path>
<path d="M594.5,105.1c-2.7,1.5-5.3,1.6-8,0C589.2,105.1,591.9,105.1,594.5,105.1z" fill="#5D2617"></path>
<path d="M614.5,105.1c-2.7,1.6-5.3,1.5-8,0C609.2,105.1,611.8,105.1,614.5,105.1z" fill="#5D2617"></path>
<path d="M626.5,105.1c-2.3,1.8-4.7,1.4-7,0C621.8,105.1,624.2,105.1,626.5,105.1z" fill="#AA8E87"></path>
<path d="M581.5,105.1c-2.3,1.4-4.7,1.8-7,0C576.9,105.1,579.2,105.1,581.5,105.1z" fill="#AA8E87"></path>
<path d="M1094.9,587.5c-0.3,0-0.6,0-0.9-0.1c0.4-2-1.1-4.2,0.9-5.9C1094.9,583.5,1094.9,585.5,1094.9,587.5z" fill="#75463A"></path>
<path d="M1094,611.5c0.3,0,0.6-0.1,0.9-0.1c0,2,0,4,0,6C1092.9,615.8,1094.3,613.5,1094,611.5z" fill="#75463A"></path>
<path d="M600.7,109.1c270.6,0,490.3,219.8,490.2,490.5c-0.1,270.8-219.6,490.3-490.3,490.3
	c-271.1,0.1-490.6-219.8-490.4-491.2C110.3,328.4,330.1,109.1,600.7,109.1z" fill="#FEFEFE"></path>
<path d="M1080.9,599.7c-0.3,265.5-215.4,480.4-480.7,480.2c-266.1-0.3-480.6-215.7-480.2-482.2
	c0.5-265,216.5-479.2,482.7-478.7C866.6,119.6,1081.2,335.4,1080.9,599.7z" fill="#4D1000"></path>
<path d="M1066.5,501.7c-26.2-2.3-49.2,4.2-65.2,26.4c-15.9,22.1-16.3,45.6-4.4,70.4c-2,0.1-3.7,0.2-5.4,0.3
	c-23.3,0.7-45.6,5.2-65.6,18c-15.1,9.6-25.9,22.3-27.2,42.1c-4.6-6-8.3-11.7-12.9-16.6c-10-10.8-17.5-22.6-19.6-37.6
	c-0.8-5.8-3.6-11.4-5.9-16.9c-1.2-3-1.1-4.9,1.1-7.5c15.5-18.7,27-39.6,32.6-63.3c8.6-36.7,2.1-71-16.9-103.2
	c-2.9-4.9-4.2-9.3-3.2-15.3c7-41.9-2.3-81-21.6-118.1c-9.9-19-22.1-36.3-36.3-52.4c-3.3-3.7-6.5-4.7-11.3-4
	c-41.9,5.5-76.2,25.6-105.8,54.7c-5,4.9-9.5,10.2-14.1,15.5c-1.6,1.8-2.9,2.5-5.5,2c-44.1-7.7-88.4-8.6-132.8-2.9
	c-5.6,0.7-11.2,1.5-16.8,2.6c-3.2,0.7-5.1-0.4-7.2-2.8c-21.2-25-46.3-44.9-76.6-57.7c-14.3-6.1-29.3-9.8-44.8-11.6
	c-3.1-0.4-5.3,0.3-7.5,2.7c-31.4,34.9-53.2,74.6-60.3,121.6c-2.7,17.6-2.2,35.2,1,52.7c0.6,3.2,0.1,5.7-1.6,8.4
	c-18.5,29.3-26.9,60.9-22,95.6c0.4,3.1,1,6.2,1.7,9.3c0.6,3,1.4,6,2.2,9.7c-15.5-3.9-30.4-6.9-45.5-8.9c-17.8-2.5-35.7-3.8-53.7-4.2
	c-3.9-0.1-6-0.9-5.4-5.2c0.6-4.8-1.5-6.2-6.2-5.3c-5.9,1.1-11.8,1.9-17.8,2.3c-4.2,0.3-5.4,1.9-4.9,6c2,16.2,3.7,32.4,5.5,48.6
	c3.9,35.1,7.7,70.1,11.6,105.2c0.2,2.1,0.7,4-1.9,5.5c-14.4,8.2-20.3,21.4-21.5,37.2c-1.4,20.1,4.5,38.5,14,55.9
	c12.1,22.2,28.6,40.4,50.2,53.8c2.1,1.3,3,2.3,2.3,5.1c-6,26-9.1,52.4-9.2,79.2c0,0.5-0.1,0.9-0.3,1.8c-3.2-2.6-4.7-5.3-4.6-9.4
	c0.1-20.6-13.4-39.5-32.6-46.2c-2.2-0.8-3.6-2-4.8-4C160.5,791,140.7,737.8,131,680.8c-6.5-37.9-8.3-76-5.8-114.4
	c1-15.1,2.8-30.1,5.2-45.1c0.4-2.8,1.2-4.6,4.7-5.1c5.7-0.9,10.6-3.8,14.8-7.7c36.8-34,73.5-68.1,110.4-102
	c6.4-5.9,8.9-13.2,8.8-21.4c-0.2-19.7-7.3-37-18.8-52.7c-6.4-8.8-14.1-16.5-23.1-22.6c-2.7-1.8-3-2.8-0.8-5.5
	c72.7-90.3,165.5-148.9,279.2-171.6c122.4-24.4,237.7-3.8,344.7,61c22.7,13.7,43.8,29.5,63.7,47c2.5,2.2,2.9,3.4,0.7,6.3
	c-7.3,9.6-13.7,19.7-16.3,31.7c-2,9-1,17.1,4.5,25.1c27.9,40.8,55.4,81.9,83.1,122.8c8.6,12.7,22.8,17.4,39.3,13.3
	c6.3-1.6,12.3-4.2,18-7.2c1.8-0.9,2.9-1.7,4.1,1C1052.3,444.5,1065.4,490.1,1066.5,501.7z" fill="#FEFEFE"></path>
<path d="M952.9,779.3c3.7,14.8,7.8,29.5,10.4,44.6c4.2,24.7,6.2,49.5,5.4,74.5c-0.1,2-0.3,3.9-1.7,5.6
	c-51.4,61-113.4,107.3-187.7,136.9c-6.9,1.9-14,2.8-21.2,2.4c-9.3-0.5-18.6,1.3-27.9,1.1c-27.2-0.6-54.5-1.5-81.6-3.9
	c-58-5-115.1-15-171.4-29.7c-24.1-6.3-46.6-15.8-65.8-32.2c-11.8-10.1-21.1-22.1-28.7-35.5c-12.7-22.4-19-46.8-21.4-72.2
	c-1.3-14.2-2.4-28.5-1-42.7c0.2-2-0.1-4,1.7-5.5c2.4-1.2,4.6-0.2,6.7,0.6c24.6,9.7,49.3,19,73.9,28.6c8.2,3.2,16.4,6.4,24.6,9.5
	c3.6,1.4,5.7,0.6,6.7-3.2c1.5-5.4,2.9-10.9,4.5-16.3c0.7-2.4,0.3-4.4-2.3-5.2c-4.6-1.4-5.1-4.7-4.1-8.7c3-13,5.5-26,6.8-39.2
	c0.7-5.4,1.8-10.8,1.6-16.3c-0.1-1.9,0.5-3.6,1.1-5.3c1-2,0.8-4.2,0.9-6.4c0.1-3.3,1.6-5,5-4.7c12.5,1.4,25.1,3.2,37.6,5
	c4.3,0.6,4.8,2.7,2,6.2c-1.5,1.8-3.3,3.3-4.8,5.1c-7.7,9.2-6.6,19.2,3.1,26.3c7,5.1,15.1,7.5,23.3,9.7c19.4,5.1,38.7,6.4,58-0.4
	c-1.7,0.4-3.5,0.7-5.2,0.5c-1.7-0.2-3.7,0.1-5-2.4c7.1-3.2,15,0.6,21.8-2.9c5.7-2.7,11.8-4.3,17.3-7.5c6.6-3.7,11.9-8.9,17.5-13.8
	c2.1-1.7,4.5-2.6,7.2-3.1c37.8-7.1,74.7-17.2,110.2-32.3c24.2-10.3,46.4-23.7,66.2-41.1c4-3.5,7.3-7.7,10.6-11.9
	c4-4.6,9.3-7.9,12.8-13c4.6-6.8,8.2-13.9,9.5-22.1c0.3-1.7,0.3-3.7,1.9-4.9c1.7-6.2,1-12.5,1.5-19.1c11.2,12.5,21.4,25.8,30.1,40.1
	c4.7,5.5,8.8,11.6,12.5,17.7c11.8,19.5,21.5,40,29.6,61.3c2.6,6.8,4.9,13.8,7.2,20.7C952.8,776,953.4,777.6,952.9,779.3z" fill="#F7F7F7"></path>
<path d="M222,662.4c-7.6-0.8-7.6-0.8-7.8-8.5c-1.3-45-2.6-90-3.9-135c0-1.1-0.7-2.3,0.7-3.1c1.7,2.2,3.8,3.3,6.7,3.6
	c37.2,3.8,73.8,10.5,109.3,22.4c28.2,9.5,55.1,21.6,78.4,40.7c15.8,12.9,27.2,29,36.7,46.8c10.9,20.3,19.8,41.4,25,64
	c2.5,11,4,22.2,4.9,33.5c3,35.1-3.7,68.9-12.7,102.4c-0.1,0.5-0.4,0.9-0.7,1.3c-2,0.9-3.9,0.2-5.8-0.4c-22.5-7-45.1-13.3-67.6-20.1
	c-1.3-0.4-2.6-0.7-3.7-1.5c-2.1-1.4-2.9-3.5-3.5-5.8c-7.2-25.7-19.7-48.7-37.2-68.7c-16.4-18.8-35.8-34.3-57.8-46
	c-5.7-3-11.2-6.5-17.5-8.5c-8.6-4.3-16.9-9.5-26.2-12.3c-4.2-2.1-8.9-2.2-13.3-3.2C224.6,663.6,223.1,663.5,222,662.4z" fill="#FEE1B3"></path>
<path d="M363.1,823c-2.3,6.6-2.5,13.6-2,20.4c0.4,5.1,0.4,10.2,0.7,15.4c1.3,26.4,6.4,51.9,17.9,75.8
	c12.5,26,31.5,46.2,57,59.7c17.1,9.1,35.7,14,54.4,18.6c24.7,6.2,49.6,11.4,74.7,15.7c18,3.1,36.2,5.6,54.4,7.5
	c19.7,2.1,39.4,4.1,59.3,5c19.7,0.9,39.4,2.2,59.1,1.8c13.6-0.3,27.1-1.2,40.7-1.9c-20.3,8.9-41.4,15.5-62.8,20.8
	c-49.6,12.4-100,16.7-151,12.9c-97-7.3-183.9-41.3-260.4-101.4c-19.4-15.2-37.7-31.6-54-50.2c-2.2-16.2-3.2-32.3-2-48.7
	c1.1-14.1,2.4-28.1,5.1-42c0.6-2.8,2.9-5.4,1.5-8.6c1.8-2.4,3.9-0.7,5.8-0.2c9.2,2.3,18.3,4.6,28,2.6c11.2-2.4,20.6-7.3,26.9-17.2
	c2.1-3.2,4.4-3.9,7.9-2.5c11.5,4.3,22.9,8.8,34.3,13.2C360.4,820.3,362.6,820.6,363.1,823z" fill="#F7DCDD"></path>
<path d="M860.3,572.6c-1.8,5.3-6.7,8.2-9.5,12.7c0.1,2.7-2,4.1-3.6,5.7c-18.2,18.1-38.8,32.8-61.4,44.8
	c-37.9,20.1-78.3,32.3-120.6,38.4c-13.5,1.9-27.1,3-40.7,3.8c-9.6,0.6-19.3,1.1-28.9,0.7c-38.1-1.5-75.9-6-112.5-17.5
	c-5.2-1.6-10.7-2.6-15.3-5.8c-4.5-8.1-7.8-16.8-12-25.1c-12.3-24.5-29.8-44.6-50.9-61.9c-1.8-1.4-4-2.5-4.8-4.9
	c-0.1-3.2,2.7-3.7,4.7-4.8c1.7-0.9,3.3-2.1,5.1-2.7c0.8-0.2,1.6-0.1,2.4,0.3c9.9,9.2,19.9,18.1,31.2,25.5
	c25.2,16.4,52.6,27.6,81.5,35.7c24.1,6.7,48.7,10.8,73.5,13.3c20,2,40.1,3,60.2,2.2c36.7-1.4,72.9-5.9,108.1-16.9
	c26.2-8.2,50.8-19.7,72-37.7c1.6-1.4,3.4-2.5,6-3.5c0,0-1-0.9-0.6-0.3c0.1,0.2,0,0.3-0.3,0.4c-2.9,0.1-6.4,1.8-7.3-3
	c1.8-1,3.8-0.9,5.7-0.4C848.3,572.9,854.4,571.2,860.3,572.6z" fill="#F7DCDD"></path>
<path d="M841.2,602.3c3.8-3.9,7.7-7.8,11.4-11.8c2-2.2,3.1-1.9,4.1,0.8c9.2,24.8,15.4,49.8,6.5,76.1
	c-0.1,0.3-0.1,0.7-0.1,1c-0.1,0.5-0.4,1-0.7,1.4c-2.2,3.5-5.5,5.7-8.8,8c-19.6,13.8-41,24-63.5,32c-36.1,12.8-73.5,19.8-111.3,24.7
	c-2,0.3-4,0-6,0.3c-3.2,0.4-5.1-0.9-6-3.9c-3.9-14.7-10.1-27.9-22.1-37.9c-0.9-0.7-1.7-1.6-1.6-2.9c3-3.5,7.4-2.4,11.1-2.8
	c47.3-5.7,92.1-18.7,133.3-43.1c18.4-10.9,35.2-23.9,50.2-39.1C838.7,603.9,840.2,603.5,841.2,602.3z" fill="#F33B17"></path>
<path d="M1067.8,627.5c7.9,5.7,7.9,13.5,6.6,22.1c-1.8,11.9-2.7,24-5.5,35.8c-3.7,4-8.5,6.2-13.3,8.3
	c-11.9,5.3-24.5,7.7-37.5,8.8c-0.8,0-1.6-0.2-2.4-0.5c-11.9-6.4-24.1-6.8-36.5-1.9c-1,0.3-2.1,0.4-3.2,0.4
	c-15.7-2.5-30.4-7.4-42.9-17.5c-15.2-12.2-19.5-31.5-10.9-48.9c3-6,6.9-11.3,11.7-16c13.3-8.1,28.1-11.5,43.2-13.6
	c11.2-1.5,22.5-1,33.7-0.2c1-1,2.2-0.6,3.3-0.5c18.2,2.7,35.2,8.2,50.1,19.5C1065.8,624.5,1067.5,625.4,1067.8,627.5z" fill="#F7F7F7"></path>
<path d="M860.3,572.6c-8,2.3-16,0.3-24.1-0.1c-1.9,1.4-3.8,0.3-5.7-0.1c-16.5-4-31.4-11.4-44.2-22.8
	c-8.4-7.5-14.1-16.7-16.7-27.6c-0.8-3.2-1.3-6.5,0.5-9.7c1.8-1.3,3.8-0.9,5.8-0.5c10.6,2.4,20.8,5.6,30.1,11.5
	c1.4,0.9,2.7,1.9,4.3,2.6c1.1,0.7,2.2,1.5,3.3,2.3c0.4,0.2,0.7,0.5,1,0.8c-0.1-0.3-0.5-0.4-0.7-0.6c-1.1-0.8-2.1-1.5-3.1-2.3
	c-1.2-0.7-2.4-1.3-3.5-2.1c-11.4-7.4-22.8-15-35.9-19.2c-1.1-0.3-2.3-0.7-2.2-2.2c4.1-5.3,5.5-12.1,9.8-17.2
	c0.9-1.1,1.4-2.6,2.7-3.6c6.9-3.1,14.2-4.2,21.6-5.3c2.8-0.4,5.5-1,8.3-1.2c2.2-0.1,4.5,0,6.7-0.1c2.8,0,5.6,0,8.4-0.1
	c-9.6-0.2-19.1-0.1-28.7-0.2c-2.1,0-4.3,0.3-6.3-0.9c-1.3-2.9,1.3-3.8,2.7-5c10.2-8.4,22.3-13,34.8-16.6c12.8-3.6,26.1-4.2,39.4-4.9
	c2.3-0.1,4.6,0.5,6.8,1.4c2.6,1.8,3.5,4.7,4.5,7.5c3.9,10.3,6.6,20.8,7.8,31.7c0.1,10.1,0.4,20.3-1.2,30.3c-0.5,1.9-1.2,3.7-1.6,5.6
	c-0.3,0.5-0.7,0.7-1.2,0.7c-0.6,0.2-0.9-1.5-1.2-0.7c-3.8,13.1-11.7,23.7-19.9,34.1c-3.9,5-7.7,10.3-12.8,13.3
	c3.6,0.6,7.6-2.4,11.9,0C861.1,571.9,860.7,572.3,860.3,572.6z" fill="#FE7C7E"></path>
<path d="M200,671.4c1.7-0.9,3.4-1.8,5.1-2.7c1.4-1.8,3.5-2,5.4-2.1c8.2-0.3,16.5-1,24.6,1.5
	c10.9,3.5,21.1,8.5,30.4,15.2c1.2,0.9,2.4,1.8,3.1,3.1c0.6,1.4,0.6,2.9,0.6,4.4c-0.1,25.9,15.8,40.5,37.6,46.1
	c1.1,0.3,2.3,0.4,3.3,1c4.3,4.1,5.1,9.9,7.1,15.1c1.8,4.8,2.8,9.8,3,15c-2,21-20.3,34.5-40.9,30.7c-12.5-2.3-23-8.4-33.3-15.2
	c-15.9-10.5-30.9-21.9-43-36.9c-10.5-13-18.2-27.2-17.2-44.5C186.5,690.2,190.4,679.4,200,671.4z" fill="#F7F7F7"></path>
<path d="M862.3,668.5c0.2-0.1,0.4-0.1,0.7-0.1c1.7-0.5,1.8-2,2.3-3.4c2.9-9.3,3.1-18.8,2.9-28.4c0-1.4-1.2-4,1.1-4.1
	c2.5-0.1,1.8,2.7,1.8,4.4c0.1,5.6,0.1,11.3,0.2,16.9c-1.3,14.9-7.8,27.1-19.1,36.8c-1.4,1.2-2.7,2.4-4.1,3.5
	c-7.4,7-16.7,11-25.5,15.4c-22.3,10.9-45.3,20-69.1,27.2c-26.2,8-52.9,13.3-80,16.7c-3.7,0.5-5.5,1.9-6.5,5.5
	c-2.4,9.3-6.4,17.8-13.9,24.3c-9.3,10.1-20.7,16.9-33.7,20.9c-36.9,9-68.3-11.6-78.2-44.8c-1.1-3.7-2.8-5.6-6.7-6.1
	c-15.2-1.7-30.3-4.3-45.3-7.6c-4.6-1-5-0.4-5.2,4.5c-0.2,5.8-0.8,11.5-1.4,17.2c-1.5,7.4-0.8,15-2.8,22.3c-2.2-2-1.6-4.6-1.4-7
	c1.1-14,3-28.1,1.1-42.2c-0.4-3.1,1.3-6-0.9-9.5c-1.6-2.6-1-7-0.1-10.3c0.9-3.3-0.5-5.9-1-8.8c-0.1-0.3-0.5,0.6-1,0.7
	c-1.8-0.2-2-1.7-2.1-3c-1.9-15.2-5.6-30-9.1-44.9c-0.1-2.1-0.1-4.2-0.4-6.2c-0.3-2-0.1-4,2.7-4c19,7.3,38.6,12.2,58.6,15.7
	c71.1,12.6,141.1,8.7,209.7-14.3c35.3-11.8,67.9-28.8,96.3-53.1c6.4-5.5,12.4-11.6,18.5-17.4c2.6,1.6,2,3.1,0.2,5
	c-3.9,4.1-8.5,7.5-11.7,12.4c-3.5,6.5-9.6,10.4-15.2,14.6c-30.1,22.3-63.5,37.9-99.3,48.7c-22.7,6.8-45.8,11.4-69.2,14.4
	c-7.2,0.9-14.5,1.2-22.1,2.2c3.7,2.8,8.2,3.6,10.1,7.8c12.7,10.5,20.9,23.8,24,40c1.3,3.9,2.7,7.7,2.4,12c-0.2,3.4,2.1,3.6,4.7,3.2
	c13.8-2,27.7-3.9,41.3-7c36.9-8.3,72.3-20.5,106.1-37.3c7.1-3.6,14.1-7.5,20.9-11.7C851.4,684.2,856.9,676.5,862.3,668.5z" fill="#4B0F00"></path>
<path d="M409.8,556.8c-2.5,3.1-7.2,3-9.4,6.6c-2.1,0.5-3.5-0.9-5-1.9c-21.6-15.1-45.2-25.9-70.5-33.4
	c-1.1-0.3-2.3-0.6-2.9-1.7c-0.1-0.2-0.1-0.5,0-0.7c0.4-2-0.1-3.9-0.6-5.9c-5.4-20.8-5.6-41.6-0.4-62.5c0.7-3,1-6.3,3.9-8.3
	c5.6-2.3,11.4-2,17.2-1.7c8.9,0.3,17.9,0.8,26.6,3.2c7.9,3.3,7.9,3.3,7.5,12c-0.1,3.3,0.5,6.6,0.4,9.9c-0.3,1.3-1.7,2.6-0.1,4
	c2.6,17.8,7.4,35,15.4,51.2c0.3,1.2-0.1,2.7,1.4,3.3c5.2,7.2,9.7,14.9,15.7,21.5C410.2,553.6,412,554.9,409.8,556.8z" fill="#FE6F71"></path>
<path d="M144.1,463.5c3.2-12.8,7.8-25.2,12.7-37.5c4.6,4.2,9.2,8.5,14.7,11.5c1.1,0.6,2.4,1.7,3.6,0.4
	c1-1,0-2.2-0.4-3.2c0.3-5.8-3.5-9.8-6.1-14.3c-1.8-3-4.7-5.2-5.6-8.7c3.1-8.9,7.3-17.4,11.8-25.7c5.6,5.3,10.6,11.3,16.7,16.1
	c3,2.4,6.1,4.6,9.3,6.6c1.2,0.7,2.7,2.1,4,0.5c1-1.2-0.6-2.4-1.1-3.5c0.2-4.9-2.1-9-4.9-12.8c-4.3-5.9-8.6-11.8-13.8-17
	c-1.6-1.6-3.4-3.3-2-6c3.4-6.2,6.7-12.5,10.8-18.3c5,2.4,7.4,7.4,10.9,11.3c6.5,7.4,13.8,13.8,21.8,19.4c2.2,1.5,2.3,1.4,5.5,1.3
	c-0.2-2.7-4.3-1-4.3-3.9c3.7-1.5,3.6-3.8,1.8-6.9c-5.1-8.6-11.3-16.2-18.1-23.4c-3.2-3.5-7.4-6.1-9.5-10.6
	c4.9-8.5,10.6-16.4,16.8-24.1c1-0.5,2-0.1,2.8,0.4c15.2,10,27.9,22,32.6,40.5c1.1,4.5,1.6,9.1,1.6,13.8c0,7.4-5,12-9.8,16.6
	c-11.2,10.7-21.7,22.1-33.3,32.2c-8.4,7.3-16.5,14.9-25,22.1c-14.1,13-28.5,25.5-42.6,38.4c-1.6,1.5-3.2,3.5-6,2.8
	c0.8-5,2.2-9.9,3.8-14.7C145.9,466.8,144.2,464.9,144.1,463.5z" fill="#FEB23C"></path>
<path d="M979.1,310.7c5.3,6,9.7,12.5,14.1,19.1c1.1,2.8-1.1,3.8-2.7,5.2c-4.6,4.1-9.4,8-11.8,13.9
	c-0.4,1.3-2.2,2.5-0.7,3.9c1.1,1,2.5,0.5,3.8,0.1c5.1-1.9,10.2-3.8,14.8-6.7c1.8-1.1,3.5-2.5,5.8-2.5c5,7.4,9.7,15,13.6,23
	c0.5,2.4-1.7,2.9-2.9,4.1c-4,4.2-9.4,7.5-10.1,14.2c-0.6,0.8-1.9,1.2-1.4,2.4c0.4,1.1,1.6,1.1,2.6,0.8c4.6-1,8.8-2.8,12.9-5.1
	c2-1.1,3.8-2.7,6.1-3.2c5.2,9.4,9.6,19.2,14.1,29c1.1,2.4,0.5,3.6-1.6,4.7c-8.1,5.7-28.6,5.2-37-6.5c-6.8-9.4-13.3-19.1-19.7-28.8
	c-19.7-29.6-39.9-58.8-59.4-88.6c-3-4.5-7.4-8.2-8.3-13.9c-0.5-3.6-2.2-7.1-0.3-10.7c3.7-5.6,7.3-11.2,12.3-15.8
	c7.3,6.5,14.4,13.2,20.9,20.5c0.4,2.4-1.5,3.4-2.7,4.8c-2.2,2.6-4.5,5.1-5.7,8.4c-0.3,1.3-2,2.6-0.5,4c1.1,1,2.5,0.3,3.8,0
	c5.5-1.1,10-4.8,15.4-6.2c5.1,5.5,10.1,11,14.6,17.1c0.5,2.4-1.7,2.9-2.9,4.1c-3.8,3.8-8.4,7.1-9,13.1c-0.6,0.9-2.2,1.3-1.5,2.7
	c0.7,1.3,2.1,0.9,3.1,0.6c5.2-1.3,9.9-3.7,14.5-6.2C975,311.2,976.7,309.6,979.1,310.7z" fill="#FEB23C"></path>
<path d="M1055,742.4c-12.5,40.6-30.6,78.6-53.4,114.4c-1.3,2-2.5,2.8-4.8,1.9c-6.7-2.3-13.6-3.2-20.6-3
	c-3.1,0.1-3.9-1-4.2-3.9c-2-21.6-5.9-42.8-11.9-63.7c-1.1-3.9,0-4.3,3.6-4c14.4,1,28.6,0.3,42.5-4c21-6.6,36.5-20,47.6-38.8
	C1054.8,741,1055.3,741.3,1055,742.4z" fill="#FEFEFE"></path>
<path d="M1068.7,511.5c2.3,10.2,3.3,20.6,5,31c0.5,3.3-1.5,3.6-3.7,3.7c-8.7,0.6-16.7-2.1-24.5-5.5
	c-2.4-1.1-4.8-2.3-7.2-3.5c-1.4-0.7-2.9-1.3-4,0.3c-1.1,1.5-0.1,2.8,0.9,4c1.2,1.4,2.3,2.8,3.4,4.2c3.9,9,4.9,18.4,4.9,28.1
	c0,5.5-1.7,10.3-3.5,15.3c-0.9,2.9-3.4,4.7-5,7.1c-0.9,1.3-1.8,2.5-0.6,4c1.2,1.4,2.5,0.9,4,0.2c2.5-1.2,5-2.4,7.5-3.5
	c2.5,0.2,4.8-0.8,7.1-1.4c6-1,12-1.7,18.1-1.3c1.9,0.1,4-0.1,5.6,1.4c0.4,8.6,0.1,17.1-0.2,25.7c-0.2,4.3-1.9,5.2-5.5,3.1
	c-1.6,0-2.7-1.1-3.9-2c-12.6-9.5-26.7-15.8-42.1-18.5c-6.8-1.2-10.8-4.5-13.8-10.6c-13-26.9-5.3-58.6,18.9-76.2
	c1.5-1.1,2.8-2.4,4.9-2.2c5.9-2.4,11.4-5.8,17.8-6.8c3.4,1.3,7.2,0,10.6,1.3C1065.3,509.8,1067.3,510,1068.7,511.5z" fill="#FEB23C"></path>
<path d="M200,671.4c-8.2,10.2-13.6,21.5-13,35c0.5,13.1,5.8,24.4,13.3,34.7c15,20.5,35.3,34.6,56.6,47.7
	c8.7,5.4,18.1,8.4,28,9.3c17,1.4,31.7-12,34.1-30.1c1.4,0.3,1.8,1.4,1.9,2.6c1.4,14,0.7,27.7-8.3,39.4
	c-9.1,11.9-21.9,15.7-36.2,14.3c-8.2-0.8-16.3-3-23.8-6.7c-2-1.3-4.4-2.1-6.3-3.8c-0.1-0.2-0.2-0.4-0.3-0.6
	c-19.1-11.4-35-26.3-47.1-45c-11.1-17.1-18.8-35.5-19.4-56.2c-0.3-9.1,1-17.9,5.4-26C188.4,679.5,193,674.2,200,671.4z" fill="#F7DCDD"></path>
<path d="M466.6,664.7c4.4,15.8,7.4,31.8,9.9,48c0.9,0.6,1,1.5,1.2,2.5c1.6,17.2,1.6,34.5,1.2,51.7
	c-0.1,3.9-0.8,7.9-0.8,11.9c-2.1,14.6-3.4,29.3-7,43.7c-0.4,1.6-0.7,3.2-1.1,4.8c-1.9,7.1-5.6,8.1-11.2,2.9
	c-0.8-5.8,2.2-10.9,3.4-16.3c4.2-18.6,7.2-37.3,8.8-56.3c1.8-20.9-0.5-41.4-4.5-61.7c-3-15.1-8.1-29.8-14.5-43.9
	c-6.7-14.7-14.1-28.9-23.1-42.3c-10.3-15.2-23.9-27-39.1-37.1c-18.8-12.5-39.4-21.4-60.6-28.7c-22.7-7.8-46.1-13.4-69.8-17.4
	c-14.8-2.5-29.7-4.7-44.7-5.8c-3.5-0.3-3.4-2.4-3.5-4.8c10.8-1,21.5,0.5,32.3,1.2c25.3,1.8,50.1,6.4,74.6,12.5c4-0.8,7.5,1.2,11,2.4
	c29.3,9.3,56.5,22.7,80,42.7c23.2,19.7,40.6,43.8,52.1,72.1C463.4,652.6,465.5,658.5,466.6,664.7z" fill="#FEF5DE"></path>
<path d="M863.8,401.9c8.9,13.4,17.2,27,22.1,42.5c0.5,1.7,0.9,3.5,1.4,5.2c-0.3,2.4-1.8,0.9-2.9,1
	c-9.1,0.8-13-4.6-16.8-12.1c-12.4-24.6-29.8-45.5-50.4-63.8c-12.9-11.5-27.3-20.7-42.1-29.3c-23.1-13.5-48.1-22.5-73.9-29.3
	c-18.3-4.9-36.9-8.2-55.7-10.8c-23.3-3.2-46.6-4.1-70.1-4c-3.9,0-4.8,1.8-4.8,5.2c0,2.2,1,6.1-2,6.1c-2.3,0-1.4-3.9-1.5-6.1
	c-0.2-2.3,0.1-4.7-0.4-7c-0.2-1.5,0.2-2.6,1.5-3.4c32.3-2.7,64.4-1.7,96.4,2.8c1.1,0.2,2.3,0.1,3.4,0.2c0.3,0,0.5,0,0.8-0.1
	c7.1-0.1,14,2,21,2.8c21.2,4.6,41.9,10.6,62,18.6c33.8,13.5,65,31.2,91,57c5.9,5.9,12.1,11.5,17,18.2
	C861.5,397.5,863.7,399.1,863.8,401.9z" fill="#FBFBFB"></path>
<path d="M476.6,714.3c0-0.6-0.1-1.1-0.1-1.7c0.1-2.1,0.2-4.3,0.3-6.5c2.6,0.8,1.4,2.8,1.8,4.1
	c2.5,7.1,0.4,14.4,1,21.5c0.1,1,0.1,1.1,0.9,0.9c0.2,0,0.3-0.8,0.8-1.3c-1.3,11.5,1.3,22.9-0.2,34.5c-0.9,7.8-1.9,15.7-1.4,23.7
	c-0.8,13.5-3.7,26.6-6.7,39.7c-0.8,3.6-0.7,5.7,3.5,6.2c3.5,0.5,4.6,2.5,3.5,6.1c-1.9,6-3.6,12.1-5.1,18.3c-1.1,4.6-3.2,4.8-7.2,3.3
	c-27.7-10.9-55.5-21.5-83.2-32.2c-7.1-2.7-14.3-5.3-21.5-8c-13.7-5.4-27.4-10.8-41.1-16.3c-1.4-0.6-2.5-0.5-3.4,0.9
	c-15,23-36.2,23.4-59.4,16.4c-1.1-0.3-2.2-0.6-3.3-0.9c-1.7,0.5-2.9,0.2-3-1.9c-0.9-2.1-3.1-2.3-4.7-3.2c-1.7-1-4.4-2-2.2-4.9
	c0,0-0.1,0-0.1,0c1.7,1.7,3.9,2.3,6.1,3c9.5,3.5,19,6.9,29.4,6.9c18.9-0.1,32.4-10.3,37.1-28.5c2.3-8.8,2.6-17.7,0.5-26.6
	c-1.1-10.5-4.6-20.3-9.4-29.7c-1.6-1.3-2.5-3.1-3.4-4.9c-8.7-16.5-20.5-30.6-34.8-42.6c-1.4-1.2-2.5-2.7-3.5-4.1
	c-9.5-7.8-20.5-13-32-17.3c-8.7-3.5-17.7-2.8-26.7-2.1c-1.4,0.1-2.8,1-4.3,0.1c-1-0.6-2.3-1.1-0.2-2.1c2.2-1.1,4.4-0.4,6.6-0.1
	c3,0.5,6.2,0.1,9.7,0.1c-2.1-1.7-4.3-0.2-7.1-1.9c3.3,0,5.6,0,7.9,0c6.3-0.5,12.3,1.2,18.3,2.9c9.3,2.3,17.2,7.7,25.5,12.2
	c14.4,7.7,25,19.6,34.7,32.3c12.8,16.9,21.9,35.6,25.1,56.8c0.8,5.2,1.2,10.5,0.8,15.9c-0.4,5.5,0.4,6.7,5.7,8.2
	c12.8,3.5,25.5,7.6,38.2,11.2c4,1.1,7.9,2.3,11.5,4.5c25.6,7.6,51.3,15.2,76.9,22.8c8.4,3.1,8.3,3.1,10.5-5.7
	c3.6-14.8,5.2-30,7.5-45.1c1.6-3.4,1.3-7.2,1.4-10.7c0.7-17.8,1-35.6-0.9-53.4C477.1,714.9,476.8,714.6,476.6,714.3z" fill="#4B0E00"></path>
<path d="M1039,417c4.2,1.3,4.1,5.4,4.7,8.5c0.5,2.4-2.8,2.9-4.7,3.7c-9.6,4.7-19.4,8.7-30.6,6.7
	c-7.9-1.4-13.9-5.5-18.3-11.9c-28.2-41.6-56.2-83.3-84.4-124.8c-5.4-8-3.6-16.1-1.1-24.3c1.9-0.3,1.2,1.9,2.3,2.2
	c5.8,5.8,9.5,13.1,14,19.8c23.8,35.5,47.8,70.8,71.6,106.3c4.6,6.8,9.8,12.6,17.9,15c7,2.1,14.1,1.9,21.1,0.2
	C1034.2,417.7,1036.4,416.2,1039,417z" fill="#C77A00"></path>
<path d="M421.8,232.7c17.7,3.8,33.8,11.6,49,21.3c16.9,10.7,31.8,23.9,45,38.9c1.2,1.3,2.7,2.5,3.2,4.5
	c-1.2,0.4-2.4,0.9-3.6,1.3c-3.5,3.1-6.6,1.9-9.8-0.7c-9.7-7.8-19.9-15-30.9-21c-19-10.5-39.3-16.9-60.8-19.7
	c-3.2-0.4-5.4,1.1-7.5,3.1c-10.4,10.4-18.9,22.3-26.8,34.6c-6.4,9.9-12.1,20.2-16.9,31.1c-0.6,1.3-1,3-3,2.7c-1.3-1.7-0.5-3.5,0-5.2
	c6.9-22.1,16.3-42.9,31.2-60.9c3.5-4.3,7.7-7.8,12.1-11.1c1.9-1.5,4.1-2,6.6-1.8c29.9,2.8,57.5,12,81.8,30.1
	c3.6,2.7,7.5,4.9,11.1,7.7c0.6,0.5,1.2,1.1,1.8,1.7c-25.5-25.2-56.3-38.7-89.6-46c-6.9-1.5-11.5,1-16.1,5.2
	c-14.2,12.9-25.9,27.6-34.6,44.8c-10.1,19.9-17.1,40.7-21.7,62.5c-0.4,1.8-0.6,3.6-1.7,5.2c-0.9,1.3-1.8,1.3-2.5-0.3
	c-0.1-6.5,1.1-12.8,1.7-19.3c1.9-13.1,5.5-25.7,11-37.8c3.6-4.5,5.2-10.1,7.7-15.2c10.2-20.1,22.6-38.6,39.4-53.7
	c5.4-4.8,11.9-3,18.1-2.4C417.9,232.5,419.8,233.1,421.8,232.7z" fill="#FBDFE0"></path>
<path d="M863.8,401.9c-11.3-14-23.5-27-37.7-38.2c-37-29-79.2-46.9-124.6-57.9c-3.7-0.9-7.4-1.9-11.1-2.8
	c-7.1-2.6-14.7-2.7-22.1-4c0,0,0,0,0,0c3.2-2.3,6.5-0.6,9.9-0.3c4.5,0.5,9,1.4,13.5,0c5.6-0.2,10.4-2.2,14.2-6.5
	c7.1-5.4,14.2-10.7,22.1-15c2.2-1.1,4.6-2.1,6.6-3.6c0.4-0.3,0.8-0.5,1.2-0.7c3.3-1.9,7.1-2.9,10.4-4.9c1.4-0.9,2.8-1.7,4.4-2.2
	c2.8-0.6,5.5-1.6,8.1-2.9c11.3-4.1,23-6.3,34.8-8.1c4-0.6,7,0.7,9.8,3.5c13.1,13.3,23.5,28.6,33.1,44.6c2.5,4.1,4.8,8.3,6.9,12.7
	c6.8,13.6,12.2,27.7,16.3,42.4c2.1,10.3,4.8,20.4,5.2,30.9c0.1,3.7,3.2,6.6,2.7,10.4C866.6,400.9,866.2,402.8,863.8,401.9z" fill="#4A0E01"></path>
<path d="M359.9,328.9c7.7-16,16-31.7,26.5-46.1c5.8-7.9,12-15.5,18.4-22.9c3-3.5,6-4.3,10.4-3.7
	c33.6,4.3,63,18.1,89.1,39.3c3.4,2.8,6.6,4.8,11.1,3.2c5.8,0.9,11.4,0.5,17.1-0.7c1.9-0.4,4.3-1,6.1,0.9c-0.4,0.4-0.8,0.7-1.3,0.8
	c-2,0.5-4.1,0.3-6,1c-4.8,0.9-9.8,0.5-14.2,3c-8,3.4-16.9,3.8-25.1,6.9c-23.1,6.1-45.2,15-66.6,25.7c-4.6,1.9-8.8,4.6-13.1,7.1
	c-3.8,2.1-7.5,4.6-11.1,7.1c-20.5,13.2-38.4,29.3-53.7,48.3c-1.1,1.4-2.1,3-4.3,3c-0.8-0.2-2.4,1.3-1.9-1.1c0.3-1.4,0.4-2.8,0.5-4.1
	c2-10.4,2.8-21.1,5-31.4c2.8-10.1,5.5-20.2,9.3-30C357,332.9,357.4,330.3,359.9,328.9z" fill="#4B0E00"></path>
<path d="M706.4,292.9c-4,4.4-8.1,8.3-14.8,5.9c-1.9-0.7-3.8-1.1-1.4-3.7c4-4.2,7.5-8.8,12-12.4
	c2.9-0.2,3.9-2.8,5.8-4.3c27.1-21.3,56.6-37.8,90.3-46.1c7.1-1.7,12.3-0.1,17,4.8c0.8,0.8,1.5,1.8,2.9,1.7
	c15.2,17.2,26.9,36.7,36.2,57.6c13.2,29.7,19.4,60.7,15.6,93.3c-0.4,3.3,0.6,7.2-2.8,9.6c-3.3-3.8-4-8.5-4.3-13.3
	c-0.6-9.6-3.1-18.9-4.9-28.3c2.3-0.8,2.3,2.6,4.9,2.4c-2-9.6-3.4-19.3-6.1-28.7c-9.3-33-27.1-61.1-50.4-86
	c-3.1-3.3-6.1-4.2-10.6-3.4c-30.7,5.9-57.8,19.4-82.1,38.8c-2.9,2.3-5.1,5.3-8.2,7.3C702.4,290.4,703.3,291.7,706.4,292.9z" fill="#FBDFE0"></path>
<path d="M261,380.8c1.1-0.4,1.1-2.1,2.9-2.2c0.7,9.3,0,17.7-7.7,24.8c-37,33.9-73.8,68.2-110.6,102.3
	c-0.1,0.1-0.2,0.2-0.4,0.3c-3.7,2.6-7.9,6.3-11.9,4.7c-2.2-0.9,0.9-6.5,0.9-10c0-5.5,3.9-7.9,8-10.2c6.9-7.9,15.1-14.4,22.8-21.5
	c5.7-5.3,11.5-10.6,17.2-15.9c11.9-11.1,23.9-22.1,35.8-33.3c13.3-12.6,26.9-24.7,40.2-37.3C258.8,381.7,259.7,380.9,261,380.8z" fill="#C77A00"></path>
<path d="M203.1,658.4c-1.4-11.4-2.8-22.7-4.1-34.1c-2.6-23.1-5.2-46.1-7.8-69.2c-1.7-14.8-3.2-29.7-4.9-44.5
	c-0.3-2.5,0.4-3.9,3-4c1.2-0.1,2.3-0.1,3.5-0.2c3.9-0.2,8.6-3.1,11.3-0.4c2.6,2.5,0.9,7.6,1,11.5c0.7,25.1,1.2,50.1,2.1,75.2
	c0.8,21.9,1.8,43.8,1.8,65.7C207,659.9,205,660,203.1,658.4z" fill="#DA590E"></path>
<path d="M1058,718.4c-9.6,35.7-39.6,59.6-76.3,60.8c-8.1,0.3-16.3,0.5-24.4-1.2c-0.2-0.1-0.5-0.2-0.7-0.3
	c-2.6-3.4-2.6-7.9-4.4-11.6c-0.5-1.7-1.2-3.4-1.2-5.2c0.1-3.1,2-3,4.5-2.8c17.6,1.5,35.1,2,52.1-4.3c24.2-8.9,40.7-25.6,50.2-49.4
	c0.4-1.1,0.8-2.2,1.6-3.1c0.4-0.4,0.9-0.5,1.5-0.4c1.7,2.1-0.5,4.3,0.1,6.4C1059.7,711,1059.1,714.8,1058,718.4z" fill="#F7F7F7"></path>
<path d="M643.5,690.3c-4.5-2.7-8.9-5.4-14.2-8.6c10.7-1.2,20.3-2.1,29.9-3.3c20.6-2.4,40.8-6.7,60.8-12.3
	c20-5.7,39.4-13,58-22.2c20.6-10.1,40-22.3,57.5-37.3c1.4-1.2,2.5-2.6,3.8-3.9c0.6-0.1,1.2-0.3,1.9-0.4c-6.3,8.6-14.5,15.3-22.7,22
	c-17.8,14.6-37.5,26.1-58.4,35.7c-25.4,11.7-52,19.7-79.5,24.5c-11.9,2.1-23.8,4.2-35.8,5C644.3,689.6,643.9,690.1,643.5,690.3z" fill="#CC191D"></path>
<path d="M934,618.2c-3,6.5-8.3,11.5-11.4,18c-7.7,15.9-2.1,34.7,11,45.6c12.5,10.3,27.2,14.8,42.6,17.7
	c-3.6,5.1-9.6,6.9-14.3,10.5c-6.4,0.5-11.9-2.7-17.5-4.9c-12.9-5.2-24.8-12-33.2-23.6c-2.2-3.1-4.9-6-4.9-10.1
	C900.7,648.4,911.4,627.8,934,618.2z" fill="#F7DCDD"></path>
<path d="M906.3,671.4c11.9,22.4,32.3,32.4,55.8,37.9c1.6-0.8,3.3-0.6,4.9-0.3c20.5,4.7,40.8,3.1,61.1-1.4
	c10.6-3.1,21-6.7,30.3-12.9c1.3-0.9,2.7-1.9,4.5-1.4c2,0.2,1.8,1.1,0.6,2.1c-1.8,1.5-3.2,3.1-2.5,5.6c-0.3,0.2-0.6,0.3-0.9,0.5
	c-3.5,4.2-8.5,5.7-13.2,7.8c-12.9,5.7-26.6,8.2-40.6,9.6c-22.2,2.3-43.4-1.3-64.1-8.9c-4.7-1.7-9-4.3-13.8-6.4
	c-0.1,1.8,0.9,2.9,1.5,4.2c6.4,12.8,13,25.5,17.9,39c1.8,4.8,3.8,9.5,4.4,14.7c0.4,1.6,0.7,3.2,1.1,4.8c1.5,4,1.3,8.6,4.2,12
	c0,0,0,0,0,0c0.6,2.1-1.6,3.3-1.5,5.5c-1.4-1.4-1.2-3.6-3-4.2c-5.3-14.7-10.1-29.5-16.6-43.6c-8.5-18.5-16.8-37.2-29.4-53.5
	c-1.7-2.2-3.3-4.6-3.9-7.4c-0.4-2.5-0.6-5,0.6-7.6C904.5,668.6,904.1,670.9,906.3,671.4z" fill="#4B0E01"></path>
<path d="M252.9,821.3c1,0.6,2,1.3,3,1.9c2,2,1.7,1.9,0.8,5.7c-1.5,6.1-2.9,12.2-3.6,18.4c-1.8,15.2-3.6,30.5-3,45.9
	c0.3,7.9,0.4,15.8,1.7,23.7c0.3,2,0.8,4.3-0.6,6.3c-4.9-4.5-9.2-9.6-13.3-14.9c0-0.3,0-0.6,0-0.8c-0.9-5.2,0.5-10.5-1-15.7
	c-0.2-3.8-0.9-7.7,0.5-11.5c0.4-3-0.4-6,0.6-9c1.9-15.8,3.9-31.6,7.2-47.3c1-4.8,2.6-5.4,6.3-2.9
	C251.9,821.3,252.4,821.2,252.9,821.3z" fill="#FBEDEE"></path>
<path d="M1039,417c-13.8,5.9-27,6.1-39.4-3.5c-2.3-1.8-4-4-5.6-6.3c-28.4-42.2-56.8-84.4-85.1-126.6
	c-0.7-1.1-1.2-2.3-1.7-3.5c0.4-4,0.9-8,1.4-12.4c2.1,3.8-1.7,8.5,2.8,11.3c14.3,21,28.5,42.1,42.7,63.1
	c14.4,21.3,28.8,42.7,43.2,64.1c7.5,11.1,18.5,15.2,32.2,12.1c2.1-0.5,4.2-1,6.3-1.5C1037.7,413.9,1040.8,413,1039,417z" fill="#4B0F00"></path>
<path d="M466.6,664.7c-3.6-8.9-6.6-18.1-10.8-26.8c-23.2-48.6-61.8-79.9-111.1-99.1c-8.8-3.4-17.9-6.2-26.8-9.2
	c-0.7-1.8-2.4-2.1-5-2.1c3.7-1.8,6.7,1.4,9.2-1c13.6,2.7,26.3,8.3,38.8,13.9c14,6.2,27,14.2,39.5,23.1
	c30.9,23.2,53.2,52.9,66.7,89.2c0.2,0.6,0.4,1.3,0.5,1.9c-2.1,1-1.9,2.5-1.4,4.5C466.8,660.7,466.5,662.8,466.6,664.7z" fill="#4B0E01"></path>
<path d="M1035,514.7c-11.5,8.1-20.7,18-25.4,31.7c-5.9,17.3-4.2,33.9,4.7,49.9c1.7,3,3.7,4.6,7.2,5.2
	c16.3,3,31.6,8.7,45.1,18.8c1.6,1.2,2.9,2.7,4.4,4c0.4,2.3,2.6,2,4.1,2.6c-2.2,3.3-4.8,1.3-7.3,0.7c-16.6-13.6-36.1-19.8-56.8-23
	c-1.3-1.6-3-2-5-2c-0.5-0.7-1.5-0.3-2-1c2.3-1.2,4.5-2.2,6.7,0.4c1.1,1.3,2.9,0.4,5,0.4c-1.6-2.7-3.9-3.5-5.9-4.8
	c-2.4-0.2-3.2-2.2-4-4c-12.9-28-3.9-59.5,17.1-77.1c2.1-1.7,4.5-2.8,6.6-4.4c1-0.6,2-1.2,3.2-1.4c1.1-0.3,2.2-1.1,3.3,0
	c0.9,1.3,2.2-0.7,3.1,0.5C1038.1,512.7,1035.5,512.5,1035,514.7z" fill="#4B0F01"></path>
<path d="M261,380.8c-7.3,8.7-16.2,15.7-24.4,23.5c-16,15.2-32.4,30-48.6,45.1c-13.8,12.8-27.5,25.5-41.3,38.3
	c-1.3,1.2-3,2-4.5,3c-0.8,0.1-1.6,0.1-2.4,0.3c-1.1,0.3-2.4,1-2.8-0.5c-0.4-1.3,0.9-1.5,1.8-1.7c1.7-0.5,2.8-1.5,3.4-3.2
	c0.4-3.8,3.5-5.5,5.9-7.5c7.1-6,13.6-12.6,20.4-18.9c6.8-6.3,13.8-12.3,20.4-18.9c6.2-4.5,11.3-10.3,16.9-15.4
	c12.7-11.6,25.6-23.2,37.7-35.5c3.5-2.8,6.9-5.7,10-8.9c1.2-1.2,2.3-3,4.5-2.5C261,376.7,260.3,379.4,261,380.8z" fill="#4C0F01"></path>
<path d="M1048.1,586.3c6.2-11.6,7.7-23.1,0.4-35.4c8.5,0,16,0.1,23.6,0c2.3,0,2,1.2,1.6,2.5
	c-3.6,10.3-3.5,20.5,0.2,30.7c0.7,1.9-0.2,2.2-1.9,2.2C1064.2,586.3,1056.5,586.3,1048.1,586.3z" fill="#FDFDFD"></path>
<path d="M1024.1,516.7c-15.4,14-23.5,31.4-22.8,52.3c0.4,10.1,2.6,20,8.6,28.6c-2.5,3-5.5,2.6-7.8-1.2
	c-6.9-11.5-9.4-24.2-7.7-37.4c2.4-18.7,11.6-33.3,27.7-43.4C1023.2,514.9,1024.1,514.9,1024.1,516.7z" fill="#C77900"></path>
<path d="M202,338.8c11.2,9.7,21,20.7,28.6,33.4c0.4,0.7,0.8,1.5,1.1,2.2c1.9,4.7,1.6,5.2-3.6,5.3
	c-1.2,0.8-2.3,0.2-3.2-0.4c-11.6-7.6-21.1-17.4-29.5-28.3c-0.3-0.4-0.3-0.9-0.4-1.4C196.9,345.7,199.2,342.1,202,338.8z" fill="#C77A00"></path>
<path d="M818.3,238.8c-0.2,0.7-0.1,2-1.3,1.2c-1.2-0.8-2.1-2.1-3.3-3.1c-4.1-3.4-8.2-5.3-14-3.8
	c-25.3,6.4-48.8,16.9-70.5,31.4c-8.3,5.5-16.3,11.3-23.8,17.8c-1,0.9-1.9,2.2-3.1,0.3c28.7-29.1,62.5-48.6,103.7-53.8
	c2.6-0.3,4.5,0.2,6.1,2.3C814,233.7,816.2,236.2,818.3,238.8z" fill="#FCEEEE"></path>
<path d="M885.2,449.7c0.7,0.3,1.5,0.8,2.1-0.1c7.2,23.1,7,46.2,1,69.5c-0.8,2.9-2,5.7-3,8.6
	c-2.4-0.3-1.8-1.7-1.1-3.1c0.3-1.7-0.6-3.6,1-5c2-10.6,2.1-21.2,1.1-31.9c-1.9-13.2-5.1-26-10.9-38
	C878.5,448.9,881.9,448.9,885.2,449.7z" fill="#FDBCBD"></path>
<path d="M183,369.9c-0.3,2.6,1.6,3.8,3.1,5.4c6.8,7.3,13.2,14.9,17.7,23.9c1.1,2.2,1.7,4.3,0.4,6.6
	c-2.1,1.8-4,0.7-5.9-0.5c-8.9-5.5-16.4-12.7-23-20.8C177.8,379.6,180.4,374.8,183,369.9z" fill="#C77A01"></path>
<path d="M343.2,401.9c10.5-13.1,21.8-25.3,34.9-35.9c7.2-5.8,14.5-11.6,22.6-16.2c1-0.7,1.8-0.4,2.4,0.6
	c0.1,2.7-2.2,3.7-3.8,4.9c-21.9,16.3-40.7,35.4-56.2,57.9c-0.2,0.3-0.5,0.5-0.7,0.7c-0.4,0.3-0.9,0.4-1.3,0.4c-1.7-0.3-3.1-1-4-2.5
	C339.1,408.4,341.1,405.1,343.2,401.9z" fill="#FDCF9B"></path>
<path d="M257.9,377.7c-4.5,4.1-9.1,8.1-13.6,12.2c-1.8,0.2-1.7-0.7-1-1.8c0.5-0.8,1.1-1.5,1.7-2.2
	c0.1-0.2,0.1-0.3,0.2-0.4c14.1-12,10.2-26.2,3.9-39.9c-6.3-13.8-17.8-23-30.4-30.8c1-2.4,2.2-3.5,4.8-1.6c16,11.8,28.7,26,35.1,45.2
	C260.8,364.9,261.1,371.4,257.9,377.7z" fill="#FCEDC7"></path>
<path d="M210.2,621.7c-0.1,1.2-0.2,2.4-0.3,3.7c-0.3,0-0.6,0-0.8,0c0-1.7,0-3.4,0-5.1c0.5-23.8-0.9-47.5-1.3-71.3
	c-0.3-13.4,0-26.8-0.5-40.2c2.7,7.3,2.4,15,2.6,22.3c0.5,18.6,1,37.2,1.1,55.8c0.1,17.1,1.3,34.2,1.4,51.3c0,6.4,0.8,12.9,0.7,19.3
	c0,1.8,0.9,4.9-1.8,4.9c-2.3,0-1.1-2.9-1.1-4.5C210,645.8,209.5,633.7,210.2,621.7z" fill="#4B0F01"></path>
<path d="M861.5,571.6c-4.4-0.1-8.7,1.8-13.5,0.6c15.1-14.5,27.2-30.9,34.6-50.7c1.1,0.9,0.3,2.1,0.6,3.1
	c1.7,4.7-0.9,8.5-2.5,12.5c-1.2,3.5-2.6,6.9-4,10.3c-1.8,3.4-3.9,6.8-5.4,10.4C868.6,562.8,865.4,567.5,861.5,571.6z" fill="#FE6F71"></path>
<path d="M324.9,449.7c-5.9,16.7-7.2,33.9-5.4,51.4c0.8,7.4,2.2,14.7,4.3,21.8c0.6,1.8,0.4,2.9-1.8,2.8
	c-2-0.5-2.2-2.3-2.7-3.9c-6.8-24.4-7-48.8,0.5-73.1c1.1,0.2,2.2,0,3.3,0.1C323.8,448.9,324.4,449.1,324.9,449.7z" fill="#FCB6B7"></path>
<path d="M421.8,232.7c-1.8,2-3.9,1.1-6,0.7c-8.1-1.4-15-0.8-21.5,6.1c-14.3,15.2-26.2,31.8-35.3,50.6
	c-2.1,4.3-4.1,8.6-6,13c-0.3,0.8-0.9,3.8-2.3,0.5c8.1-21.9,20.4-41.3,34.6-59.7c3.1-3.9,6.6-7.5,9.5-11.5c2.4-3.2,5-4.3,9-3.4
	C409.8,230.3,416,230.6,421.8,232.7z" fill="#FBECED"></path>
<path d="M993,869.3c-5.3,8.8-11.9,16.7-18.9,26c-0.4-11.6-0.7-21.7-1-31.9C980.2,863.9,987,865.4,993,869.3z" fill="#FDB23C"></path>
<path d="M1062.8,693.3c-10.5,6.9-21.7,12.4-34.1,15.2c-5-0.3-8.4-2.9-10.8-7.1c12.8-1.6,25.6-3.6,37.4-9.1
	c4.6-2.1,9.1-4.6,13.6-7C1069.3,689.9,1064.7,690.6,1062.8,693.3z" fill="#F6DBDC"></path>
<path d="M348,364.8c-1.2,8.8-2.5,17.7-3.6,26.5c-0.3,2.1-2,3.4-2.6,5.3c-2.2,2.4-3,1.5-3.3-1.3
	c-1.7-12.7-2.4-25.4-1.1-38.2c0.5-5.3,0.7-10.6,2.4-15.7c0.6,6.8-1.7,13.5-0.9,20.3c0.5,3.2,0.5,6.4-0.3,9.6c-0.1,0.6,1,0,0.4,0
	c-0.4,0-0.5-0.1-0.3-0.4C341,367.9,343.7,365,348,364.8z" fill="#F9DDDE"></path>
<path d="M189.2,441c-13.8,12.9-27.7,25.9-41.5,38.8c-1.9,1.8-3.8,3.7-5.7,5.6c-1.3,0.7-2.6,1.3-4.3,2.2
	c-0.2-2.3,0.3-4.2,1.3-6c9.7-6.4,17.3-15.2,26.1-22.7c7.4-6.3,14.7-12.8,22-19.2C188.6,439,189.3,439.3,189.2,441z" fill="#FBEDC7"></path>
<path d="M195.7,851.5c12.5,2.9,24.3,19.5,26,36.4C211.7,876.3,204.4,863.8,195.7,851.5z" fill="#FBB03B"></path>
<path d="M977.9,349c1.4-7.1,7.4-10.6,12.1-15.1c1.3-1.2,3-2.1,3.2-4.1c2.6,4,5.2,7.9,7.8,11.9
	c-5.4,5.9-12.6,7.9-20.1,9.2C979.7,351.1,978.2,350.7,977.9,349z" fill="#C87A02"></path>
<path d="M162.9,411.7c5.4,5.1,8.8,11.4,12.4,17.7c1,1.8,0.8,3.5-0.3,5.1c-1.5,1.6-3.1,0.9-4.6,0.2
	c-5.1-2.4-9.9-5.4-13.2-10.2C159,420.2,160.4,415.7,162.9,411.7z" fill="#C77A01"></path>
<path d="M322.9,449.7c-1.1-0.1-2.6,1.2-3-1c3.8-13.2,9.5-25.6,17.2-37c1.5,0.3,2.8,0.7,3.8,2
	c1.5,2.3-0.2,4.1-1.2,5.9c-4.7,8.2-9.2,16.5-12.1,25.5C326.8,447.6,325.2,449,322.9,449.7z" fill="#F9EBEC"></path>
<path d="M1040,588.9c3.3-14,2.9-27.8-1.8-41.5c-0.2-0.5,0.3-1.2,0.4-1.8C1051.5,560.3,1051.9,571.3,1040,588.9z" fill="#FBD599"></path>
<path d="M1002.9,384.7c-1.3-2-0.6-3.6,0.6-5.4c3.5-4.9,8.3-8.5,12.5-12.6c2.2,3.9,4.4,7.8,6.6,11.7
	c-4.6,4.2-10.3,6-16.2,7.3C1005.2,386.1,1003.9,385.8,1002.9,384.7z" fill="#C77A02"></path>
<path d="M957,314.8c-1.3-2-0.5-3.6,0.7-5.4c3.1-4.6,7.6-7.7,11.4-11.5c2.9,3.1,5.7,6.4,7.9,10
	C972.5,313.3,961.9,316.9,957,314.8z" fill="#C87A02"></path>
<path d="M195,349.6c8,9,15.9,18.1,25.6,25.5c2.4,1.8,4.7,3.6,7.5,4.7c0.8,1.1,2,1.1,3.1,1c2.4-0.2,2.9,1.2,2.7,3.1
	c-0.3,2.5-2.3,2.3-3.8,1.7c-4.2-1.6-7.7-4.5-11.2-7.3c-9.6-7.8-17.6-17.1-25.2-26.7C194.2,350.9,194.6,350.3,195,349.6z" fill="#FDEBC2"></path>
<path d="M175.3,384.5c5.9,5.3,11.6,10.7,17.7,15.7c3.2,2.6,6.4,5.8,11.2,5.6c2.5,0.6,3.2,2.4,2.3,4.5
	c-0.9,2.1-2.7,1.4-4.2,0.6c-10.9-6.4-20.5-14.2-27.6-24.9C174.9,385.5,175.1,385,175.3,384.5z" fill="#FDEAC1"></path>
<path d="M934.9,283.2c0.9-6,6.3-8.9,9.4-13.4c3,2.7,5.6,5.7,8,8.9c-3.9,5.1-9.5,6-15.3,6.2
	C936,284.9,935.1,284.3,934.9,283.2z" fill="#C87A03"></path>
<path d="M993,869.3c-6.6-2-13.4-3.2-19.9-5.8c-0.7-2.4,0.9-2.8,2.7-2.9c6.3-0.1,12.7,0.2,18.4,2.7
	C999.3,865.5,993.5,867.2,993,869.3z" fill="#F8D298"></path>
<path d="M977.9,349c2.7,1.7,5.4,0.5,8-0.3c5.3-1.7,10.2-4.5,15.1-7c0.5,0.7,1,1.4,1.5,2.1
	c-6.4,5.1-13.8,8.1-21.4,10.7c-1.8,0.6-4.3,1.2-5.3-1C974.9,351.7,976.2,350.1,977.9,349z" fill="#FCEAC1"></path>
<path d="M957,314.8c7.7,0.7,13.5-4,20-6.9c0.7,0.9,1.4,1.8,2.1,2.8c-5.7,2.4-10.8,6.2-16.8,8.1
	c-1.6,0.5-3.2,0.8-4.7,1.2c-1.8,0.5-3.6,0.5-3.9-1.6C953.2,316.1,954.4,314.6,957,314.8z" fill="#FCE9BF"></path>
<path d="M1002.9,384.7c5.2,0.7,9.4-2,13.9-3.9c1.9-0.8,3.6-2.3,5.9-2.3c0.2,0.5,0.4,1,0.6,1.5
	c-5.6,5.5-12.7,8-20.1,9.8c-1.6,0.4-3.7,0.4-3.8-2C999.3,385.8,1000.6,384.5,1002.9,384.7z" fill="#FCEAC1"></path>
<path d="M568.4,296c-0.3,1-0.6,1.9-0.8,2.9c0.4,5.1,1.6,10.2-0.6,15.2c-2.8-2.3-1.7-5.5-1.8-8.3
	c-0.1-3.2-1.3-4.5-4.6-3.9c-5.7,1-11.5,0.4-17.2,0.5c-1.9-0.1-3.8-0.2-5.7,0.5c-1.4,0.3-2.7,0.4-4.1,0.4c-1.9-0.2-4,0.3-5.1-2
	c0.6-1.4,1.8-0.7,2.8-1c1.7-0.6,3.5-0.2,5.3-0.7c0.5-0.1,1-0.2,1.5-0.2c1.9-0.3,3.9,0.6,5.7-0.6l0,0c6.3-0.8,12.7-0.9,19-2.1
	C564.4,295.9,566.4,295.7,568.4,296z" fill="#F4CD90"></path>
<path d="M157.3,424.5c3.3,2.4,6.6,5,10.1,7.2c2.3,1.5,4.6,3.4,7.7,2.8c2.7,0.9,2.6,3,1.6,4.8c-1.1,2-3,0.9-4.3,0
	c-5.9-3.7-12.4-6.7-15.6-13.4C156.9,425.5,157.1,425,157.3,424.5z" fill="#FDEAC0"></path>
<path d="M934.9,283.2c4.7,2.4,8.5-0.7,12.6-2c1.7-0.6,3.2-1.6,4.8-2.4c0.7,0.7,1.5,1.4,2.2,2.1
	c-4.7,4.1-10.5,6-16.2,7.8c-1.7,0.5-3.9,1.2-5.1-0.4C931.7,286.2,933.6,284.6,934.9,283.2z" fill="#FDEAC0"></path>
<path d="M1076.7,595.4c-8.3-0.2-16.5,0.3-24.7,1.2c-0.6,0.3-1.2,0.6-1.7,0c-0.7-0.6-0.3-1.1,0.3-1.4
	c1.7-0.8,3.7-0.8,5.3-1.9c5.6-2.2,11.5-2.5,17.4-1.9C1075.6,591.7,1077.7,592.3,1076.7,595.4z" fill="#F8D191"></path>
<path d="M923.3,249.3c-3.7,5.6-7,11.5-12.3,15.8c1.1-6.4,4.9-11.4,8.6-16.4C921.3,246.3,922.2,248.2,923.3,249.3z" fill="#F6E4BB"></path>
<path d="M1068.7,511.5c-4.6-0.5-9-2.2-13.7-2c-1.1,0.1-1.8-0.6-2.2-1.6c3.4-0.5,6.8-0.9,10.1-1.5
	C1067.1,505.6,1068.9,507.4,1068.7,511.5z" fill="#F8D194"></path>
<path d="M970.5,861.1c2.7,6.3,0.4,12.6,0.5,19c0.1,6.3,0,12.5-0.5,18.8C970.5,886.3,970.5,873.7,970.5,861.1z" fill="#4C0E02"></path>
<path d="M205,667.4c8.9-1.6,17.7-1.6,26.6,0c1.7,0.3,3.2,0.6,4.3,2.1c-10.2-2.3-20.5-3.3-30.9-0.8
	C205.1,668.2,205,667.8,205,667.4z" fill="#561C15"></path>
<path d="M203.1,658.4c2,0,4,0.1,6,0.1c0.6,3.1-0.1,5.4-3.7,5.2C201.6,663.4,203.4,660.3,203.1,658.4z" fill="#D42C07"></path>
<path d="M873,358.1c0,9.1,0,18.2,0,27.3c-0.2,0-0.3,0-0.5,0c0-9.2,0-18.3,0-27.5C872.7,358,872.9,358.1,873,358.1z" fill="#480A03"></path>
<path d="M880.1,537.5c0.4-4.5,3.2-8.3,3.1-12.9c0.3,0,0.6-0.1,0.9-0.1c0.1,1.1-0.1,2.4,1.1,3.1c0,4.1-2.4,7.4-4,11
	C880.3,538.8,879.8,538.6,880.1,537.5z" fill="#F5A7A8"></path>
<path d="M235.9,906.1c-2.1-4.2-0.6-8.7-0.9-13.1c-0.3-4.5-0.1-8.9,0-13.4c0-0.1,0.2-0.2,0.3-0.3
	c0.2,0.3,0.5,0.6,0.7,0.9C237,888.8,238.8,897.5,235.9,906.1z" fill="#420300"></path>
<path d="M237.9,880c0.1,4.1,0.1,8.2,0.2,12.2c0.8,5.2,0.2,10.4,0.3,15.7c-0.1,0.2-0.3,0.3-0.4,0.2
	c-0.3-0.3-0.7-0.7-1-1c-0.6-9-0.9-17.9,0.2-26.9l0,0C237.2,879.8,237.5,879.7,237.9,880z" fill="#DBC4C2"></path>
<path d="M237.1,880.2c-0.1,9-0.1,17.9-0.2,26.9c-0.3-0.3-0.7-0.7-1-1c0-8.6,0-17.3,0.1-25.9
	C236.3,880.2,236.7,880.2,237.1,880.2z" fill="#612A1B"></path>
<path d="M1004,601.5c0.8,0,1.6,0.2,2,1c-8.2,0-16.5,0-24.7,0c0-0.3,0-0.7,0-1C988.8,601.5,996.4,601.5,1004,601.5z" fill="#450500"></path>
<path d="M240.3,666.3c-6.1-1-12.2-1.9-18.3-2.9c0-0.3,0-0.6,0-1C228.4,662.5,234.5,663.6,240.3,666.3z" fill="#561C15"></path>
<path d="M880.1,537.5c0.4,0.4,0.8,0.7,1.1,1.1c-0.7,3.3-2.2,6.2-4,9c-0.4,0.3-0.7,0.3-1.1,0
	C876.7,543.9,878,540.6,880.1,537.5z" fill="#EE9595"></path>
<path d="M562.5,296.7c-6.2,2-12.5,2.4-19,2.1C549.8,297.5,556.1,296.7,562.5,296.7z" fill="#EFC587"></path>
<path d="M1075.5,564.7c0.2,3.9,2.3,7.5,1.2,11.5C1074.6,572.8,1074.5,572.7,1075.5,564.7z" fill="#581A00"></path>
<path d="M1055.9,593.3c-1,1.6-2.9,1.4-4.3,2.2c-1.7,1-0.1,0.9,0.4,1.1c-2,1.3-4.1,1.4-6.2,0.1
	C1049,595,1052.3,593.6,1055.9,593.3z" fill="#EDC386"></path>
<path d="M876.1,547.6c0.4,0,0.7,0,1.1,0c-1.5,3.7-3.3,7.2-5.9,10.2C871.6,553.8,873.9,550.7,876.1,547.6z" fill="#E87F7E"></path>
<path d="M144.1,463.5c2.7,0.9,2.6,3,1.4,4.6c-1.1,1.5-2.2,0.3-2.6-1.2C143.3,465.8,142.7,464.3,144.1,463.5z" fill="#FAEBCA"></path>
<path d="M1024.1,516.7c-0.4-0.9-1.3-1-2.1-1.1c1.9-2,4.7-2.7,7-4.1c1-0.3,1.3,0.2,1.1,1.1
	C1028,514,1026,515.3,1024.1,516.7z" fill="#A35B00"></path>
<path d="M1058,718.4c0.1-3.9,0.8-7.7,2.9-11.1C1060.8,711.3,1059.6,714.9,1058,718.4z" fill="#E2D4D2"></path>
<path d="M960.4,780.6c3.5,0,7.1,0,10.6,0c0,0.2,0,0.3,0,0.5c-3.6,0-7.2,0-10.7,0
	C960.3,780.9,960.3,780.7,960.4,780.6z" fill="#440400"></path>
<path d="M237.9,880c-0.3,0.1-0.5,0.2-0.8,0.3c0-3.1-1-6.2,0.9-9.1C237.9,874.1,237.9,877.1,237.9,880z" fill="#612A1B"></path>
<path d="M1055,742.4c-0.4-0.4-0.8-0.8-1.3-1.2c0.4-1.5,0.7-3.1,2.8-3.8C1056.4,739.3,1056.2,741,1055,742.4z" fill="#CEBDB9"></path>
<path d="M1036,510.6c-1,0.3-2,0.6-3,1c-0.5-0.7-0.5-1.3,0-1.9C1034.6,508,1035.6,508.5,1036,510.6z" fill="#5C1D00"></path>
<path d="M1033,509.6c0,0.6,0,1.3,0,1.9c-1,0.4-2,0.7-2.9,1.1c-0.4-0.4-0.7-0.7-1.1-1.1
	C1030,510.3,1031.4,509.7,1033,509.6z" fill="#783500"></path>
<path d="M1057.5,732.7c0.6,1.7,0.7,3.1-0.6,3.3c-1.5,0.2-0.5-1-0.3-1.6C1056.7,734,1057,733.6,1057.5,732.7z" fill="#8D665C"></path>
<path d="M543.6,298.8c-1.8,1.9-4.1,0.8-6.2,0.9c0-0.4,0.3-0.7,0.7-0.7l0.3,0.1c0,0,0.3-0.2,0.3-0.2
	C540.3,298.9,541.9,298.8,543.6,298.8z" fill="#EFC587"></path>
<path d="M653.2,783.1c6.4-8.4,11.5-17.5,13.6-28c0.6-2.7,2.4-2.7,4.5-2.9c29.7-3.2,58.8-9.5,87.2-18.5
	c30.8-9.8,60.6-22.1,88.3-39.1c0.4-0.3,0.9-0.3,1.4-0.5c-7.2,11.3-17.9,18.9-28.5,26.6c-23.4,17-49.6,28.5-76.8,38
	c-27.4,9.5-55.4,16.7-84,21.8C656.5,780.9,655.2,782.7,653.2,783.1z" fill="#F7DCDD"></path>
<path d="M482.6,767.3c0.1-7.1,0.2-14.3,0.2-21.4c0-2.8,1.3-3,3.4-2.5c17.2,4,34.5,7.1,52.1,8.8
	c3.5,0.3,3.1,3,3.6,5.1c6.3,22.5,20.6,37.5,42.6,45.2c11.4,4,23.2,3.6,34.9,1.6c-3.7,2.9-8.1,2.2-12.3,2.3c-3.1,0.1-6.3,0-9.4,0.7
	c4.2,0,8.3,0,12.5,0c-5.6,3.7-11.9,5.1-18.1,6c-22.1,3.2-43.2-0.9-63.2-10.3c-8-3.7-14-9.7-13.3-19.7c0.5-6.6,4.7-11.1,9.1-15.5
	c1.2-1.2,3.8-2.1,2.8-4.1c-0.8-1.6-3.2-1.1-5.1-1.3c-11.1-1.4-22.3-2.6-33.3-4.4c-4.3-0.7-5.9-0.2-5.6,4.3
	C483.7,763.8,484.3,765.8,482.6,767.3z" fill="#F7DCDD"></path>
<path d="M811.8,946.8c-18.3,0.9-33.9-5-45.3-19.5c-12.9-16.5-15.2-35-6.4-53.9c8.7-18.8,24.2-28.7,44.9-29.9
	c8.3-0.5,16.6-0.5,24.8,1.6c25.8,6.6,42,31.1,38.3,58.1c-3.4,24.9-26.2,44.1-51.7,43.7C814.7,946.7,813.2,946.8,811.8,946.8z" fill="#4B0F00"></path>
<path d="M381.8,807.3c-18-5.2-36-10.5-54.1-15.7c-2-0.6-3.1-1.4-2.9-3.8c2.4-31.7-10.7-57.9-29.6-81.8
	c-8.4-10.6-18.7-19.3-29.4-27.5c9.8,3.4,18.6,8.6,27.4,13.9c17.8,10.7,33.5,23.9,47.3,39.3c13.7,15.3,24.4,32.6,32.2,51.7
	c2.7,6.6,5,13.3,6.9,20.2C380,805.1,381,806.1,381.8,807.3z" fill="#F7C39C"></path>
<path d="M566.6,313.9c2-4.9,0.7-10,1-15c2.5,4.1-0.1,8.8,1.6,13.2c0.2-0.7,0.4-1.2,0.4-1.7
	c0.5-10.6,0.5-10.2,10.9-10.6c18.6-0.8,37.1,1.3,55.6,2.5c9.1,0.5,18.2,2.9,27.4,4c10.2,1.2,20.1,3.8,30,6.1
	c8,1.8,16.1,4.2,24.1,6.7c10.3,3.3,20.4,7.5,30.5,11.3c10.7,4,20.8,9.4,30.6,15.3c11.6,7,23.1,14.2,33.6,22.7
	c9.8,7.9,18.4,17.2,27.1,26.2c8.9,9.2,15.6,20.1,22.5,30.8c4,6.3,7.6,12.8,10.7,19.6c1.4,3,2.9,3.9,5.9,3.9c2.2,0,4.7-0.9,6.7,0.9
	c-3.3,0-6.6,0-10,0c-25.8-1.3-50.6,2.5-73.3,15.8c-3.9,2.3-7.5,4.9-10.6,8.2c-0.5,1-1.4,1.5-2.4,1.9c-7.7,1.3-15.5,1.9-23.1,3.7
	c-5.9,1.4-11.5,3.3-16.3,7.1c-1.8,1.4-3.4,3.2-2,5.5c1.3,2.1,3.6,1.6,5.4,0.8c7.1-3.1,14.1-6.9,21.6-9.2c2.2-0.7,4.5-2.5,7-0.7
	c-2.9,6.4-7.6,11.8-9.4,18.8c-0.3,1.2-1.5,1-2.4,1.3c-3.9,1.6-7.8-0.5-11.7,0.1c-3,0.4-6.7-0.4-7.5,3.9c-0.4,2.4,3.4,4,8.1,3.8
	c4-0.2,8.3-1.3,11.6,2.1c-0.2,17.9,9.4,30.3,22.6,40.6c12.8,10,27.6,15.7,43.4,19.2c2.8,1.7,6,1.5,9.2,2.3
	c-12.3,11-25.8,20.2-40.5,27.6c-26.1,13.2-54,20.9-82.7,25.7c-17.9,3-35.9,5.1-54.2,5.6c-11.4,0.3-22.9,1.1-34.3,0.6
	c-20.5-0.9-40.9-2.3-61.2-5.5c-18.8-3-37.4-6.9-55.6-12.3c-32.5-9.7-63-23.5-89.6-45c-5.6-4.6-11.4-9.1-15.7-15.1
	c-0.1-2.6,2.1-3.6,3.8-4.8c8.4-6.3,14.8-14.1,18.9-23.8c1.3-3.1,2.1-6.2,2.4-9.6c0.4-3.4,1.1-6.6,5.3-7.4c3.8-0.8,7.6-0.2,11.4-0.5
	c2.3-0.1,4.6-0.7,4.7-3.4c0.1-2.7-2.2-3.4-4.4-3.9c-3.5-0.7-7-0.3-10.4,0.2c-1.8,0.2-3.6,0.8-5.4,0.3c-1.2-0.4-2.1-1.2-2.5-2.2
	c-2.5-5.6-5.1-11.1-8.7-16.1c-0.6-0.8-0.6-1.9,0-2.8c2.2-1.1,4.2-0.1,6.3,0.5c6.6,1.9,12.8,4.6,18.9,7.8c1.6,0.8,3.2,1.8,5,2.2
	c1.4,0.3,2.7,0.3,3.7-0.9c1.1-1.4,0.6-2.9-0.3-4.1c-1.9-2.7-4.5-4.3-7.5-5.6c-9.8-4.2-20.2-5.2-30.6-6.7c-1.4-0.5-2.9-0.7-4.4-1.2
	c-4.9-2.7-9-6.7-14-9.4c-7.3-3.9-14.9-7.2-22.9-9.5c-1.9-0.5-3.9-0.8-5.1-2.8c-1.2-1.6-1.1-3.4-0.8-5.2c0.7-5.4,1.5-10.8,3-16.1
	c0.6-2,0.9-4.3,3.7-4.6c0.6,0,1.1,0,1.7,0.1c4.8,0.9,9.7,1.8,14.6,1.3c13.9,1.3,27.7,0.8,41.5-1.3c17.3-2.6,34-7.3,50.2-13.7
	c2.2-0.9,4.2-0.2,6.3,0.6c14.9,5.7,26,15.7,33.5,29.7c0.5,0.9,0.9,1.8,1.4,2.7c5.1,9.2,12,10.3,19.7,3.1c1.2-1.1,1.8-2.4,2-4
	c0.2-1.1,0.6-2.1,1.1-3.1c0.9-2,1-4.1,0-6.2c-1-2-2.2-3.9-3-6c-1.3-3.2-3.6-5.3-6.8-6.7c-6.7-4.8-14-8.6-21.1-12.8
	c-3.1-2.4-6.9-2.8-10.4-4.1c-0.5-0.2-0.8-0.5-1.2-0.9c-1.3-3.5,1.5-4.8,3.6-6.2c14.9-10.2,26.7-23.3,35.7-38.9
	c7.1-12.2,11.2-25.5,13.8-39.2C564.8,318.8,564.7,316,566.6,313.9z" fill="#F7F7F7"></path>
<path d="M441.4,511.8c-1.2,0.9-2.8,1.1-3,3.4c-1.4,17.7-11.6,29.9-25.4,39.8c-0.5,0.4-0.9,1-1.4,1.4
	c-0.6,0.1-1.2,0.3-1.8,0.4c0-3.3-2.7-4.8-4.4-7c-4.6-6.1-9.5-12.1-12.7-19.1c0.1-1.2,0.9-1.9,1.7-2.7c1-0.8,2.1-1.5,3.2-2.1
	c1.3-0.7,2.7-1.3,3.9-2.3c0.5-0.5,1.1-1,1.6-1.4c10.6-5.2,21.4-9.8,33.2-11.2C438.1,510.8,440,510,441.4,511.8z" fill="#FE7C7E"></path>
<path d="M612.2,676.1c-5.9,0-11.8,0-17.6,0c0-0.2,0-0.3,0-0.5c5.9,0,11.8,0,17.7,0
	C612.2,675.8,612.2,676,612.2,676.1z" fill="#FEE8EA"></path>
<path d="M862.3,668.5c-4,10.8-11.8,18.3-21.5,23.9c-33.4,19.4-69,33.1-106.3,43c-19.9,5.3-40.1,8.9-60.4,11.7
	c-4,0.6-6.5,0.1-5.8-4.9c0.6-4-0.7-7.9-0.9-11.8c1,2.5,2.4,3.4,5.5,3.1c22.8-2.1,45.2-6,67.5-11c29.9-6.7,58.9-15.8,86.3-29.9
	c10.9-5.6,21.2-12.3,31.2-19.5C859.7,671.8,860,669.2,862.3,668.5z" fill="#CC191D"></path>
<path d="M1005,669.3c-0.1,3.6-1.3,8.9-5.2,13.1c-4,4.3-8.9,4.3-13.1,0.2c-7.3-7.2-7.1-24.5,0.3-31.5
	c4.1-3.9,9.3-3.6,13,0.9C1003.6,656.4,1005.1,661.6,1005,669.3z" fill="#FE7C7E"></path>
<path d="M1017.9,701.4c3.7,2.2,6.6,5.6,10.8,7.1c-22.2,5.9-44.4,6.4-66.7,0.7c4-4.4,9.5-6.5,14.2-9.7
	c0.9-0.1,1.7-0.1,2.6-0.2c2.6-0.8,5.3-0.7,7.8-0.3c7.2,1.3,14.5,0.7,21.8,0.8c2.6,0,5.3-0.3,7.6,1.5
	C1016.7,701.4,1017.3,701.4,1017.9,701.4z" fill="#FE6F71"></path>
<path d="M1019.9,677.6c0.7-5.5,2.8-10.8,7.7-14.5c6.4-4.9,12-2.5,13.1,5.4c0.8,5.7-3.7,15-8.9,17.9
	c-2.5,1.4-5.1,2.7-7.9,0.9C1020.4,685.1,1020,681.7,1019.9,677.6z" fill="#FE7C7E"></path>
<path d="M967.3,679.2c0.2,3.7-1,6.7-4.2,8.4c-3.3,1.8-6.2,0.2-8.7-1.7c-5.3-4.1-8-9.7-8.1-16.4
	c-0.1-3.3,1.2-6.3,4.3-7.9c3.2-1.6,6.2-0.4,8.8,1.7C964.6,667.3,967.2,672.7,967.3,679.2z" fill="#FE7C7E"></path>
<path d="M1016.1,701.3c-3.9-1.2-7.8,0.1-11.7,0.1c-8.6,0.2-17.1-0.7-25.5-2.2C991.6,693.7,1004,693.8,1016.1,701.3z" fill="#FE7C7E"></path>
<path d="M781.5,482.8c-8.9,2.3-17.3,5.6-25.3,9.9c-3.3,1.8-7.5,4.6-10.1,0.2c-2.7-4.5,1.6-7.2,4.9-9.3
	c8.8-5.5,18.9-6.9,28.9-8.2c3.1-0.4,6.3-0.6,9.4-0.9c9.1-0.8,18.2-0.1,27.3-0.4c0.6,0,1.1,0,1.7,0.2c0.4,0.5,0.4,1,0,1.5
	c-2.3,0.8-4.7-0.4-6.9,0.7C801.2,478.2,791.1,479.5,781.5,482.8z" fill="#4E1102"></path>
<path d="M770.2,512.7c-4.1-1.1-8.2-0.8-12.4-0.6c-5.5,0.2-9.6-1.9-9.7-5c-0.1-3.3,3.5-5.5,9.1-5.7
	c4.2-0.2,8.3,0.7,12.3,1.5c14.1,4.6,26.8,12,38.6,20.7c0,1.7-0.8,1.8-2,1c-9.8-5.1-19.8-9.2-30.7-11.4
	C773.8,512.8,772.1,512.4,770.2,512.7z" fill="#4E1102"></path>
<path d="M818.2,474.7c-9.7,0-19.3-0.1-29-0.1c0.4-0.9,1.3-0.7,2.1-0.9c13.4,0.4,26.9-0.9,40.2,1.6
	c-4.3,1.9-8.9,1.3-13.3,1.3c-0.3-0.2-0.3-0.4-0.2-0.6c0.1-0.2,0.2-0.3,0.3-0.3l0,0c1.8-1.1,3.8,0,5.4-0.6
	C822,475,820.1,475.6,818.2,474.7z" fill="#BD5450"></path>
<path d="M886.1,487.6c2.1,8.1,1.1,16.3,0.5,24.4c-0.2,2.4,0.6,5.4-1.5,7.5C886.5,509,886.1,498.3,886.1,487.6z" fill="#F5A7A8"></path>
<path d="M814.3,527.6c1.4,0.8,2.8,1.6,3.9,3.5c-2.4,0.4-3.8-0.9-5-2.2C813.2,528.1,813.8,527.9,814.3,527.6z" fill="#B8514C"></path>
<path d="M806.3,524.6c0.8-0.1,1.6-0.1,2-1c1,0.7,2,1.3,3,2c0.1,1,0,1.7-1.3,1.2C808.6,526.3,807.2,525.8,806.3,524.6
	z" fill="#853228"></path>
<path d="M818.3,475.6c0,0.3,0,0.6-0.1,0.9c-2.3,0-4.6,0.1-6.9,0.1C813.4,475,815.9,475.8,818.3,475.6z" fill="#89352B"></path>
<path d="M810,526.7c0.4-0.4,0.9-0.8,1.3-1.2c1,0.7,2,1.3,3,2c-0.4,0.4-0.8,0.8-1.2,1.2
	C812.1,528.1,811,527.4,810,526.7z" fill="#8B362C"></path>
<path d="M268,686.7c18.2,13.7,32.4,30.7,41.7,51.5c-16.2-1.4-35.8-13.8-40.6-34.8C267.8,697.9,267.8,692.4,268,686.7
	z" fill="#FE7C7E"></path>
<path d="M273.1,734.2c0.1,11-15,23.3-25.8,21c-5.2-1.1-7.6-5.6-6.3-11.6c1.9-8.8,13.8-18.2,22.7-18.1
	C269.6,725.6,273,728.8,273.1,734.2z" fill="#FE7C7E"></path>
<path d="M274.8,767.3c0.6-5.9,3.2-12,9.6-15.7c4.8-2.8,9.3-0.8,10.9,4.5c2.3,7.6-3.8,19.1-11.3,21.5
	C278.8,779.3,274.8,775.3,274.8,767.3z" fill="#FE7C7E"></path>
<path d="M236,716.6c-0.9-0.1-2.3,0-3.6-0.3c-3.1-0.8-6.1-1.9-7.1-5.5c-1-3.5,0.7-6.2,3.3-8.3
	c5.6-4.7,12-6.3,19.1-4.1c6.2,2,7.7,7.7,3.2,12.5C246.9,714.9,241.9,716.4,236,716.6z" fill="#FE7C7E"></path>
<path d="M612.5,790.2c-0.9-3.2,2.1-3.3,3.7-4.4c8.1-5.9,12.2-13.6,10.7-23.7c-1.5-10.2-9-17.9-18.8-19.6
	c-9.9-1.8-18.2,1.4-24,9.7c-5.5,7.9-5.7,16.4-1.5,25.1c-2.3,1.3-2.4,1.4-4.2-0.1c-10.5-8.7-18.4-19-20.9-32.9
	c-3.2-17.5,0.6-33.2,11.2-47.4c2.2-3,4.9-5.4,7.9-7.5c18.6-11.8,46.2-9.2,65.2,6.2c29.2,23.6,28.6,70.8-1.1,91.7
	C631.6,791.8,622.3,793.5,612.5,790.2z" fill="#FEB23C"></path>
<path d="M579.2,681.7c-5.9,3.4-10.6,5.9-14.7,9.2c-16.2,13-23.9,30.2-24.7,50.7c-0.2,6.1-0.2,6.1-6.2,5.2
	c-15.6-2.2-31.1-4.8-46.5-8.3c-3.3-0.7-4.4-1.8-4.5-5.1c-0.7-23.2-4.3-45.9-11.1-68.1c-0.3-1.1-1.3-2.2-0.4-3.3
	c1-1.1,2.2-0.2,3.2,0.2c22.6,7.4,45.8,12.5,69.3,15.9C555,679.7,566.4,680.4,579.2,681.7z" fill="#CC191D"></path>
<path d="M576.6,689.4c-7.9,8.9-14.8,18.3-17.3,30.3c-4.9,23,1.9,41.8,19.9,56.7c0.9,0.8,1.9,2.1,3.4,0.9
	c3.1,3.9,6.3,7.6,10.8,10.1c4.3,2.4,2.5,7.1,1.8,10.4c-0.7,3.3-4.1,1.4-6.3,0.8c-26.5-7.5-44.5-30.9-44.2-57.7
	C544.9,719.3,559,696.5,576.6,689.4z" fill="#C77900"></path>
<path d="M603.5,747.3c9.5,0,16.2,5.5,18.6,15.4c1.7,6.8-3.1,16.7-10.3,19.8c-3.7,1.5-4.7,3.6-4.3,7.1
	c0.2,2.3-0.1,4.7,0.1,7c0.2,2.7-0.8,3.9-3.7,3.8c-2.8,0-3.4-1.3-3.3-3.7c0.1-1.2-0.1-2.3,0-3.5c0.4-5.1-0.2-8.8-6.1-11.2
	c-7.2-3-11.2-13-9.4-19.7C587.7,752.5,594.2,747.3,603.5,747.3z" fill="#7F3D01"></path>
<path d="M612.5,790.2c9.5,0.6,18.9-0.4,28.1-2.8c-7.2,6.6-15.8,10.1-25.2,12c-2.5,0.5-3.3-0.2-3.1-2.7
	C612.5,794.5,612.5,792.4,612.5,790.2z" fill="#C57801"></path>
<path d="M426.7,482.6c4.2,6.4,7.7,13.2,10.8,20.2c0.2,1.4-0.9,1.6-1.8,1.9c-11.9,4.4-22.6,11-33.2,17.9
	c-0.7,0.6-1.5,1-2.2,1.5c-1,0.7-2.2,1.2-3.2,2c-1,0.7-2,1.5-3.1,2.2c-0.8,0.4-1.5,0.9-2.4,0.2c-7.3-11.6-10.7-24.7-13.9-37.8
	c-1.2-4.9-2.1-10-2-15.1c0.3-0.4,0.8-0.7,1.3-0.9c1.3-0.4,2.6-0.4,3.9-0.4c2,0,4-0.1,6,0.3c1.9,0.8,3.8,0.3,5.7,0.2
	c0.5,0,1,0.1,1.5,0.3c6.3,0.2,12.6,1.3,18.8,2.4c3.7,0.7,7.3,1.6,10.8,2.7C424.9,480.6,426.8,480.5,426.7,482.6z" fill="#FE7C7D"></path>
<path d="M382.9,427.6c-0.9,0.3-2.5,0.5-2.6,1c-1.9,8-5,15.8-3.6,24.3c-2.9,1.1-5.3-0.7-7.9-1.1
	c-14.5-2.8-29.2-3.8-43.9-2c-0.7,0-1.3,0-2,0c0.8-1.3,2.5-1.5,3-3.2c3.1-10.7,8.6-20.3,14.1-30c0.5-0.8,0.6-1.9,0.9-2.8
	c0.3,0,0.6,0,0.9,0c3.4-0.5,6,1.6,8.8,2.7c7.4,2.8,14.9,5.2,22.5,7.4C376.1,425.7,380.6,423.8,382.9,427.6z" fill="#F7DCDD"></path>
<path d="M368.8,451.7c2.6,0.4,5.3,0.7,7.9,1.1c9.1,3,18.4,5.8,26.8,10.6c5.1,2.9,9.9,6.1,14.1,10.2
	c-1.7,1.8-4,1.4-6.1,1.4c-9.9,0.2-19.8-0.3-29.7-0.4c-1.5,0-3,0.1-4.5-0.1c-0.6-0.1-1.1-0.4-1.5-0.9c-1-5.5-1.8-11.1-0.3-16.6
	c0.5-2,0-3.1-2.3-3.4C371.7,453.3,370,453,368.8,451.7z" fill="#FD7B7D"></path>
<path d="M391.7,528.6c0.7-0.3,1.4-0.7,2.1-1c0.4,0.3,1.1,0.5,1.2,1.2c-0.7,0.6-1.4,1.3-2.1,1.9
	c-0.9,0.1-1.8,1.4-2.5,0.2C390.1,530.4,391.2,529.3,391.7,528.6z" fill="#BC504B"></path>
<path d="M375.8,473.6c0.3,0,0.7,0.1,1,0.1c0.6,0.6,0.6,1.3,0,1.9c-0.3,0-0.7,0.1-1,0.1c-0.9-0.1-2.3,0.2-2.4-0.8
	C373.2,473.2,374.9,473.9,375.8,473.6z" fill="#E46463"></path>
<path d="M189.2,441c-0.4-0.9-1.1-1.3-2-1.3c10.4-9.5,20.6-19.2,31.2-28.5c7.8-7,15.1-14.5,22.6-21.7
	c1.3-1.3,2.7-2.4,4.1-3.6c0.6,1.5-2.6,2.3-0.8,4c-15.2,14.3-30.5,28.6-45.8,42.9C195.5,435.7,192.3,438.3,189.2,441z" fill="#F8E5BB"></path>
<path d="M278.4,821.4c2.1,0,4.2,0,6.4,0c0,0.2,0,0.3,0,0.5c-2.3,0-4.5,0-6.8,0C278.1,821.7,278.2,821.6,278.4,821.4z" fill="#FEEBED"></path>
<path d="M252.1,816.2c-2.6,0-4.8-0.5-6.1-3C248.2,813.8,250.3,814.7,252.1,816.2z" fill="#4D1000"></path>
<path d="M476.6,714.3c1.5,1.9,1.8,4.3,2,6.5c1,17.7,0.4,35.3,0,53c0,2-0.5,3.9-2,5.4c0.8-13.9,1.6-27.8,1.1-41.7
	C477.4,729.9,477,722.1,476.6,714.3z" fill="#4B0F00"></path>
<path d="M476.4,729.7c0,11.2,0,22.4,0,33.5c-0.2,0-0.3,0-0.5,0c0-11.2,0-22.5,0-33.7
	C476,729.6,476.2,729.6,476.4,729.7z" fill="#FEFEEC"></path>
<path d="M668.3,299c7.5,0.5,15.2,0.3,22.1,4C683,301.6,675.7,300.3,668.3,299z" fill="#4D1000"></path>
<path d="M382.8,813.3c23.6,6.9,47.1,13.8,70.7,20.7c5.9,1.7,11.8,3.5,17.7,5.1c3,0.8,4.2,2,3,5.3
	c-1.2,3.1-1.9,6.4-2.6,9.6c-0.7,3.5-2,4.6-5.7,3.1c-26.2-10.3-52.6-20.5-78.9-30.7c-0.8-0.3-1.4-0.8-2.2-1.2
	C382,821.6,380.9,817.7,382.8,813.3z" fill="#DA590E"></path>
<path d="M382.8,813.3c0.7,4,1.3,8,2,12c-13-4.9-26-9.8-39.1-14.7c-6.5-2.5-13-4.9-19.5-7.5c-1.9-0.8-4.9-0.7-3.7-4.5
	c1.2-3.6,3.3-2.4,5.5-1.7C346.3,802.3,364.5,807.8,382.8,813.3z" fill="#D92B07"></path>
<path d="M480.2,763.5c-0.8-1.5-0.7-2.9-0.1-4.4C480.9,760.6,480.8,761.9,480.2,763.5z" fill="#4B0F00"></path>
<path d="M348,364.8c-3.2,2.3-6.5,4.7-10.1,7.3c0.4-3.8-0.9-7.2,1-10.4c2.7-4,2.7-8.8,3.8-13.2
	c6.2-26.4,15.8-51.3,31-73.9c7.6-11.4,17.2-20.9,27.5-29.9c4.6-4,9.1-3.6,14.2-2.5c22.7,5,44.3,12.7,63.8,25.4
	c10.6,6.9,20.8,14.4,28.4,25c-5.8-4-11.8-7.7-17.4-11.9c-15.3-11.2-31.9-19.5-50.3-24.3c-10.1-2.6-20.3-4.3-30.7-5.5
	c-5.7-0.6-8.6,4.1-12,7.2c-8.1,7.2-14.1,16.3-19.4,25.7c-7.6,13.7-13.6,28.1-18,43.1c-0.2,0.6-0.1,1.3-0.1,2
	C355.2,340.7,351.6,352.7,348,364.8z" fill="#F7F7F7"></path>
<path d="M704.5,301.2c23.6-19.2,48.7-32.9,77.7-38.1c18.4-3.3,12.8-5.4,24.5,8.7c26.5,31.9,44.7,68,50.8,109.5
	c0.2,1.3,0.3,2.6,0.6,5.6C815.9,341.2,763.4,316.5,704.5,301.2z" fill="#FE6264"></path>
<path d="M706.4,292.9c-0.8,0.1-1.7,0.5-2.4,0.4c-1.1-0.2-2.6-0.4-3.1-1.2c-0.7-1.2,0.7-2.1,1.6-2.8
	c6.8-5.6,13.1-11.6,20.3-16.7c22.9-16.3,48-27.2,75.7-32.3c2.8-0.5,4.7,0,6.7,2c23.2,24.1,41.3,51.3,51.3,83.5
	c3.3,10.6,4.8,21.6,7.5,32.3c0.4,1.5,0.1,3.2,0.1,4.8c-3.5-0.3-4-3.6-6-5.2c-4.3-14.3-9.7-28.2-16-41.8
	c-7.5-19.9-17.4-38.4-31.6-54.4c-2.9-3.3-6.3-5.9-9.8-8.4c-3.6-2.6-7.6-2.1-11.5-1.6c-8,1-15.6,3.6-22.9,6.7
	c-8.1,3.4-16.2,6.8-23.6,11.8c-2.4,1.4-5.4,1.6-7.2,4.1l0,0c-2.4,1.3-5,2.1-7.1,3.9C721.1,283,713.8,287.9,706.4,292.9z" fill="#F7F7F7"></path>
<path d="M742.2,269.8c1.9-4,6.3-4.8,9.7-6.4c10.5-5.3,21.5-9.4,32.9-12.6c12.7-3.5,20.6,2.7,27.9,11.2
	c10.3,11.9,18.2,25.3,24.8,39.5c2.2,4.6,3.8,9.5,4.7,14.5c-8.2-14.4-16.5-28.8-26.9-41.8c-4.2-5.2-8.7-10-12.9-15.2
	c-2.3-2.8-4.9-3.4-8.3-3c-12.1,1.4-23.8,4.5-35.4,7.9c-2.8,0.8-5.6,1.7-8.3,2.8c-1.3,0.7-2.6,1.4-3.9,2.1
	C745.1,269.3,743.8,270.4,742.2,269.8z" fill="#FADFE0"></path>
<path d="M742.2,269.8c1.4-0.6,2.7-1.2,4.2-0.9c-3.7,1.7-7.3,3.4-11,5.1C736.2,270.2,739.9,271.1,742.2,269.8z" fill="#F5DEDF"></path>
<path d="M750.3,266.8c2.4-2.1,5.2-2.9,8.3-2.8C756,265.3,753.4,266.8,750.3,266.8z" fill="#F5DEDF"></path>
<path d="M728.4,278c1.6-2.6,4.2-3.6,7.1-3.9C733.4,275.9,731,277.1,728.4,278z" fill="#F5DEDF"></path>
<path d="M382.9,427.6c-3.2-1.6-7-0.9-10.2-2.8c0.4-0.5,1.1-1.1,1.7-0.9c5.9,1.5,6.9-2.5,8.7-6.7
	c7.5-18.3,18.1-34.6,31.3-49.4c20.5-23.1,45.4-40.2,71.9-55.5c1.7-1,3.9-1.1,5.4-2.5c8-3.4,16.8-4,25-6.8c1.8-0.8,3.7-1.5,5.8-1.5
	c3.7,1.1,7.5,1.1,11.2,0.5c1.3-0.1,2.7-0.1,4-0.2c1.6-0.9,3.5,0.2,5-0.8c6.6-0.4,13.2,0.5,19.7-0.9c3.1-0.7,4.6,0.5,4.3,4
	c-0.3,3.3-0.1,6.6-0.1,9.9c-4.2,36.6-21.2,65.8-51.5,86.9c-1.7,1.2-3.9,2.1-4,4.7c-1.1,1.4-2.5,0.9-3.6,0.5
	c-16.8-6-33.9-4.4-51.1-2.1c-7.4,1-14.5,3.4-21.6,5.5c-1.4,0.5-2.9,0.9-4.4,1.3c-1.2,0-2.2,0.6-3.2,1c0.7-0.2-0.2,0.7-0.4,0.1
	c-0.2-0.6-0.9-0.3-0.3-0.1c1.1,0.4,1.9-0.6,2.9-0.7c1.7-0.2,3.4-0.7,5.1-1.1c4.6-0.9,9.3-1.1,13.9-2.1c12.7-1.1,25.2-0.4,37.5,2.9
	c2,0.5,4.4,0.5,5.1,3.2c-12.8,6.6-26.6,10-40.6,12.9c-17.3,3.7-34.8,4.6-52.4,3C392.8,428.9,387.8,428.9,382.9,427.6L382.9,427.6z" fill="#FEB23C"></path>
<path d="M502.2,301.3c-57.7,14.9-109.9,39.2-152.1,84.2c0.7-9.3,2.3-17.2,4.4-25c9.6-36.1,28-67.3,52.3-95.4
	c3-3.4,5.8-4.2,10.3-3.6c31.6,4.3,58.9,17.9,83.6,37.4c0.4,0.3,0.8,0.6,1.1,1C502.1,300.2,502.1,300.6,502.2,301.3z" fill="#FE6264"></path>
<path d="M491.6,309.7c-5.7,5.1-12.7,8.1-19.1,12.1c-14.4,8.9-27.8,19-40.6,30.1c-14.1,12.3-26,26.4-36,42.2
	c-5.2,8.1-9.4,16.7-12.6,25.8c-1.4,3.9-2.4,7.3-7.6,4.9c-0.8-0.4-2,0-3,0c-10.8-2.3-21.1-6.1-31-11c10.3-16.5,23.2-30.7,37.6-43.6
	c7.5-6.7,15.6-12.9,23.4-19.3c2.4-4,7-5.1,10.3-7.9c3.8-2.5,7.8-4.7,11.6-7.2c13.7-7.8,28.3-13.6,43.2-18.8
	C475.7,314.1,483.4,311.1,491.6,309.7z" fill="#FE9F36"></path>
<path d="M413.7,343.7c-3.6,2.4-7.3,4.7-10.9,7.1c-0.4-0.9-1.3-0.9-2.1-1.1c3.4-2.8,7.1-5.1,11.1-7
	C412.9,342.1,413.7,342.1,413.7,343.7z" fill="#EDBB84"></path>
<path d="M413.7,343.7c-0.6-0.3-1.3-0.6-1.9-0.9c4-2.9,8.3-5.4,13-7.1C421.7,339.2,417.5,341.1,413.7,343.7z" fill="#E5AB6D"></path>
<path d="M522.5,302.2c-2,0.3-4,0.5-5.9,0.8c4.5-3.3,9.9-2.8,15-3.1c0.1,0.2,0.2,0.4,0.4,0.6
	c-0.2,0.1-0.4,0.2-0.6,0.4c-0.9,0.1-1.8,0.2-2.8,0.2C526.7,302.1,524.9,303.4,522.5,302.2z" fill="#4D1000"></path>
<path d="M538,299c-0.2,0.2-0.5,0.5-0.7,0.7c0,0-0.4-0.1-0.4-0.1l-0.4,0.2c-1.6,0.9-3.2,0.6-4.8,0.2
	c0,0-0.2-0.2-0.2-0.2C533.6,298,535.9,299.1,538,299z" fill="#4D1000"></path>
<path d="M952.1,761.3c-7.9-20.6-16.4-40.9-27.2-60c1-1.3,1.7-0.6,2.4-0.3c27.5,16,57.1,19.7,88.2,15.5
	c15.8-2.1,30.6-7.3,44.5-15c-8.4,25.8-25.4,43.3-50.5,53.1c-17.9,7-36.6,6.9-55.3,4.6C951.8,758.9,952.2,760.1,952.1,761.3z" fill="#F7DCDD"></path>
<path d="M957.4,778.1c-4.1-3.1-3.6-7.8-4.2-12C954.6,770.1,956,774.1,957.4,778.1z" fill="#4D1000"></path>
<path d="M238.4,907.9c-0.8-5.2-0.3-10.4-0.3-15.7C239.7,897.4,239.2,902.7,238.4,907.9z" fill="#FEF9FB"></path>
<path d="M522.5,302.2c2-0.4,4.1-0.8,6.1-1.2c1.4,1.5,3.3,0.6,5,0.9C529.9,302.3,526.3,305.3,522.5,302.2z" fill="#EEBA67"></path>
<path d="M542.7,300.9c-1.5,1.4-3.3,0.8-5,0.8C539.1,300.2,541,301.1,542.7,300.9z" fill="#EFC587"></path>
<path d="M531.8,300c1.6-0.1,3.2-0.2,4.8-0.2c-1.5,1.7-3.4,0.9-5.2,1C531.6,300.6,531.7,300.3,531.8,300z" fill="#EFC587"></path>
<path d="M863.2,898.3c-0.5,18.3-14.1,35.7-32.3,41.4c-19.1,6-39.9-0.8-51.7-16.7c-20.7-28-4.5-69.1,28.9-73.7
	c17.1,0.8,31.8,7,43.3,19.9c5.7,6.4,9.5,13.9,10.7,22.6C862.7,893.9,862.9,896.1,863.2,898.3z" fill="#FEB23C"></path>
<path d="M861.3,892.1c-4.7-21.4-21.5-36.6-45-40.8c-2.7-0.5-5.6-0.5-8.1-1.9c24.7-5,49,11.1,54.1,35.7
	C862.6,887.5,863.8,890,861.3,892.1z" fill="#FCD79C"></path>
<path d="M775.2,929.2c-19.7-17.4-20.2-49.4-1.1-67.2c1.1-0.2,1.6,0.3,1.4,1.4c-6,9-10.1,18.5-10.4,29.7
	c-0.4,13.1,3.8,24.5,11.4,34.8C776.7,929,776.2,929.4,775.2,929.2z" fill="#C77900"></path>
<path d="M861.3,892.1c1.7-2.1,0.3-4.7,0.9-7c1.3,4.3,2.2,8.7,1,13.2C861.8,896.4,861.2,894.4,861.3,892.1z" fill="#E5B77C"></path>
<path d="M775.5,863.4c-0.5-0.5-0.9-0.9-1.4-1.4c1-1.6,2.5-2.9,4.1-3.9c1-0.2,1.4,0.2,1.2,1.2
	C778.1,860.7,776.8,862,775.5,863.4z" fill="#B16600"></path>
<path d="M783.3,934.1c1.3,0.9,2.8,1.6,3.8,3.4c-2.4,0.3-3.8-0.7-4.9-2.3C782.3,934.5,782.9,934.4,783.3,934.1z" fill="#652400"></path>
<path d="M775.2,929.2c0.4-0.4,0.9-0.9,1.3-1.3c1,1,2,2,3,3c0.2,1-0.2,1.4-1.2,1.2
	C777.2,931.1,776.2,930.2,775.2,929.2z" fill="#AD6300"></path>
<path d="M778.3,932.1c0.4-0.4,0.8-0.8,1.2-1.2c1.3,1,2.6,2.1,3.8,3.1c-0.4,0.4-0.7,0.7-1.1,1.1
	C780.9,934.2,779.1,933.8,778.3,932.1z" fill="#924C00"></path>
<path d="M779.4,859.3c-0.4-0.4-0.8-0.8-1.2-1.2c0.9-1.6,2.6-2.1,4-3c0.9-0.2,1.3,0.2,1,1.1
	C782,857.2,780.7,858.2,779.4,859.3z" fill="#954E00"></path>
<path d="M783.3,856.2c-0.3-0.4-0.7-0.7-1-1.1c0.7-1.2,1.5-2.2,3.2-1.6C785.6,855.1,784.3,855.5,783.3,856.2z" fill="#6C2C00"></path>
<path d="M753.3,408.8c-13.8,0.2-27.5,1.2-40.6,6.4c-15.2,6.1-26.4,16.2-33.5,31c-4.3,8.9-11.3,11.7-18.5,7.6
	c-7.7-4.4-10.5-15.9-5.4-23.1c4-5.6,9.4-9.9,15.1-13.5c29.8-18.6,61.6-20.9,94.8-11.4c-1.2,3.2-3.9,2-6.1,2.1
	C757.2,408.1,755,406.7,753.3,408.8z" fill="#4D1000"></path>
<path d="M433.6,408.6c25.5-9,51.2-12,77.5-3.1c0.5,0.1,1,0.2,1.5,0.2c3.4,1.8,7.4,2.3,10.9,4.1
	c7.3,3.8,14.8,7.5,21.1,13c2.1,1.7,1.1,2.4-0.9,2.7c-4.5-1.1-7.8-4.3-11.5-6.7c-1-1.2-2.2-2-3.8-2.1c-0.4-0.1-0.9-0.2-1.3-0.4
	c-2.9-1.3-5.8-2.7-8.7-4.1c-2.6-2-5.9-2.5-8.8-3.7c-1-0.5-1.8-1.5-3.1-1.5c1.6,0.3,2.7,1.9,4.4,2c2.3,1.1,4.9,1.4,7,3
	c2.7,1.4,5.4,2.7,8.1,4.1c8.4,5.1,15.8,11,18,21.3c0.5,2.3,2,4.2,4.6,3.5c3-0.8,2.6-3.4,1.8-5.7c-0.4-1.3-0.9-2.5-0.7-3.9
	c0.3-1,0.5-2.1,2-1.6c1,1.8,2,3.7,3,5.5c0.6,2.6,0.6,5.2,0,7.8c-0.3,0.9-0.7,1.8-1,2.6c-1,1.2-1,2.9-2.1,4.1c-7,8.6-17,7.4-22.1-3
	c-5.7-11.7-13.7-21-25-27.4c-4.3-2.4-8.6-4.9-13.7-5.6c-10.4-4.1-21.4-4.9-32.4-4.9c-3.5,0-6.9,0-10.4,0c-3.7,0.8-7.5-0.1-11.2,1.3
	C435.9,410.4,433.7,411.1,433.6,408.6z" fill="#4D1000"></path>
<path d="M625,490.5c5.5,1.2,10,4.4,14.6,7.2c12.2,7.5,25.3,11.9,39.7,11c12.1-0.7,19.8-7.5,21.8-18.8
	c1.4-7.7-1.1-12.7-8.1-16.4c-1.6-0.9-4.4-1.3-2.9-4.1c1.3-2.5,3.5-1.1,5.3-0.3c7.7,3.4,11.9,10.9,11,19.5
	c-1.5,14.7-11.6,24.3-26.8,25.2c-16.4,1-31.1-4.4-44.7-13.1C620,491.2,604,489,587,493.8c-5,1.4-9.6,3.8-13.9,6.7
	c-10.4,6.9-21.9,11.2-34.3,12.8c-6.5,0.8-13,0.5-19.2-1.7c-11.5-4-18.3-14-17.8-26.1c0.3-7.9,5.3-14.7,12.4-17.2
	c1.8-0.6,3.4-0.7,4.2,1.2c0.7,1.8-0.6,2.6-2.1,3.4c-12.3,7-12.6,23-0.6,31.3c6.8,4.7,14.6,5.2,22.6,4.2c11.2-1.3,21.6-5.2,31.1-11.3
	c4.9-3.2,9.8-6.2,15.6-7.5c2.1-0.2,4.1-1.3,6.2-1.3c10.3-0.1,20.7-2,30.8,2.1C622.8,490.6,624,490.2,625,490.5z" fill="#4A0D02"></path>
<path d="M625,490.5c-1.9,0.2-3.4,1.2-5.6-0.7c-2.4-2-6.3-1.4-9.6-1.1c-2.3,0.2-4.5,0.6-6.8,1c-1.7,0.3-3.1,0.1-3.3-2
	c-3.2,0.4-6.5,0.7-9.7,1.4c-1.6,0.3-3.2,0.6-4.9,0.5c3.8-2,8.1-2.3,12.2-2.9c1.4-0.2,3,0.1,4-1.3c1.2-3.5,1.1-6.9,0-10.4
	c-0.7-1.8-2.4-2-3.9-2.7c-6.8-3.2-13.2-7-18.3-12.7c-3.8-4.2-3.4-6.2,1.5-8.7c11.2-5.6,22.8-6.4,34.8-3.2c2.2,0.9,4.7,1.1,6.9,2
	c10.5,3.7,10.8,5.2,2.2,12.6c-4.6,4-9.3,8.1-15.1,10.3c-1.7,0.7-2.3,1.6-2.3,3.3c0,1,0,2,0,3c0,7.4,0,7.3,7.3,8.5
	C618.2,488,621.8,488.6,625,490.5z" fill="#4D1001"></path>
<path d="M641.7,603.6c7.8-4.6,11.6-11.6,12.8-20.3c0.3-2,0-4.6,2.7-4.5c3.1,0.2,2.6,3.1,2.3,5.1
	c-1.7,12.6-8.8,21.7-19.9,26.9c-21.7,10.1-44.1,10.9-66.4,2.2c-13.1-5.1-21-15.4-24.1-29.2c-1-4.5,0.1-5.5,4.3-4.3
	c1.4,3.3,2.6,6.7,4,10c4,9.4,11.3,15.5,20.9,18.8c16.1,5.5,32.4,4.8,48.6,0.6C631.9,607.7,637.2,606.6,641.7,603.6z" fill="#4B0E03"></path>
<path d="M641.7,603.6c-7.7,6.1-16.9,7.9-26.4,9.1c-12.5,1.6-24.8,1.4-36.9-2.7c-14.5-5-23.2-14.9-25.1-30.3
	c8.2,10.4,19.5,16.6,31.4,21.7C603.3,609.3,622.4,609.5,641.7,603.6z" fill="#F7DCDD"></path>
<path d="M662,405.1c-0.9,7.6-4,13.7-10.8,17.1c-8.4,4.1-16.8-1.2-16.4-10.5c0.4-7.7,4-14,11.2-17.5
	C654.1,390.3,662.5,396.3,662,405.1z" fill="#FE7C7E"></path>
<path d="M557.4,392.7c6.1,0.5,10.3,4.3,13.4,9.5c3.1,5.3,4,11,0.6,16.6c-2.2,3.6-5.8,5.1-9.8,4.6
	c-10.3-1.2-17.9-14.2-14.1-23.9C549.1,395.2,552.3,392.9,557.4,392.7z" fill="#FE7C7E"></path>
<path d="M426.7,482.6c-4.4-2.2-9.4-2.2-13.9-4c-6.5-2.2-13.3-2.2-20.1-2.9l0,0.1c-0.3-0.7-0.1-1.2,0.5-1.5
	c9.5,0.1,18.9-0.6,28.4,0.3c10.5,0.6,20.8,2.1,30.6,6.1c3.3,1.3,6.3,3.1,8.8,5.5c2.1,2,2.6,4.4,1.2,6.8c-1.3,2.2-3.7,2.1-5.8,1.3
	c-2.9-1.2-5.7-2.7-8.5-4C441.2,486.9,434.1,484.3,426.7,482.6z" fill="#4D1102"></path>
<path d="M401.6,522.3c11-8.2,23-14.8,35.9-19.4c5.4-1,10.7-2.2,16.3-1.5c3.3,0.4,6.1,1.7,6.3,5.2
	c0.2,3.9-3.2,4.8-6.2,5c-4.1,0.3-8.3,0.2-12.4,0.2c-10.3,0.5-19.8,3.8-29.1,7.6c-3.2,1.3-6.3,2.9-9.4,4.3
	C401.7,523.9,401.3,523.4,401.6,522.3z" fill="#4E1101"></path>
<path d="M791.6,446c-6.4,2.3-12.8,4.5-18.8,7.8c-7.6,4.1-13.8,9.6-19.1,16.3c-3.3,4.2-8.3,5.6-10.2,3.2
	c-3.2-4-0.4-7.2,2.2-10c8.7-9.4,20.4-13.1,32.3-16.4c3.3-0.9,6.8-1.5,10.2-2.2C789.5,444.8,791.4,443.4,791.6,446z" fill="#4E1203"></path>
<path d="M420.9,444.5c12,2.2,23.7,5.4,34.1,12c3.8,2.4,7.2,5.4,9.8,9.1c1.7,2.5,2.2,5,0,7.3c-2.2,2.2-4.6,1-6.9-0.3
	c-1-0.6-2.1-1.2-2.7-2.1c-9.4-13.1-23-19.7-37.8-24.6C417.7,443.3,419.5,444.3,420.9,444.5z" fill="#4E1102"></path>
<path d="M753.3,408.8c-0.3-0.8-2.6-2,0.6-2.1c3.8-0.2,7.7,1.1,11.4-0.9c4.5,0.8,8.7,2.3,12.9,4
	c-1.3,2.5-3.2,1.3-5,0.9C766.6,410.1,760,409.4,753.3,408.8z" fill="#4C0E04"></path>
<path d="M421.7,474.6c-9.6,0-19.3,0-28.9,0c-1.6,1-3.4,0.9-5.2,1.1c-2.2-0.1-4.5-0.1-6.7-0.2c-0.6-0.6-0.6-1.2,0-1.9
	c12.3,0,24.5-0.1,36.8-0.1C418.9,474.1,420.5,473.5,421.7,474.6z" fill="#A94841"></path>
<path d="M543.4,424.8c1.7,0,1.8-0.8,1.2-2c3.3,1.4,5.6,3.8,7.1,7c-0.9,0.4-1.1,1.3-1.2,2.2
	C546.7,431,544.3,428.6,543.4,424.8z" fill="#4E1206"></path>
<path d="M382.8,427.6c5.1,0.1,10.1,0.9,15,2.1C392.7,429.8,387.6,429.8,382.8,427.6z" fill="#F7DCDD"></path>
<path d="M791.6,446c-1.1-0.5-2.6-0.3-3.4-1.4c1.7-1.2,3.7-1,5.6-1.1c1.3,0,3.1-1.5,3.5,1.1
	C795.5,445.6,793.6,446.1,791.6,446z" fill="#8A6359"></path>
<path d="M523.5,409.7c-3.8-0.8-7.7-1.4-10.9-4.1C516.5,406.2,520.2,407.3,523.5,409.7z" fill="#4E1206"></path>
<path d="M601.3,474.9c2.5,3.4,0.8,7.1,0.8,10.6c0,0-0.3,0.1-0.4,0c-0.1,0-0.3-0.2-0.4-0.3
	C600.9,481.9,600.8,478.4,601.3,474.9z" fill="#430300"></path>
<path d="M420.9,444.5c-1.1,0.5-2.3,0.9-3.4,1.4c-1.7,0.1-3.3-0.3-4.8-1.2c0.3-2.8,2.1-1.3,3.4-1.2
	C417.8,443.7,419.5,443.5,420.9,444.5z" fill="#7B4F44"></path>
<path d="M407.7,443.7c-2-0.4-4.1-0.8-7.5-1.5c4.3-0.9,7-1.1,9.6,0.3C409.6,443.6,408.3,443.1,407.7,443.7z" fill="#B79F99"></path>
<path d="M797.3,444.7c-0.9-1.3-2.3-0.9-3.5-1.1c2-1.1,4.2-0.9,6.4-1.1c1-0.1,2.3-0.7,2,1.2
	C800.8,445,799,444.6,797.3,444.7z" fill="#916E64"></path>
<path d="M407.7,443.7c0.7-0.4,1.5-0.8,2.2-1.2c2.1,0.2,4.3,0,6.2,1.1c-1.2,0.2-2.6-0.1-3.4,1.2
	C411,444.4,409.4,444.1,407.7,443.7z" fill="#855B51"></path>
<path d="M773.3,410.7c1.6-0.7,3.6,0.8,5-0.9c1.2-0.2,2.1,0.3,3,1c0,2-1.4,1.2-2.4,1.1
	C777,411.7,774.9,412.1,773.3,410.7z" fill="#794D42"></path>
<path d="M802.2,443.6c-0.7-0.4-1.3-0.8-2-1.2c2.3-1.5,4.7-0.7,7.1,0C805.6,442.8,803.9,443.2,802.2,443.6z" fill="#C9B9B5"></path>
<path d="M622.4,449.7c-2.5,0.1-4.8-0.6-6.9-2C618.1,447.5,620.3,448.3,622.4,449.7z" fill="#8B5147"></path>
<path d="M554.7,443c0-2.6,0-5.2,0-7.8C555.8,437.8,555.8,440.4,554.7,443z" fill="#4E1206"></path>
<path d="M778.9,411.9c0.8-0.4,1.6-0.7,2.4-1.1c1.1,0.4,2.3,0.9,3.9,1.6C782.5,413.4,780.7,412.9,778.9,411.9z" fill="#8B655B"></path>
<path d="M551.6,449.7c0.1-1.7,0.7-3.1,2.1-4.1C553.9,447.5,553,448.7,551.6,449.7z" fill="#4E1206"></path>
<path d="M396.7,525.5c1-0.7,2-1.4,2.9-2.1c0.8,0.1,1.6,0.4,2.1,1.1c-1,1.1-2.3,1.7-3.8,2.1
	C396.8,527.1,396.6,526.5,396.7,525.5z" fill="#89352B"></path>
<path d="M396.7,525.5c0.4,0.4,0.8,0.8,1.2,1.2c-1,0.7-2,1.4-3.1,2.1c-0.4-0.4-0.8-0.8-1.2-1.2
	C394.8,526.9,395.7,526.2,396.7,525.5z" fill="#8F382F"></path>
<path d="M401.8,524.6c-0.9-0.1-1.7-0.1-2.1-1.1c0.6-0.4,1.2-0.8,1.9-1.2c0.4,0.5,0.9,0.9,1.3,1.4
	C402.5,524,402.2,524.3,401.8,524.6z" fill="#6B2316"></path>
<path d="M818.2,474.7c1.6,0,3.2,0,4.9,0c0,0.3,0,0.7,0,1c-1.6,0-3.3,0-4.9,0C818.3,475.3,818.2,475,818.2,474.7z" fill="#89352B"></path>
<path d="M611.4,702.4c0-5.9,3-9.1,8.7-9c11.6,0.1,26,15.1,25.5,26.6c-0.2,5.5-3.5,8.5-9,8.3
	C625.5,728,611.4,713.5,611.4,702.4z" fill="#FEDBA3"></path>
<path d="M655.5,742.8c0,6.6-2.3,11.4-5.8,11.1c-5.6-0.5-6.1-5.4-7-9.5c-0.7-3.3-0.3-6.6,1.5-9.6
	c1.1-1.8,2.2-3.5,4.5-3.3c2.3,0.2,4,1.4,5,3.6C654.9,737.5,655.7,740.2,655.5,742.8z" fill="#FEDBA2"></path>
<path d="M494.2,676.1c16.5,6.5,33.2,9.3,50.2,12.6c-2,3.5-5.3,4.9-7.8,7c-10.9,9.1-20.6,19.3-28.6,31
	c-0.7,1.1-1.1,2.7-2.9,2.1c-1-0.3-1.3-1.4-1.4-2.4c-1.2-16.1-5.1-31.7-9-47.2C494.5,678.5,494.4,677.7,494.2,676.1z" fill="#F33B17"></path>
<path d="M392.7,475.7c6.9-0.2,13.7-0.3,20.1,2.9C406.1,477.7,399.4,476.7,392.7,475.7z" fill="#4E1108"></path>
<path d="M380.8,473.7c0,0.6,0,1.2,0,1.9c-1.3,0-2.7,0-4,0c0-0.6,0-1.3,0-1.9C378.2,473.7,379.5,473.7,380.8,473.7z" fill="#C55955"></path>
<path d="M387.6,475.8c1.5-1.6,3.4-1.1,5.2-1.1c0,0.4,0,0.8-0.1,1.1C391,475.7,389.3,476.7,387.6,475.8z" fill="#4E1108"></path>
<path d="M828.9,336.9c-8.7-3.2-16.4-7.7-24.5-11.6c-16.8-8-34-14.7-51.9-20c-5.5-1.6-11-3.4-16.7-4.5
	c-3.7-0.8-4.3-2.3-1.6-5.4c10.8-11.9,23.7-20.2,39.3-24c9-2.2,16.9,0.7,23.8,7c10.7,9.8,16.9,22.5,22.7,35.4
	C823.4,321.3,826,329.2,828.9,336.9z" fill="#FE7C7E"></path>
<path d="M433.6,408.6c2,2.2,4.1,0.6,6.2,0.4c2.7-0.3,5.5-0.1,8.2-0.1c-4.8,0.6-9.5,1.3-14.3,1.9
	c-1.5,0.3-3.3,1.6-4-1C431,409.4,432.3,409,433.6,408.6z" fill="#521502"></path>
<path d="M429.8,409.8c1.1,1.5,2.7,0.6,4,1c-1.4,1.3-3.2,0.8-4.9,1.1c-1.1,0.3-2.3,0.8-2.2-1.1
	C427.7,410.4,428.7,410.1,429.8,409.8z" fill="#75350E"></path>
<path d="M426.7,410.7c0.5,0.9,1.3,0.9,2.2,1.1c-1.7,1.2-3.5,1.1-5.6,0.8C424.2,411.1,425.5,410.9,426.7,410.7z" fill="#9D591B"></path>
<path d="M379,343.3c3.1-11,6.4-20.7,10.6-30c4.6-10.3,9.8-20.2,17.1-29.1c13.4-16.4,25-15.5,39.1-9.7
	c12.3,5.1,22.9,12.6,31.2,23.1c2.6,3.3,0.7,3.6-2,4.3c-23,6.6-45.2,15.4-66.8,25.7C398.7,332.3,389.5,337.7,379,343.3z" fill="#FE7C7E"></path>
<ellipse ry="0.3" rx="18.1" cy="719.9" cx="994.1" fill="#FDE4E6"></ellipse>
<path d="M800.9,920c-2.4,0.2-4.2,1.8-6.3,2.7c-1.4,0.6-2.6,0.4-3.5-0.8c-0.9-1.1-0.3-2.2,0.4-3.1
	c2-2.8,4.5-5.2,5.9-8.4c-0.2-1.5,0.9-2.8,1.1-4.2c3.5-7.2,3.3-14.1-0.9-21c-0.7-1.2-1.8-2.4-1.5-4c-0.5-2.1-2.4-3.1-3.6-4.7
	c-0.9-1.3-2.8-2.4-1.3-4.3c1.5-1.9,3.3-0.8,4.9,0c2.2,1.1,4.5,2.1,6.8,3.2c11.7,5.5,22.9,4,33.7-2.4c1.6-1,3.3-2.9,5.3-1.1
	c2.2,1.9,0.1,3.7-0.8,5.3c-7.8,13.2-7.9,26.4-0.2,39.7c1,1.7,3.4,3.6,1,5.7c-2.2,1.9-3.9-0.6-5.8-1.5c-1.9-0.9-3.6-2.4-5.8-2.7
	c-2.1,1.2-3.6-0.9-5.5-1.2c-6.5-1.3-12.7,0.1-18.9,1.6C804.3,919.3,802.5,919.4,800.9,920z" fill="#4C1001"></path>
<path d="M796,881.1c7.3,8.9,8.2,16.5,3.1,26c-2.6-1.2-1.2-3.2-1-5c0.5-5.9-0.8-11.7-2.2-17.3
	C795.7,883.5,794.9,882.3,796,881.1z" fill="#F8D49A"></path>
<path d="M805.2,918.1c8.4-3.4,16.8-4.3,25.1,0.1c-2.4,1.9-4.7-0.1-7-0.2c-5.8-0.2-11.4,1.2-17.1,1.2
	C805.2,919.4,805,919,805.2,918.1z" fill="#F0C582"></path>
<path d="M798.2,902.1c0.4,1.7-0.6,3.6,1,5c-0.1,1.4-0.9,2.4-1.8,3.3C796.4,907.5,797.2,904.8,798.2,902.1z" fill="#EFC076"></path>
<path d="M805.2,918.1c0.3,0.4,0.7,0.8,1,1.1c-1.6,1.5-3.6,0.7-5.4,0.8C802,918.7,803.6,918.3,805.2,918.1z" fill="#E9B367"></path>
<path d="M686.3,415.6c-5.6,3.2-10.8,7-15,11.9c-2.4,2.8-3.7,6.1-4.1,9.9c-0.4,3.6-3.1,5.9-6.7,4.9
	c-3.8-1-3.6-4.4-2.6-7.4c0.7-2.4,2.1-4.5,4-6.2c6.6-6.2,14.2-10.7,22.5-14.2C685.4,414.2,686.3,413.9,686.3,415.6z" fill="#8B5248"></path>
<path d="M692.4,410.7c2.8-2.5,6.5-2.7,10.4-4.2c-2.2,3.6-5.9,3.5-8.4,5.2C693.9,411,692.8,411.5,692.4,410.7z" fill="#602416"></path>
<path d="M692.4,410.7c0.8,0.1,1.6,0.2,2,1c-3.1,0.4-5.1,3.2-8.1,3.9c-0.7-0.3-1.3-0.6-2-1
	C686.7,412.7,689.5,411.5,692.4,410.7z" fill="#753B2E"></path>
<path d="M543.4,424.8c2.4,2.4,4.7,4.7,7.1,7.1c0.4,1.2,0.8,2.5,1.4,3.7c1.3,2.9,0.5,5.6-2.2,6.8
	c-3.1,1.4-6.4-0.5-6.7-3.3c-1.3-11.2-9.6-16.4-17.5-22.2c0-1.7,0.8-1.8,2-1c0.3,0,0.6,0,0.9,0c1.3,0.7,3,0.8,4,2.1
	C536.2,420.2,539.8,422.5,543.4,424.8z" fill="#8C5248"></path>
<path d="M527.6,415.7c-0.8,0-1.6,0.2-2,1c-2.6-1.4-5.3-2.7-7.9-4.1c-0.2-0.9,0.1-1.3,1-1.1
	C521.7,412.9,525,413.4,527.6,415.7z" fill="#7A3F33"></path>
<path d="M518.7,411.7c-0.3,0.4-0.7,0.7-1,1.1c-2.3-1-4.7-2-7-3c-0.6-0.5-1.6-0.9-1-2
	C512.7,408.9,516.3,408.8,518.7,411.7z" fill="#662B1D"></path>
<path d="M509.6,407.7c0.3,0.7,0.7,1.3,1,2c-2.6-0.3-4.5-1.7-6.3-3.7C506.6,405.5,508.5,405.4,509.6,407.7z" fill="#541809"></path>
<path d="M532.6,417.9c-1.5-0.4-2.9-0.9-4-2.1C530.3,415.6,531.9,415.8,532.6,417.9z" fill="#4E1206"></path>
<path d="M610.7,449.3c3.7,0.1,7.3,0.7,10.4,2.8c2.7,1.8,2.7,3.8-0.5,4.9c-5.3,1.9-10.7,1.3-15.8-0.9
	c-1.2-0.5-2.3-1.5-2.3-3c0-1.8,1.4-2.5,2.9-2.9C607.2,449.8,609,449.6,610.7,449.3z" fill="#8B5147"></path>
<path d="M606.2,474.7c0,3.6,0,7.1,0,10.7c-0.1,0-0.3,0-0.4,0c0-3.6,0-7.1,0-10.7
	C605.9,474.7,606.1,474.7,606.2,474.7z" fill="#3F0000"></path>
<path d="M597.7,611.7c2.9,0,5.8,0,8.7,0c0,0.2,0,0.3,0,0.5c-2.9,0-5.8,0-8.6,0C597.8,612,597.7,611.9,597.7,611.7z" fill="#FEE8EA"></path>
<path d="M454.6,510.4c-5.2,0-10.5,0-15.7,0c0-0.1,0-0.3,0-0.4c5.2,0,10.5,0,15.7,0
	C454.6,510.1,454.6,510.2,454.6,510.4z" fill="#430300"></path>
<path d="M813,910.1c-2.8,0-6.7,1.1-8.1-0.3c-2-1.9,1.1-4.9,1.7-7.5c1.2-5.4,1-10.6-1.3-15.6c-1.2-2.6-0.5-3.1,2.1-3
	c4.1,0.1,8.3,0.1,12.4-0.1c2-0.1,2.8,0.3,2.1,2.4c-2.3,7.2-2.3,14.3-0.1,21.5c0.6,1.9,0.3,2.8-1.9,2.7c-2.3-0.1-4.6,0-7,0
	C813,910.2,813,910.2,813,910.1z" fill="#F6F6F6"></path>
<path d="M833.7,880.8c-4.2,10.2-4.9,19.9-0.9,29.6c0.3,0.7,0.7,1.7-0.1,2.3c-0.9,0.7-1.9,0.1-2.7-0.4
	c-1.2-0.7-1.7-2-2.3-3.2c-3.7-8.6-3.2-17.1,0.5-25.6C829.1,881.4,830.8,880.8,833.7,880.8z" fill="#C47600"></path>
<path d="M815.4,916.3c1.9,0,3.7,0,5.6,0c0,0.2,0,0.3,0,0.5c-1.9,0-3.7,0-5.6,0C815.5,916.6,815.4,916.5,815.4,916.3z" fill="#FAD79F"></path>
</svg>
