<svg xml:space="preserve" viewBox="0 0 1200 1200" y="0px" x="0px" xmlns:xlink="http://www.w3.org/1999/xlink" xmlns="http://www.w3.org/2000/svg" id="图层_1" version="1.1">
<g>
	<path d="M-63,2262.9c2.7-1.6,5.3-1.5,8,0C-57.7,2262.9-60.3,2262.9-63,2262.9z" fill="#673426"></path>
	<path d="M-53,1273.1c-2.7,1.5-5.3,1.6-8,0C-58.3,1273.1-55.7,1273.1-53,1273.1z" fill="#5D2617"></path>
	<path d="M-33,1273.1c-2.7,1.6-5.3,1.5-8,0C-38.3,1273.1-35.7,1273.1-33,1273.1z" fill="#5D2617"></path>
	<path d="M-39,2262.9c2.3-1.5,4.7-1.6,7,0C-34.3,2262.9-36.7,2262.9-39,2262.9z" fill="#673326"></path>
	<path d="M-66,1273.1c-2.3,1.4-4.7,1.8-7,0C-70.7,1273.1-68.3,1273.1-66,1273.1z" fill="#AA8E87"></path>
	<path d="M-21,1273.1c-2.3,1.8-4.7,1.4-7,0C-25.7,1273.1-23.3,1273.1-21,1273.1z" fill="#AA8E87"></path>
	<path d="M-72,2262.9c1-1.7,2-1.4,3,0C-70,2262.9-71,2262.9-72,2262.9z" fill="#AF948D"></path>
	<path d="M-25,2262.9c1-1.4,2-1.7,3,0C-23,2262.9-24,2262.9-25,2262.9z" fill="#AF948D"></path>
	<path d="M-78.2,2172.1c0.7-0.4,1.4-0.7,2.1-1.1c3.2,0.2,5,3.3,8,4.1c0.8,1.3,0.6,2-1,2
		C-72.3,2175.8-75.6,2174.6-78.2,2172.1z" fill="#796E72"></path>
	<path d="M-69.1,2177.1c0.8-0.5,1.1-1.2,1-2c2.7,1.1,5.3,2.5,7.2,4.8c-1,0.7-2.1,0.7-3.2,0.1
		C-65.7,2178.9-68,2179-69.1,2177.1z" fill="#615054"></path>
	<path d="M-58,2180.9c1.3,1.1,3.8,0.5,4,3c-2.3,0-4.3-0.7-6.1-2C-59.6,2181.1-58.8,2181-58,2180.9z" fill="#4F3737"></path>
	<path d="M-58,2180.9c-0.4,0.8-1.2,1-2.1,1.1c-1.3-0.7-2.7-1.3-4-2c1.1,0,2.1,0,3.2-0.1
		C-59.8,2179.9-58.7,2179.8-58,2180.9z" fill="#60403C"></path>
	<g>
		<path d="M570,1094.9c-3.7-2.1-8-1.4-11.9-1.8c-96.3-8.6-182.9-42-259.6-100.8c-60.6-46.4-107.8-104-141.8-172.3
			c-26.4-52.9-42.6-108.9-48.7-167.7c-0.7-6.6-1.2-13.3-1.8-19.9c-0.1-0.9,0.3-2.1-1-2.5c0-2.3,0-4.7,0-7c0.7-1,0.7-2,0-3
			c0-1.7,0-3.3,0-5c0.8-2,0.8-4,0-6c0-6,0-12,0-18c0.8-2,0.8-4,0-6c0-1.7,0-3.3,0-5c0.7-1,0.7-2,0-3c0-2.3,0-4.7,0-7
			c2.2-3.9,1.4-8.3,1.8-12.4c7.7-86.3,35.6-165.4,84.6-236.9c51.9-75.7,119.9-132.7,203.3-171.1c43.3-19.9,88.7-33,136-39.6
			c12.7-1.8,25.4-3.2,38.2-3.9c0.8,0,1.7,0.1,2-1c1,0,2,0,3,0c2.3,0.8,4.7,0.8,7,0c1.7,0,3.3,0,5,0c2.7,0.8,5.3,0.8,8,0
			c4,0,8,0,12,0c2.7,0.8,5.3,0.8,8,0c1.7,0,3.3,0,5,0c2.3,0.8,4.7,0.8,7,0c0.7,0,1.3,0,2,0c4.3,2.2,9,1.3,13.4,1.7
			c86,7.5,165,34.9,236.2,83.6c97,66.4,162.6,156.3,196.9,268.8c10.8,35.4,17.1,71.8,19.4,108.8c0.1,1-0.6,2.4,1,3c0,3.7,0,7.3,0,11
			c-1.1,2-0.3,4.2-0.5,6.2c0.2,2.9-0.5,5.9,0.5,8.8c0,2,0,4,0,6c-1.1,2.9-0.3,5.8-0.5,8.7c0.3,2.1-0.6,4.2,0.5,6.3c0,4,0,8,0,12
			c-2.1,3.8-1.4,8-1.8,11.9c-8.6,96.3-42,182.9-100.8,259.6C942,967.1,879,1016.8,803.8,1051c-48.1,21.9-98.4,35.5-151,41
			c-7.6,0.8-15.3,1.3-22.9,1.9c-0.8,0.1-1.7-0.1-2,1c-1,0-2,0-3,0c-1-0.7-2-0.7-3,0c-2.3,0-4.7,0-7,0c-2.3-0.8-4.7-0.8-7,0
			c-5.3,0-10.7,0-16,0c-2.7-0.8-5.3-0.8-8,0c-2,0-4,0-6,0c-1-0.7-2-0.7-3,0C573.3,1094.9,571.7,1094.9,570,1094.9z" fill="#4D1000"></path>
		<path d="M1094,612.1c0.3-3-1-6.2,0.9-9.1c0,3,0,6,0,9C1094.6,612.4,1094.3,612.5,1094,612.1z" fill="#5C2516"></path>
		<path d="M1094.9,597c-2-2.9-0.6-6-0.9-9.1c0.3-0.4,0.7-0.4,0.9,0.1C1094.9,591,1094.9,594,1094.9,597z" fill="#5C2516"></path>
		<path d="M1094.9,588c-0.3,0-0.6,0-0.9-0.1c0.4-2-1.1-4.2,0.9-5.9C1094.9,584,1094.9,586,1094.9,588z" fill="#75463A"></path>
		<path d="M105.1,585c1.6,2,1.5,4,0,6C105.1,589,105.1,587,105.1,585z" fill="#663124"></path>
		<path d="M105.1,609c1.5,2,1.6,4,0,6C105.1,613,105.1,611,105.1,609z" fill="#663124"></path>
		<path d="M1094,612.1c0.3,0,0.6-0.1,0.9-0.1c0,2,0,4,0,6C1092.9,616.3,1094.3,614,1094,612.1z" fill="#75463A"></path>
		<path d="M105.1,620c1.3,1,1.5,2,0,3C105.1,622,105.1,621,105.1,620z" fill="#A4857D"></path>
		<path d="M105.1,577c1.5,1,1.3,2,0,3C105.1,579,105.1,578,105.1,577z" fill="#A4857D"></path>
		<path d="M600,1090.9c-271.3,0-491-219.9-490.9-491.3c0.1-271.3,220.2-490.6,492.2-490.5
			c270,0.1,489.8,220.5,489.6,491.1C1090.7,871.3,871,1090.9,600,1090.9z" fill="#FEFEFE"></path>
		<path d="M599.9,1080.9c-265.8-0.1-480.9-215.4-480.9-481.5c0.1-265.8,215.8-480.6,482.5-480.4
			c264.4,0.2,479.4,216,479.4,481C1080.8,865.7,865.5,1081,599.9,1080.9z" fill="#4D1000"></path>
		<path d="M204.1,846.9c-4.1-17.1-14.1-29.5-29.7-37.4c-2.9-1.5-4.7-3.3-6-6.2c-14.2-30.4-25.2-61.9-33-94.5
			c-0.7-3.1-0.8-6.3-0.6-9.4c0.5-8.5-1.2-16.5-4.6-24.3c-3.9-8.9-3.8-18.5-4.8-27.9c-1.7-16.9-2.4-33.9-2.4-50.9
			c0-4.1,1.5-5.2,5.1-6c27.8-5.9,46.2-29.3,44.4-57.4c-1.4-21.3-12.6-36.8-31.6-46.3c-3.4-1.7-3.7-3.1-2.9-6.3
			c17.6-66.7,47.9-127.1,91.5-180.7c50.1-61.6,111.7-108,184.8-139.1c42.8-18.2,87.4-29.9,133.7-34.7
			c97.6-10.1,189.9,7.3,276.6,53.2c5.3,2.8,10.4,5.7,16.9,9.3c-8.1,1-14.7,1.7-21.3,2.8c-19.2,3.2-36.7,10.5-51.9,22.9
			c-3.4,2.8-6.1,6-8.4,9.8c-10.8,18.1-21.9,36.1-32.8,54.2c-1.4,1.9-3.2,2.7-5.6,2.3c-7.2-1.1-14.5-1.5-21.7-2
			c-22.4-1.7-44.8-1.5-67.2,0.3c-6.5,0.5-13.2,0.5-19.6,2.3c-45.6,6.6-88.3,20.8-126.1,48c-33,23.7-58.2,53.9-76.8,89.9
			c-2.7,5.3-2.7,5.3-7.6,1.9c-34.3-23.8-71-26.5-109.2-11.2c-6.6,2.7-10.8,2.3-16.8-1.8c-43.4-29.5-102-5.2-112.7,46.4
			c-10.9,52.3,36.9,98.7,88.9,86.1c31.1-7.6,53.2-32.8,56.2-64.3c0.3-3,1.6-4.3,4.3-5.2c24-7.2,47-4.8,69.2,6.9
			c3.1,1.6,4.2,3.1,3.1,6.9c-1.9,6.3-2.9,13-4.3,19.5c-0.8,3.8-0.7,8-3.7,11.2c-1.2,1.3-0.7,3.2-0.7,4.8c0.1,18.5,0.8,37,0.1,55.5
			c-0.3,6.8,4.4,10.6,9.9,13.1c3.4,1.5,4.1,3.2,3.3,6.8c-3.3,15.1-6.2,30.3-9.2,45.5c-0.5,2.5-1.8,4.5-3.8,6.3
			c-13.6,11.6-24.1,25.7-31.8,41.8c-1.9,4-2.9,3.5-5.1,0.5c-19.6-26.1-39.3-52.2-58.9-78.2c-4.6-6-5.3-6.2-11-1.6
			c-19.1,15.3-38.2,30.6-57.1,46.1c-2.6,2.1-4.4,2-7,0.5c-13-7.2-11.6-7.2-18,6.1c-11.7,24.3-23.5,48.6-35.2,72.8
			c-2.9,6.1-2.5,6.7,3.5,9.7c37.7,18.6,75.4,37.3,113.2,55.9c7,3.5,14.1,6.8,21,10.5c3.8,2,6.5,1.7,8.6-2.3c1.4-2.6,3.2-5,5.1-8
			c3.9,5.8,7.2,11.3,11.5,16.1c2.1,2.4-0.1,3.5-1.5,4.9c-13.1,12.9-25,26.8-33.8,43.1c-8.3,15.4-13.3,31.5-11.5,49.3
			c1.9,18.3,10.8,32.9,23.1,45.9c1.4,1.4,2.7,2.9,4,4.4c0.5,0.8,0.6,1.7-0.1,2.4c-21.6-17.3-41-36.9-59-57.9
			c-11-12.9-21.5-26.2-30.8-40.4c-1.1-3.7-0.5-7.5-0.5-11.3C205.6,853.9,205.4,850.4,204.1,846.9z" fill="#FEFEFE"></path>
		<path d="M467,536c0-0.3,0-0.6,0.2-0.8c1.3-1.9,3.1-2.9,5.3-3.4c21.3-4.5,42.8-7.5,64.5-9.5c12-1.1,24-1.1,35.8-1.1
			c16.9,0,33.9-0.5,50.7,2.6c8.2,2.5,17,1.2,25,4.3c5.5,2.8,11.6,3.8,17.6,5.3c25.7,6.2,50.3,15.3,73.9,27.1
			c16.7,8.3,32.8,17.7,48.1,28.5c3.5,2.4,5.7,5.2,6.6,9.5c3.7,16.8,6.1,33.6,6.9,50.9c0.5,9.4-0.3,18.6-0.3,27.9c0,2.1,0.6,5-3,5.3
			c-12.2-13.1-28.8-15.9-45.3-19.1c-1.8-0.3-3.7-0.2-4.8-2.1c-3.1-15.5-17.1-24.4-34.5-22.3c-8.9,1.1-17.6,2.6-26,5.7
			c-1.1,0.5-2.3,1-3.5,1.3c-4.5,1-8.6,2.7-12.7,4.8c-8.8,3.1-16.9,7.7-24.6,12.9c-1,0.5-2,0.9-3,1.4c-0.3,0.1-0.6,0.3-0.6,0.6
			c0,0.3,0.2,0.4,0.6,0.3c0.7-0.2,1.3-0.7,2-1.1c0.8-0.5,1.7-0.9,2.7-1.1c1.3,0,3-0.2,3.3,1.4c0.3,1.8-1.7,2.2-2.7,3.1
			c10-3.8,20-7.9,30.5-10.2c8.4-1.9,16.8-2.4,25.1-0.2c3,0.8,6.3,1.8,5.5,6.2c-1.5,1.5-3.5,1.8-5.4,2.5c-3.3,1.1-6.6,2.4-9.6,4.2
			c-8.5,5.1-9,13.3-1.2,19.4c3.3,2.6,6.9,4.7,10.8,6.2c24.8,9.2,50.1,11.1,75.9,4.5c5.2-1.3,9.9-3.9,14.4-6.7
			c4.7-1.3,4.1,2.1,3.8,4.6c-0.7,5.3-1.8,10.5-3.1,15.7c-6.5,27.3-18.2,52.1-36.8,73.4c-8.2,9.4-17.5,17.8-27.7,25.1
			c-1.4,1-2.7,2-4.5,1.8c-4.6-2-7.7-5.8-10.6-9.6C693.9,776.3,680,743.7,673,708c-1-5.2-1-10.6-2.8-15.6c-1.1-1-2.2-0.2-3.3,0.1
			c-18.5,6.2-37.5,10.9-56.9,12.4c-31.2,2.5-61.9,0.4-90.7-13.5c-2.4-1.2-4.7-2.4-7.1-3.7c-3.3-1.9-5.6-1.2-7.4,2.1
			c-4.3,7.5-9.7,14.4-14.2,21.7c-8,13.1-17,25.4-26.4,37.5c-3.4,3.7-7.3,7-10.5,10.9c-11.1,8.8-22.4,17.1-36.5,20.6
			c-2.8,3.8,0.3,4.5,2.8,5.2c10.3,3,20.9,3.9,31.6,2.9c14.8-1.4,28.6-5.8,41.2-13.8c9.4-5.9,17.8-12.7,23.3-22.5
			c1-1.8,2-1.5,2.8,0.1c0.6,1.4,1.1,2.8,2.1,3.9c2.3,5.7,3.7,11.7,6,17.4c11.8,28.4,32.6,45,63.3,49.1c12.2,1.6,24.3,1.2,36.2-1.4
			c12.2-2.6,21.2-10,26.7-21.3c0.9-1.8,1.6-3.7,2.7-5.3c3.1-4.8,3.1-4.8,7.3-1.5c14,11,29,20.1,45.9,26c1.6,0.6,4,0.5,4,3
			c0,2.1-1.9,3-3.5,3.8c-15,7.5-30.6,13.2-46.8,17.2c-19.9,4.9-40.2,7.1-60.7,8.4c-26.9,1.6-53.5-0.2-80.2-3
			c-34.7-3.6-68.8-10.4-102.7-18.6c-6-1.4-11.2-4.2-16.6-6.6c-9-3.5-16.4-9.5-23.7-15.6c-10.4-8.9-19.9-18.7-26.9-30.6
			c-2.1-4.7-5.8-8.7-5.5-14.3c1.8-4.9,1.5-10.1,1.9-15.2c1.4-18.5,6.8-35.8,15.1-52.2c2.8-5.5,5.8-10.9,9.1-16
			c1.4-2.1,2.1-4.5,2.8-6.9c0.4-1.5,0.2-3.5,2.5-3.7c0.8,0.7,1.2,1.7,1.1,2.7c-0.6,9.1,5.8,12.4,12.7,15c14.1,5.2,28.6,6.3,43.5,5.4
			c12.6-0.8,24.7-2.8,36.4-7.5c4.5-1.8,8.6-4.2,12.1-7.8c5.3-5.4,4.6-12.2-1.8-16.4c-3.2-2.1-6.6-3.8-10.2-5.2
			c-1.9-1.2-5.1-1.2-5.2-4c0-3.3,3.2-3.9,5.6-4.9c10.7-4.6,21.3-2.1,31.8,0.7c9,2.4,17.7,5.6,26.8,9.5c-2.4-1.6-5.1-2.9-0.6-4.4
			c0.7-0.1,1.4,0,2,0.1c0.3,0.1,0.6,0.2,0.9,0.3c0.5,0.1,0.6,0,0.2-0.2c-1.3-0.8-2.4-1.8-3.8-2.2c-1.5-0.6-2.9-1.4-4.2-2.4
			c-4.5-3.8-10.1-5.7-15-8.8c-3.1-1.8-6.6-2.3-9.8-3.7c-3-1.1-6-2-9-3.2c-4.5-1.5-9.1-2.7-13.7-3.9c-9.3-1.9-18.4-4-28-1.4
			c-11.8,3.3-18.7,10.7-20.3,22.9c-0.7,1.3-2,1.7-3.3,1.8c-12.4,1-24.4,3.5-35.7,9.2c-0.6,0.3-1.3,0.2-1.9,0.1c-2-1.9,0-2.9,1.1-3.8
			c5.8-5.2,11-11.1,16.8-16.3c2.1-1.9,3.2-4.1,4-6.7c7.4-24.3,18-47.1,32.3-68.1c5.4-6.4,10.5-13.1,15.6-19.7
			C461.2,542.4,465.2,540.1,467,536z" fill="#FEC6AD"></path>
		<path d="M939.9,911c1.1,5.2,2.1,10.4,3.5,15.5c0.7,2.6,0.2,4.4-1.6,6.2c-26.8,27.2-56.1,51.2-88.4,71.4
			c-1.8,1.1-3.7,2.3-5.5,3.4c-13.5-1.5-26.5-5-39.4-8.9c-20-6.1-39.1-14.2-57.2-24.7c-2.8-1.8-5.3-4.1-8.5-5
			c-2.9-1.2-5.4-2.8-7.6-5.1c-3.7-4.2-9.3-5.9-13-10.1c-4-3.5-7.6-7.3-12.3-9.8c-3.6-3.5-7.1-7-10.7-10.4c-1.7-1.6-3.4-3.7-5.8-1.2
			c-2.3,2.3-0.7,4.4,0.9,6.1c5.2,5.6,10.6,11,16,16.5c6.1,9.1,6.4,19.4,6.2,29.7c-0.5,21.9-9.8,39.7-25.8,54.2
			c-12.2,11.1-26.5,19-41.6,25.3c-7,3-14.2,5.8-21.4,8.2c-7,2.3-14,4.1-21.3,4.5c-62.1,0.8-122.1-9.7-179.9-32.7
			c-1.4-12-0.3-24,2-35.8c5.8-30.1,16.4-58.7,29-86.5c0.4-0.9,0.9-1.8,1.5-2.6c1-1.4,1.6-3,2.5-4.5c1-1.5,2.1-3,2-5
			c0.9-2.6,3.1-4.3,4.6-6.4c1.4-2,1.9-3.9-0.5-5.6c-2.3-1.7-3.8-0.1-5,1.5c-4.8,6.5-9.5,13.1-14.2,19.7c-4.7,6-11.6,8.9-18.2,12
			c-15.8,7.5-32.8,10.7-50.1,12.5c-12,1.2-24,0.6-35.9,0.9c-5.7,0.1-11.2-1.2-16.9-1.2c-3.6,0-5.1-2.7-6.5-5.4
			c-4.7-11-4.5-22.4-2.1-33.8c6-28.6,22.2-51.5,41-73.1c0.3-0.4,0.8-0.6,1.2-0.8c2.2-1.1,4.1-0.4,6,0.9
			c32.4,21.8,68.3,36.2,105,48.5c4.4,1.5,7.3,3.8,8.3,8.3c3.2,13.1,6.3,26.2,11.5,38.7c7.6,18.3,18.1,34.7,31.7,49.2
			c23.3,24.8,52.1,40.4,83.9,51.3c5.8,2,6.8,1,5.9-5.1c-0.6-4.8-2.5-9.4-2.2-14.3c-2.6-42.9,17.9-76.3,44.2-107.3
			c2.2-2.6,5.1-2.9,8.2-2.5c39.3,4.6,75.2-5.5,109.2-24.6c17.1-9.6,33.6-20.3,49.6-31.8c4.6-3.3,6.3-3.1,9.9,1.7
			c6.8,9.2,14.6,17.2,25,22.5c12.7,6.5,26.2,7.1,39.9,5.2c5.9-0.8,11.7-2.6,17.3-4.9c1.5-0.6,3.1-1.2,4.8-0.7c2.4,1.1,3.8,3.1,5,5.4
			c5.8,11,11.5,22.1,15.3,34C939.6,906.7,940.5,908.7,939.9,911z" fill="#DB2345"></path>
		<path d="M584,293.4c15.5-3.9,31.3-5.6,47.2-7.5c11.3-1.3,22.6-1.4,33.9-1.5c18.7-0.1,37.6,0.4,56.2,3.1
			c5.3,0.8,10.6,1,15.7,2.4c24.1,4.1,46.1,13.5,66.9,26c42.7,25.7,69.4,62.8,79.7,111.6c3.5,16.7,5.2,33.7,3.3,50.7
			c-2.2,19.8-9.7,38-21.4,54.3c-5.9,8.3-12.2,16.2-19.8,23.1c-1.6,1.4-3,3.2-5.4,3.2c-3.9-1-6.6-3.9-9.5-6.2
			c-29.1-23.1-60.6-42.2-94.2-57.8c-14.5-6.8-29.4-12.3-44.6-17.4c-2.2-0.7-4.5-1.3-5.7-3.6c-0.7-2.8,0.5-5.2,1.2-7.8
			c7-26.5,5.4-52.5-5.9-77.4c-6.2-13.7-16.9-23.9-30-31c-7.5-4.1-14.9-8.9-23.7-10.2c-8.3-1.8-16.4-4-25-3.9
			c-23.4,0.1-43.5,8-59.8,25c-9.4,9.2-15.6,20.1-19.3,32.7c-4.7,15.6-4.5,31.2-0.2,46.8c0.2,0.5,0.4,1,0.5,1.5
			c0.5,2.3,1.4,4.4,2.3,6.6c1.7,4.4,0.9,5.9-4.1,6.8c-7.2,1.3-14.4,2.7-21.6,4.2c-33,6.8-64.2,18.8-94.4,33.4
			c-2.2,1.1-4.2,2.8-7,2.1c-1.7-2.3-0.7-4.9-0.1-7.2c5-21.4,11.9-42.3,21-62.3c0.5-1.1,0.9-2.1,1.5-3.1c2.3-4.1,3.5-4.1,6.1-0.1
			c2.7,4.1,5.5,5.2,10.2,4c2.1-0.5,4.1-1.4,5.8-2.8c13.3-10.8,21.5-24.3,21.8-41.8c0.1-4.7-1.3-8.4-6.5-9.9
			c-4.4-1.2-2.6-4.1-0.9-6.1c5.1-5.9,10-12,15.8-17.3c15-13.8,30.9-26.3,48.5-36.6c11.2-6.5,22.9-12.2,34.9-17.1
			c3.3-0.9,6.5-2.2,9.8-3.1c1.7-0.7,3.7-0.9,5.4-1.7C576.5,296,580.4,295.1,584,293.4z" fill="#DB2345"></path>
		<path d="M798,682c2.5-0.4,1.8-2.3,2-3.9c1.3-12.9,0.8-25.8-0.2-38.7c-1.1-14.6-3.6-29.2-7-43.5
			c-0.4-1.6-1.3-2.9-2.8-4c-21.5-15-44.2-27.9-68.3-38.3c-17.1-7.4-34.6-13.2-52.5-17.9c-6.5-1.7-12.9-4.1-19.7-4.8
			c-1.3-0.1-0.6-1.2-0.5-1.9c3.3-1.3,6.6-0.1,9.8,0c7.8,2.4,15.8,3.7,23.7,5.4c13,2.9,25.7,6.5,38.2,11c3,1.1,6,2.1,9.2,2.2
			c10.9,2.3,20.5,7.7,30.5,12.1c9.6,4.3,18.7,9.5,27.9,14.4c3.5,1.9,6.2,4.4,8.1,7.9c17.4,31,28.8,63.9,34.1,99.1
			c1.4,9.6,1.8,19.2,2.5,28.8c0.7,9.8-0.4,19.6-1.8,29.3c-0.5,3.1-0.8,5.6,2.5,7.2c0.7,3.2-1.1,6.4,0.1,9.7c1.3,3.7,2.3,7.8,6.9,8.1
			c4.6,0.3,6.6-3.2,7.9-7c3.7-11.1,8.6-21.6,14.6-31.7c14.8-24.7,36-41.5,63-51.2c4.3-1.6,8.9-1.6,13.4-2c-5,0.4-10,0.7-15,1.4
			c-2,0.3-4.3,1.1-5.9-1.3c2-2.9,5.2-2.7,8-2.9c17.5-1.5,33.7,2.5,48.6,11.6c14.3,8.8,21.1,22,21.9,38.6c0.2,5.4,0.6,10.9-2.4,15.9
			c-2.6,11.6-7.2,22.4-12,33.1l0-0.1c-2.6,2.4-3.1,6.2-5.8,8.4c-3.6,1.6-4.8,5.3-7.1,8.1c-14.4,17.4-31.1,31.8-53.2,38.8
			c-19.8,6.2-38.7,3.4-57-5.7c-5.1-2.5-10.3-4.6-15.7-6.4c-2.1-0.7-4.1-1.2-6.3-0.5c-5.9-5.7-10.2-2.5-15.5,1.7
			c-20.1,16-43.2,26.6-67.1,35.6c-14.6,5.5-29.6,9.9-44.8,13.6c-8.1,1-16,3-23.9,4.8c-8.6,1.7-17.2,3.5-26,3.4
			c-18.3,0.2-36.5,2.6-54.8,1.8c-17.9-0.8-35.8-1.1-53.6-3.5c-13.6-1.9-27.2-4.1-40.8-6.2c-7.7-0.8-15.1-3.8-22.9-4.2
			c-11.9-2.4-23.3-6.6-34.7-10.6c-15.8-5.5-31.2-12.3-45.9-20.4c-2.3-1.3-5.5-1.9-6-5.3c0.7,0,1.5-0.2,2,0.1
			c14.7,8.9,31.8,9.8,48,13.6c15.9,3.7,32.1,6.6,48.3,8.9c10.5,1.5,21,2.6,31.6,3.5c20.2,1.9,40.4,3.4,60.6,2.6
			c17.8-0.7,35.6-2.1,53.3-5.3c17.9-3.3,35.1-8.4,51.9-15.3c4.6-1.9,9-4.2,13.5-6.3c0.8-0.4,1.5-0.9,1.5-1.8
			c-0.1-1.1-1.1-0.9-1.9-1.2c-15.6-4.8-29.6-12.6-42.4-22.4c-2.9-2.2-6.5-3.4-8.1-7c-2.3,0.7-1.4,3.5-3.2,4.3
			c-1.5-1.8-0.9-3.8-0.4-5.7c0.9-3.7,0.9-7.6,1.7-11.3c2.3-2.9,3.8-0.5,5.2,0.9c10.1,10.7,21.3,20.1,33.5,28.3
			c7.9,5.3,16,10.2,25.6,11.8c0.7,0.1,1.3,0.3,2,0.4c1.6,0.1,3.7,0.5,4.6-1.1c0.8-1.3-1.2-2.1-1.8-3.3c-0.3-0.6-0.5-1.2-0.5-1.9
			c7.4-3.3,13-9,18.8-14.3c22.2-20.3,37.2-45,45.8-73.9c2.6-8.9,4.4-18,6.4-27c0.3-1.2,2.1-4.1-1.8-4c-0.5-0.5-0.8-1.3-0.3-1.8
			C798.4,689.8,798.4,685.9,798,682z" fill="#FEB091"></path>
		<path d="M839.9,558.1c5.9-2.7,9.8-7.9,13.8-12.6c10.9-12.8,20.2-26.6,25.9-42.7c6.3-17.6,7.4-35.5,5.5-53.9
			c-1.5-14-3.7-27.9-8.3-41.3c-7.4-21.8-18.5-41.3-34.1-58.4c-20.7-22.6-46.1-38-74.3-49.1c-8.9-3.5-17.8-7.2-27.5-8.3
			c-1.3-0.2-3-0.4-4-1.8c14.4,1.4,28.3,5.3,42.1,9.1c15,4.2,29.3,10.4,43.8,16.1c6.7,1.3,12.1,5.3,17.9,8.4
			c11.7,6.4,22.7,13.8,33.4,21.7c1.5,1.1,3.1,2,3.9,3.7c0.3,2,1.6,3.4,3.2,4.6c1.9,1.6,3.5,3.4,5.4,5.1c3.8,3.6,7.3,7.5,10.7,11.5
			c13.3,14.6,24.1,31,34.3,47.8c16.5,27.2,28.7,56.3,37.4,86.9c6.1,21.7,10,43.8,12.2,66.2c1.2,11.9,1.9,24,1.7,35.9
			c-0.4,19.9-0.7,39.9-4.4,59.7c-0.6,3.1,0.3,6.3-0.6,9.4c-1.8,1.1-3.1,0-4.6-0.7c-12.2-6-24.7-10.5-38.5-10c-3.6,0.1-6-1.5-7.6-4.6
			c-0.9-1.6-1.6-3.3-2.7-4.7c-17-31-41-56.2-66.4-80.3c-5-4.8-10.3-9.4-15.7-13.8C841.3,560.9,839.5,560.2,839.9,558.1z" fill="#C21228"></path>
		<path d="M1066.9,543.8c-21.7-3.9-42.8-2.2-63.2,6.4c-7.3,3.1-7.3,2.9-9.7-4.3c-2.8-5.3-2.8-11.2-4-16.8
			c-10.2-47.7-29-91.6-58-131c-2.1-2.8-4.3-5.5-6.6-8.2c-1.2-1.4-2.6-2.7-1.9-4.8c10.6-14.2,14.5-31.1,18.7-47.9
			c1.7-6.6,2-13.4,0.5-20.2c-1.7-7.8-5.9-14-11.9-19c-7.9-6.5-17.1-10.8-26.5-14.7c-1.7-1-3.6-1.7-5.5-2.4c-0.5-0.2-1-0.5-1.4-0.8
			c-0.8-0.8-2-1.6-1.2-2.9c0.7-1.1,2-1,3.2-0.7c6,1.4,12,2.8,18,4c12.3,2.6,24.8,4.9,37.3,6.2c2.4,0.3,4.4,1.4,6.5,2.4
			c12.4,13.4,23.2,28.1,33.6,43.2c25,36.4,44.1,75.8,58.2,117.6c7.9,23.6,13.9,47.7,17.8,72.3c-0.6,3.1,0.1,6.3-0.8,9.3
			c-0.1,0.5-0.2,1-0.3,1.5C1068.7,536.6,1069.4,540.6,1066.9,543.8z" fill="#AA0A1E"></path>
		<path d="M904,282.1c13.2,4.7,25.8,10.6,34.6,22.2c6.2,8.1,7.4,17.6,6,27.4c-2.1,15-7.4,29.1-13,43.1
			c-1.6,4.1-3.3,8.3-7.7,10.5c-1.6,0.3-2.6-0.6-3.4-1.7c-3.5-4.9-8.1-8.8-12-13.3c-7.7-9-16.9-16.5-26-23.9
			c-14.5-11.7-30.1-22-46.7-30.5c-1.3-0.7-2.8-1.2-3.5-2.7c-13.6-7.7-28.3-13-43-18c-15.7-5.3-32-8.4-48.1-12.1
			c-0.7-2.2,0.6-3.9,1.7-5.5c9.3-15,18.3-30.2,27.7-45.1c3-4.7,4.2-5.1,8.8-2.6c29.3,16,59.8,29.3,91.9,38.6c5.8,2.4,12.2,3,18.2,5
			c0.5,0.2,0.8,0.6,1,1.1c0,0.5-0.2,1-0.6,1.3c-7,1.3-13.4-1.7-19.9-3.5c-6.1-1.6-12-3.8-18.1-5.3c6.9,2.8,13.1,7,20.7,8.4
			c4.5,0.9,9.2,1.8,13.7,2.1c4.6,0.3,8.8,0.9,12.9,2.7l0,0C900.4,281.3,902.4,281.2,904,282.1z" fill="#CE1335"></path>
		<path d="M170.5,743.5c11.8-1.7,22.5-3.3,32.2-8.3c17.2-8.8,23.7-25.4,17.3-43.7c-1.9-5.4-4.3-10.4-6.9-15.5
			c-0.4-0.8-1.3-1.7-0.3-2.6c0.7-0.6,1.6,0,2.4,0c11.9,0.6,21.7,6.9,31.8,12.2c27.7,14.5,55.3,29.2,82.9,43.8
			c5.7,3,6.9,6.8,3.4,12.4c-12.6,20.2-25.2,40.3-37.8,60.5c-1.3,2.1-2.4,2.8-4.7,1.6c-39.3-19.5-78.6-39-117.9-58.5
			C172.3,745.1,171.9,744.6,170.5,743.5z" fill="#DB2345"></path>
		<path d="M661.2,869.1c8.7,0,17.1-2.4,25.7-3.2c8.1-1.4,16.1-2.8,24-5c33.6-8.4,65.9-20,95.6-38.1
			c6.1-3.7,12-7.8,17.5-12.4c7.6-6.5,8.1-6.5,13.8,0.9c2.4,1.2,3.4,3.6,4.9,5.6c15.8,22.2,40.1,27.7,64.2,19.3
			c15.9-5.5,29.5-14.6,41.6-26c7.3-6.9,14.2-14.1,20-22.2c1-1.5,2-3.2,4.2-3c3.3-0.2,3-3.6,4.7-5.2c1.9-1.8,4.8-1.7,5.5,0.3
			c1.4,2.2-0.3,3.8-1.2,5.4c-2.7,4.5-5.8,8.9-9.4,12.8c-3.1,3.5-3.2,6.6-0.9,10.2c1.1,1.8,2,3.8,2.9,5.8c0.6,1.4,1.8,2.9,0.6,4.6
			c-2,2.7-0.3,6.4-2.3,9.2c-4.1-2.3-4.6-7-7-10.4c-0.8-1.1-1.3-2.3-1.8-3.6c-1.1-3.3-2.8-3.3-5-0.9c-2.9,3.2-6.2,6-9.6,8.7
			c-2.8,2.2-3.3,4.3-1.2,7.6c4.1,6.6,8.5,13.1,11.5,20.4c0.2,0.4,0.3,0.9,0.5,1.3c0.7,4.5,5,7.6,4.7,12.5c-1.7,3.5-3.8,4.2-6.5,1
			c-3.7-4.1-5-9.6-8.3-14c-3.2-5.4-6.3-10.9-9.5-16.3c-1.6-2.6-2.9-3.5-5.8-1.6c-5.4,3.5-10.9,6.9-17,9.2c-2.8,1.1-3,2.7-1.3,4.9
			c4.2,5.8,8.3,11.6,11.6,17.9c6.4,10.1,11.4,21,15.6,32.2c0.8,2.1,2,4.3,0.5,6.7c-0.3,1.8,0.3,3.5,0.6,5.3c0.5,2.7,1,5.6-2.3,7.1
			c-1.2-1.5,1-4.7-2.5-5.1c-4.5-13.4-9.9-26.5-16.9-38.8c-1.2-2.1-2.7-4.1-4.1-6.1c-4.4-4.4-7.2-10-11-14.8
			c-2.2-2.8-4.5-3.9-8.1-3.2c-10.6,1.8-21.2,2.4-31.6-1c-16.4-5.3-28-16.3-37-30.4c-3.5-3.2-3.6,1.5-5.4,2.3c-2,1.9-4.1,3.6-6.6,5
			c-6.7,3.7-12.9,8.3-19.7,11.9c-0.4,0.2-0.8,0.5-1.3,0.7c-6.1,3.4-12.5,6.4-18.7,9.7c-26.5,12.5-54.5,20.5-83.1,26.3
			c-13.1,2.7-26.2,4.5-39.5,5.6c-5.5,0.5-9.2,3-12.4,7.2c-10.4,14-18.5,29.2-24.1,45.7c-6,17.8-8.5,36.2-9.6,54.9
			c-0.5,7.5,0.1,14.8,1.1,22.2c-0.2,5.6,1.8,10.8,2.7,16.2c0.7,4.4-1.3,6.4-5.6,5c-34.9-11.4-66.1-28.6-90.7-56.5
			c-17.1-19.4-28.7-41.8-35.4-66.7c-1.6-5.9-2.7-12-4-18c-2.2-7-3.4-14.1-3.3-21.5c0.1-4.1-2.8-5.3-6-6.2
			c-17.3-5.1-34-11.6-50.3-19.3c-13.4-6.3-26.3-13.6-38.1-22.7c-3.2-2.5-5.2-2.2-8,0.5c-4.1,4-6.9,9.4-12.4,12.1
			c-16.8,19-31.4,39.4-39.1,64c-4.3,13.9-5.7,27.9-0.9,42c1.5,4.4,4.6,7.9,6.8,11.9c0.8,1.5,2.5,2.8,1.3,4.9c0,0.3-0.1,0.7,0.1,1
			c1.3,2-0.1,3.6-1.3,4.7c-1.3,1.2-1.2-2.4-3-1.5c-2.5,0.3-3.3-1.7-4.4-3.3c-3.3-4.9-5.7-10.3-7.5-15.9c-5.8-17.8-3.3-35.3,3-52.3
			c8.4-22.4,21.7-41.9,37.7-59.6c4.5-5.1,8.9-10.4,13.6-15.3c1.8-1.9,1.7-3.4-0.1-5.1c-0.2-0.2-0.5-0.5-0.7-0.7
			c-8.5-9.1-8.5-9.1-18.3-1.7c-2.9,2.2-5.7,4.6-8.6,6.8c-5.1,4.1-9.7,8.8-15,12.7c-1.4,1.1-2.8,2.4-4.7,2.5
			c-0.8,0.1-1.8,0.5-2.3,0.2c-0.7-0.4,0-1.2,0.4-1.6c1.4-1.3,2.8-2.7,4.3-3.9c2.3-2,3-3.6-0.9-4.2c0.6-2.1,3.9-0.9,3.5-3.6
			c0.3-4.3,4.3-5.2,6.8-7.6c5.5-4.6,10.9-9.2,16.8-13.2c2.6-1.8,3-3.6,1.2-6.2c-2.7-3.8-5.1-7.8-7.1-12c-0.8-1.7-2.2-3.5-0.8-5.6
			c1.4-3.2,1.6-6.6,0.9-11c1.8,1.9,0.5,4.8,3.3,4.6c0.1,0.2,0.3,0.4,0.4,0.6c1.1,5.3,3.3,10.1,6.7,14.4
			c11.5,17.7,26.6,31.6,44.5,42.7c1.4,0.9,2.9,1.6,4.3,2.4c11.5,7.7,24.1,13.2,36.9,18.5c16,6.6,32.4,12.1,49.1,16.5
			c7.9,1.3,15.6,4,23.7,4.6c6.2,1.9,12.7,2.7,19,3.6c30.4,4.7,61,7,91.8,6.1C635.4,871.1,648.3,870.4,661.2,869.1z" fill="#4C0F00"></path>
		<path d="M606,1076.8c20.3-4.6,39.6-11.7,58-21.4c17.1-9.1,32-20.6,41.8-37.8c4.6-8.1,7.1-16.8,8.3-26.2
			c1.6-12.7,0.1-24.7-4.2-36.5c8.5,6.7,16.8,13.6,25.4,20.1c23.9,18.1,49.9,32.3,78.6,41.3c1.2,0.4,3,0.6,3.2,2
			c0.3,1.8-1.7,2.2-2.8,3c-24.4,17.4-51.8,28.2-80.3,36.7c-25.3,7.6-51.2,12.7-77.5,15.7C639.9,1075.5,623,1077.2,606,1076.8z" fill="#C21228"></path>
		<path d="M187.2,514c-10.6-10.7-16.1-23.8-17.7-38.6c0-0.6,1.6,1.1,0.9-0.6c-0.3-0.7-0.3-1.6-0.3-2.4
			c1-27.7,19.3-58.6,53.8-66.5c2.7-0.4,5.4-1,8.1-1.6c2.9-0.7,6-0.7,8.9-0.7c2.1,0,0.4-1.6,1.3-1.8c4.3-0.3,8.1,1.8,12.1,2.8
			c19.7,16.1,29.5,36.8,27.8,62.3c-0.5,7.2-1.3,14.9-6.8,20.8c-3,0.1-4.2-2.3-5.7-4.2c-11-14.1-13-29.8-8.8-46.8
			c0.5-2.2,2.8-5.3,0-6.8c-2.9-1.6-4.6,1.8-6.3,3.7c-13.9,14.7-31.1,17.4-50,14.2c-2.5-0.4-4.8-1.2-7.4-1.4c-1-0.1-2.1,0-2.6,1
			c-0.7,1.3,0.2,2.2,1.1,3c2.5,2,5,3.9,7.6,5.7c6.1,4.4,10.5,10.1,13.9,16.8c2.2,7.5,1.7,15.1,0.1,22.6c-1.5,4.8-3.3,9.4-5.2,14
			c-0.6,1.5-1.7,3.2,0.1,4.5c1.7,1.2,3.1-0.2,4.4-1.3c6.7-6.1,13.9-11.2,22.2-15c7.4-3.4,14.9-4.2,22.8-3.1c2.4,0.8,5.9,0.3,6.9,3.2
			c1,3.3-2.1,5-4.1,6.8c-11.1,10.1-24.3,15.4-39.3,16.2c-10,0.6-19.9,0.2-29.6-2.7C192.3,516.9,189.5,516,187.2,514z" fill="#FEB23C"></path>
		<path d="M899,280.1c-13-1.6-26.2-2-38.6-7c-1.5-0.6-3.5-0.9-4-2.6c-0.6-1.9-1.2-1.5-2.8-0.9
			c-1.7,0.6-3.6-0.3-4.9-1.6c-0.7-0.6-0.4-1.6,0.4-2.1c1.7-1.1,3.3-0.6,5.2,0c11.9,3.6,23.4,8.6,36,9.2c1.7-1.5,3.5-1,5.6-0.3
			c-2.3-1.5-4.7-2.1-7.1-2.4c-7.4-2.9-14.6-6.4-21.9-9.6c-19.1-8.5-38.1-17.4-56-28.3c-6.3-3.8-12.4-7.9-17.2-13.5
			c-3.7-4.3-3.8-7.3-0.7-11.5c9.7-5.4,20.4-7.8,31-10.5c2.4,0,4.6-0.9,6.9-1.1c3.8-0.2,7.7-0.2,11.4-1.7c5.5-0.7,10.8-0.7,15.7,2.5
			c36.9,24,70,52.3,99.3,85.3c1.4,1.6,2.7,3.4,4,5.1c-21.6-2.5-43-6.4-64.3-11.9C896.5,279.1,898.6,278.9,899,280.1z" fill="#CE1335"></path>
		<path d="M296,967.2c0-0.8,0.1-1.6,0.1-2.4c2.8,2.4,6.1,2.9,9.7,2.9c37.1,0,74.3-0.4,111.4-1.5
			c4.9-0.1,5.3,1.2,3.5,5c-1.3,2.8-2.4,5.8-3.6,8.8c-1.2,1.8-1.4,4-2,6c-5.1,14.7-7,30-9,45.4c-0.5,3.6-1.4,4-4.6,2.5
			c-37.8-17.5-72.8-39.4-104.9-65.8C296.3,967.8,296.1,967.5,296,967.2z" fill="#FEFEFE"></path>
		<path d="M319.9,826c6.4-5.3,12.8-10.7,19.2-16c2.1-1.2,3.4,0,4.6,1.4c3.3,3.7,6.8,7.2,10.5,10.5
			c1.7,1.6,2.6,3,0.8,5c-11.4,13.6-22.2,27.7-30.4,43.6c-11.2,21.7-17.2,44.1-10.6,68.6c-1,3.2-3.7,2.4-5.7,2
			c-6.7-1.2-13.4-2.1-20-3.2c-3.6-0.6-6-2.4-7.4-5.7c-7.2-14.8-7.1-30.1-2.3-45.5c6.8-21.9,20.9-39,36.4-55.2
			C316.7,829.7,319,828.4,319.9,826z" fill="#FEB23C"></path>
		<path d="M299,415c22-8.9,44.4-10.5,67.3-4.1c13,3.6,24.6,9.8,35.4,17.8c2.3,1.7,2.4,3.1,1.3,5.4
			c-5.3,11.5-9.7,23.3-13.3,35.4c-0.6,2-1.4,3.9-4.2,2.2c-7.6-4.6-16.2-6.8-24.5-9.7c-10.6-2.4-21.3-3.7-32.2-1.6
			c-5.6,1.1-7,0.1-8.7-5.3c-4.3-13.1-11.1-24.8-20.5-34.9C298.2,418.6,296.2,417.1,299,415z" fill="#C50A2D"></path>
		<path d="M1045.9,549c8.4-0.3,17,0.8,25.6,3c1.8,0.5,3.3,0.9,3.3,3c0.6,15.2,3.5,30.4,1,45.7
			c-0.8,4.8-2.4,5-6.7,3.8c-22.5-6-44.4-3.7-65.4,6.3c-4.1,1.9-4.8,0.8-4.7-3.2c0.3-14.3-0.1-28.6-2-42.8c-0.4-3.1,1.2-4.5,3.7-5.6
			C1014.8,552.4,1029.6,548.5,1045.9,549z" fill="#AF051A"></path>
		<path d="M925,654.9c0.4,0.3,1,0.6,1.1,1c2.3,7.8,8.2,8.1,15.2,8.4c12.1,0.4,23.3,4.8,33.9,10.5
			c0.9,0.5,1.8,0.8,2.6,1.2c0.4,0.5,0.4,0.9-0.1,1.3c-2.1,1.1-3.8-0.2-5.6-1.1c-10-5.2-20.8-7.6-31.8-9.6c-3.5-0.7-7.3-0.9-10.5,1.7
			c-1.2,1-2.8,1.1-4.3,0.8c-7.4-1.5-14,1.5-20.6,4c-1.6,0.6-3.2,1.3-2.7,3.5c-0.1,3.1-3.3,3.3-4.7,5.1c-11.2,7.2-21.7,15.2-31,24.8
			c-10.8,11.1-20.2,23.3-28.6,36.3c-1.1,1.6-1.7,3.7-4,4c-3.5,0.5-5.8-0.6-4.8-4.6c2.8-10.9,2.8-22.1,2.5-33.2
			c-1.4-44.6-14.3-86-35.4-125c-2.1-3.8-4.8-6.5-8.6-8.7c-17.7-10-35.9-18.8-55-25.9c-0.8-0.3-1.6-0.3-2.4-0.5
			c-22.7-7.6-45.6-14.2-69.2-18.6c-2.5-1.3-5.4-0.7-8-1.4c-1.5-0.4-3.3,0.2-4.2-1.6c2.6-2.7,5.9-1.7,8.9-1.2
			c17.2,3,34.2,6.9,50.9,12c23.9,7.4,47,16.6,69.1,28.4c3.7,2,7,4.5,10.8,6.2c1.5,0.7,2.9,1.6,4.6,0.7c-6-2.6-11.3-6.7-17.3-9.4
			c-10.1-4.5-20.2-9.1-30.5-13.4c-10.5-4.3-20.9-8.6-31.6-11.9c-18.9-5.8-38-10.6-57.6-13.7c-12.5-2-24.9-3.5-37.4-5.1
			c-3.4-0.9-6.8-0.4-10.2-0.4c-19.5-1.9-39.1-0.5-58.7-1c-3.7-0.1-7.2,0.9-10.9,0.9c-3.2-0.1-6.5-0.5-9.7,0.5
			c-24.3,2.3-48.3,6.5-72,12c-8.7,1.2-16.7,4.5-24.8,7.6c-11.7,4.5-22.9,10-34,15.9c-4,2.1-7.7,4.5-10.9,7.7
			c-1.7,1.7-3.7,3.4-5.2-0.2c-1.1-6.9-0.4-13.8-0.4-20.7c0-7.7-0.7-15.5,0.4-23.2c0.9-2.3,3.8-2.2,5-4c10.2-8.6,22.7-12.9,34.4-18.8
			c9-4.5,18.6-7.9,28-11.6c2.7-1.1,5.5-2.6,8.6-0.9c0,3.3-3,3.2-4.9,3.9c-19.4,6.9-37.9,15.8-56.2,25.3c-1.3,0.7-2.6,1.5-4,2
			c-5.9,2.5-8.8,6.7-7.5,13.2c0,9.2,0,18.4,0,27.6c0,2.6-0.4,4.9,3.5,2.4c19.3-12.4,40.3-21.3,62.2-28.1c24.4-7.6,49.6-11.7,75-14.2
			c19.9-1.9,39.8-2.9,59.8-2.2c54.8,1.9,108.2,11,159.3,31.8c35.5,14.4,67.9,33.8,97,58.8c20.7,17.7,38.8,37.9,54.3,60.4
			c3.7,5.3,3.7,5.3,9.8,3.2c3.1-1.1,6.3-2.3,9.6-2.9c2.6-0.4,4.3-1.7,4.6-4.4C924.5,660.6,924.6,657.7,925,654.9z" fill="#4D1000"></path>
		<path d="M994,661.1c2.3-8,2.8-16.3,3.9-24.4c0.5-3.9,0.4-7.9,0.9-11.9c0.4-3.3,1.8-5,4.5-6.4
			c15.2-7.6,31.3-10.9,48.2-10.3c1.2,0,2.3,0,3.5,0c0.7-0.6,1.3-0.5,1.9,0.1c0,0.2,0,0.4,0,0.7c-5.1,1.3-6.2,5.6-7.5,9.8
			c-9.3,29.4-20,58.2-34,85.7c-2.6,5-5.3,10-8.1,14.9c-1,1.7-1.6,4.2-4.5,3.6c-1.6-3-1.3-6.5-1.8-9.7c-1.3-8.9-4.7-16.9-10.3-23.9
			c-2.4-3.1-3.2-6-1.8-9.6C991.1,673.6,990.8,666.9,994,661.1z" fill="#AA0A1E"></path>
		<path d="M998.9,758.9c15.8-14.6,26.1-33,35-52.1c13.7-29.3,22.7-60.2,30.8-91.4c0.4-1.6-0.4-5,2.8-4.1
			c3,0.9,7.5,0,7.9,5.2c0.4,5.8,0.9,11.6,0.5,17.4c-2.6,33.7-8.2,66.9-17.7,99.4c-1.1,3.6-2.7,5.8-6.5,7.2
			c-14,5.2-27.8,10.9-41.7,16.4c-2.5,1.1-5.2,1.7-7.6,2.9C1001.1,760.5,999.4,761.5,998.9,758.9z" fill="#FEFEFE"></path>
		<path d="M558,303c-16.6,7.2-32.9,15.2-47.9,25.5c-18.8,12.8-35.9,27.5-50.6,44.9c-2.2,2.6-3.2,4.1,1.7,5
			c4.4,0.8,5.7,5.2,6,9.4c0.8,12.5-4.4,23-11.2,32.8c-3,4.4-6.7,8.3-11.2,11.3c-9.1,6.1-14.6,4.9-20-5.2
			c-12,24.4-20.1,49.5-25.6,75.5c-0.4,3.1-2.6,3.7-5.2,3.7c-2.1,0-3.7,2.8-5.4,1.7c-1.7-1-0.6-3.4-0.2-5.1
			c8.2-41.1,23.3-79.4,48-113.5c28.8-39.8,66.5-68,112.7-84.9c2-0.6,4.2-0.8,6-2l0,0C556.2,301.7,557.7,300.7,558,303z" fill="#ED90A1"></path>
		<path d="M187.2,514c9.6,3.3,19.5,5.7,29.6,5.7c18.1,0,34.8-4.4,48-17.9c1.1-1.1,3.3-2.1,2.8-3.8
			c-0.6-2-2.9-1.7-4.7-2c-0.6-0.1-1.2-0.5-1.7-0.8c2.2-2.1,4.6-1.1,7-0.5c2.5,0.7,5,1.7,7.5,2.3c1.1,0.3,2.3,0.4,3.1-0.8
			c0.8-1.1,0.2-2.2-0.4-3.2c-1.1-2-3.6-3.1-3.5-5.7c9.7-20.1,8.1-39.8-2.4-59c-4.8-8.8-10.5-16.8-18.3-23.2c0.6-0.6,1.2-0.5,1.8-0.1
			c10.2,4.3,19.9,9.2,27.7,17.4c32.7,34.5,21.3,91.5-24.1,108.6c-25.5,9.6-49.1,4.6-69.6-13.6C189,516.4,188.1,515.1,187.2,514z" fill="#C77900"></path>
		<path d="M978.1,676.9c-0.1-0.3-0.2-0.6-0.4-0.9c-1.4-3-1-6.2-0.5-9.3c2-12.4,3.3-24.9,3.7-37.5
			c0.2-8.5,1.2-16.9,0.9-25.4c-1-29.7-3.9-59.1-11.3-88c-7.2-28.5-17.4-55.8-31.1-81.6c-12.2-22.9-26.6-44.4-43.4-64.2
			c-1-1.6-2.4-3.3,1.1-3.5c4.9,1.9,7.9,6.1,11.2,9.7c27.7,29.9,48,64.4,62.4,102.5c7.7,20.3,13.3,41.1,17.1,62.5
			c0.3,1.9,1.1,3.9,0.1,5.8c1.6,13.2,3.4,26.3,4.1,39.6c1.2,23.8,0.2,47.5-4,70.9c-0.1,0.8,0,1.7-0.1,2.5c1.1,6.4-1.4,12.2-3.3,18.1
			C983.6,680.8,981.2,680.3,978.1,676.9z" fill="#D24B5F"></path>
		<path d="M987.9,547c-3.5-17.1-7-34.1-12.4-50.7c-15.3-47.2-38.8-89.5-73.9-125c-1.5-1.5-3.2-2.8-4.9-4.2
			c-3.2-2.1-6.1-4.6-8.8-7.3c-2.6-2.5-5.1-5.1-8-7.1c-0.7-0.8-1.6-1.6-2.2-2.6c-9.5-8.4-20.1-15.2-31-21.6
			c-7.9-4.6-15.9-8.9-23.9-13.3c-3.5-3.8-8.5-5-12.9-6.8c-9.7-4-19.5-7.6-29.5-10.8c-7.6-2.4-15.8-3.2-23.3-5.7
			c-7.3-2.4-14.9-2.7-22.4-4c-6.2-1.2-12.6-2.4-19-2.9c-22.2-1.9-44.5-2.5-66.7-1.7c-12,0.5-24.2,0.4-36,3.5c-1.9,0.5-4,0.3-6,0.3
			c-1.1,0-2.8,0.4-2.7-1.3c0.1-1.6,1.9-2,3.1-1.5c2.8,1.2,5.5,0.1,8.3-0.1c13.8-0.8,27.6-3.3,41.5-2.1c2.5,0.2,5,0.1,7.2-1.3
			c1.5-0.9,3.4-1.1,4.9-0.6c10.2,3.7,20.7,1,31,1.9c8,0.7,15.9,1.7,23.9,2.7c3.2,0.4,6.9,1.7,6-4.6c2.5,6.5,8.8,4.8,12.7,5.3
			c12.2,1.6,23.8,5,35.5,8c16.2,4.2,31.7,10.4,46.8,17.6c2.1,1,4.2,2,6.6,1.9c13.3,5.5,25.1,13.5,36.9,21.7
			c19.7,13.7,37.3,29.9,52.6,48.5c0.6,0.8,1.5,1.4,2.2,2c7,9.6,14.4,19,20.9,29c18.6,29,32.3,60.2,41.3,93.4
			c3.4,12.6,6.9,25.2,8,38.4c0.7,4.5-1.1,8.5-2.9,12.9C988.4,555.1,991.8,550,987.9,547z" fill="#4B1000"></path>
		<path d="M258,670.9c18.5-11,22.3-28.7,22.2-48.6c16.5,21.6,33.6,42.4,48.8,64.8c0.3,5.6-1.9,10.7-4,15.7
			c-1.4,3.4-4.4,2.3-6.9,1.1c-6.3-3.1-12.7-5.8-18.9-9c-12.6-6.4-25.4-12.3-38.1-18.6C259.2,675.3,255.2,674.9,258,670.9z" fill="#DB2345"></path>
		<path d="M329.1,953.8c-2.6-5.7-7.2-10.3-8-16.8c1.9,4.6,5.6,4.7,10,5.2c11.9,1.2,23.9,1,35.8,0.7
			c21.1-0.6,41.8-3.9,61.3-12.6c6.9-3.1,13.3-7.5,19.9-11.3c-7,12.6-15,24.7-21,37.8c-0.8,1.8-2.2,2.2-4,2.3
			c-8.1,0.5-16.2,0.9-24.4,0.9c-16.9-0.1-33.9-0.2-50.8,1C340.3,961.4,333.8,960.3,329.1,953.8z" fill="#C21228"></path>
		<path d="M215.7,704.9c-0.3,12.8-7.1,19.9-17.1,24.6c-10.9,5.1-22.6,6.6-34.5,7.3c-2.9,0.2-3.5-0.7-2.2-3.5
			c10.8-22.3,21.6-44.6,32.3-66.9c0.8-1.6,1.7-4,3.7-1.2C206.8,677.5,214.5,690.3,215.7,704.9z" fill="#FEB23C"></path>
		<path d="M793,210.2c-2.9,4-0.8,7.2,1.8,10.2c6.2,6.9,14.1,11.5,22,16.1c20.3,11.6,41.6,21.4,63.2,30.4
			c3,1.3,5.3,4,8.9,4.1c1.5,1.1,3.6,1,5.3,2.5c-1.4,1.4-2.8,1.2-4.3,0.5l0,0c-6.3-1.8-12.8-3.1-19.1-4.9
			c-17.4-4.1-33.8-10.8-50.2-17.7c-14.8-6.3-29.3-13.4-43.3-21.4c-2.5-1.4-3.8-1-5.2,1.4c-10.4,17.2-20.8,34.4-31.3,51.5
			c-1.3,0-2.7,0-4-0.2c-3.1-0.4-3.5-1.7-1.9-4.4c10.7-17.6,21.3-35.3,32.1-52.8c2.5-4.1,6.2-7.3,10.6-9.6c4.7-2.2,8.6-5.8,13.5-7.7
			c0.9-0.3,1.8-1.1,2.6,0C794.4,209.1,793.5,209.6,793,210.2z" fill="#E68899"></path>
		<path d="M975,818.9c-1.8-3.9-3.4-7.9-5.5-11.6c-1.8-3.2-1.6-5.4,0.8-8.4c4.7-5.9,10-11.5,12.7-18.8
			c3.8-7.9,12-9.3,19-12.1c15.9-6.5,32-12.7,47.9-19c-1.2,4.9-4.7,8.5-6.8,12.9c-2.2,4.5-5,8.6-7.2,13c-2.3,4.5-2.3,4.5,2.8,6
			c0.8,0.2,1.6,0.5,2.2,1.1c-3.5,10.2-3.5,10.2-14.1,10c-13.3-0.3-26.4-2.1-39.7-2.1c-4.5,0-6.2,1.3-6.1,6c0.3,10.4,0.1,20.9,0.1,32
			C977.5,825.2,977.4,821.2,975,818.9z" fill="#C5142B"></path>
		<path d="M990.8,872.9c-0.2,0.8-0.6,1.9-1.5,1c-0.5-0.6-0.2-1.9-0.3-2.9c-0.4-23-0.7-45.9-1.2-68.9
			c-0.1-4.2,1.1-5.6,5.3-5.3c12.3,0.9,24.6,1.5,36.8,2.1c4.8,0.2,2.4,2.8,1.5,4.7c-7.2,15-15,29.7-23.7,43.9
			c-5,8.1-9.9,16.2-15.8,23.6c-1.3-1.1-1.1-2.7-1.1-4.2c0.3-21-0.7-41.9-0.5-62.9c0-5.1,0.9-5.9,5.9-4.7c4.9,1.2,9.9,0.9,14.9,1
			c3.4,0,6.7,0,8.7,0c-7.6-0.5-16.7,0.9-25.6-1.4c-3.5-0.9-4,1.5-4,4.5c-0.2,17.5,0.8,34.9,0.6,52.4
			C990.9,861.6,991.1,867.2,990.8,872.9z" fill="#DB2345"></path>
		<path d="M378.1,669.1c-3.2,13-12.6,23.1-17.3,35.3c-5.6,14.3-10.2,28.7-10.8,44.2c-0.2,4.3-1.2,8.5-0.9,12.9
			c0.1,1.6-0.5,2.1-2,1.6c-0.6-0.2-0.7-0.7-0.9-1.1c0,0,0,0,0,0c-0.9-3.3-1.3-6.8-2.9-10c-1.3-4.2-1.8-8.5-1.6-12.8
			c2-2.7,0.8-6,1.6-8.9c0.2-0.6-1.9,0.3-1.6-1.3c-0.1-4.7,0.4-9.4,1.6-13.9c4.6-16.5,11.7-31.7,22.2-45.2
			c9.2-11.8,19.8-22,33.6-28.2c5.5-2.5,8.1-6.5,9.8-12.1c5.6-17.9,13-35.1,23.9-50.6c2.7-3.5,5.2-7.1,7.2-11.1
			c0.6-1,1.2-1.9,1.8-2.9c1.1-0.4,2.3-0.9,2.2,1.1c-14.2,21.2-25,43.9-32.3,68.4c-0.8,2.7-2.1,4.9-4.4,7c-6.7,6-12.9,12.3-19.4,18.6
			C385.3,663.6,382.1,666.8,378.1,669.1z" fill="#FEE2D6"></path>
		<path d="M950.9,849.8c2.6,4.7,5.3,9.4,7.9,14.1c1.9,3,4.4,5.7,5,9.4c0,0.2-0.1,0.4-0.1,0.7
			c2.6,6.4,5.3,12.9,7.9,19.3c1,2.5,1.1,4.5-0.9,6.8c-6.7,7.5-13.2,15.3-20.2,23.6c-3-7.1-3.3-14.1-6.5-20.1
			c-3.1-12.1-8.7-23.1-14.6-34c-0.9-1.6-1.7-3.2-2.5-4.8c-1.4-2.6,0.2-4,2.2-5.1c5.6-2.8,11-6,16.2-9.5
			C947.1,849,949,848.6,950.9,849.8z" fill="#FEB23C"></path>
		<path d="M126.5,543.1c0.6-4.9,1.2-9.9,1.8-14.8c0.5-4.2,1.5-8.1,4.8-11.1c2.2-2,2.8-4.3-0.1-6.7
			c-2.4-2-0.7-4.6-0.3-6.9c0.4-2.1,0.4-4.3,1.9-6.4c9.9,6.5,15.5,16,19.3,26.8c3,11.4,2.5,22.4-3,33c-5.5,10-12.9,18-23.4,23.1
			c-3.3,1.6-4.6,1.3-4-2.7c0.4-3,0.5-6,0.4-9c-0.1-3.5,0.6-5.2,4.4-2.8c1.2,0.8,2.6,1.8,4.2,1c3-1.5,3.1-3.7,1.1-6.1
			c-2.4-2.9-5-5.8-6.5-9.4C127.2,548.4,126.5,545.8,126.5,543.1z" fill="#FEB23C"></path>
		<path d="M972.7,784.9c-9.3,11.8-18.9,23.2-30.7,32.6c-13.8,11-28.7,19.8-46.5,22.9c-23.9,4.1-46.5-7.2-57.7-29.1
			c0.5-2.9,2.2-2,4.1-1.5c9.9,2.6,18.7,7.7,28.1,11.4c18.1,7,35.9,6.3,53.6-1.1c20.8-8.7,36.7-23.5,49.6-41.6
			c2.2-3.1,2.1-3.1,3.9-1.3C975.6,779.7,974.2,782.3,972.7,784.9z" fill="#FEBFA4"></path>
		<path d="M1003,723c10.3-16,18.2-33.2,25.5-50.6c8.1-19.6,15.4-39.6,21.2-60.1c1.3-4.5,4.4-3,7-3.6
			c2.1,1.9,1.3,4.3,0.8,6.5c-8,30.7-17,61.1-30.5,90c-6.9,14.6-14.9,28.6-25.3,41.1c-0.7,0.9-1.3,1.9-2,2.9
			c-1.8-1.9-0.2-3.1-0.7-4.3C999.3,737.5,1000,730,1003,723z" fill="#D4848E"></path>
		<path d="M457,532c10.9-4.2,22.2-6.6,33.8-8.1c4.9-0.6,9.8-1.3,14.6-2.4c7.9-1.8,15.8-1.7,23.6-2.5
			c2.9-1.3,6.1,0.4,9-1c23.7-1.7,47.3-1.6,71,0c3.2,1.4,6.8-0.4,10,1c10.6-0.1,21,1.9,31.4,3.3c11.3,1.5,22.5,4.2,33.6,6.8
			c10.5,2.5,20.8,5.4,31.1,8.7c9.2,3,18.2,6.3,27.2,9.9c12.9,5.2,25.7,10.6,38,17.2c5.4,2.9,10.6,6.1,16.3,9.4
			c-9.4,3-14.6-4.5-21.2-7.6c-16-7.5-31.9-15.3-48.7-21.1c-10.5-3.6-21.1-6.7-31.7-10.3c-4.4-1.5-9.3-2.1-13.9-3.3
			c-7.6-1.9-15.4-3-23-4.7c-3.2-0.7-6.3-0.4-9.4-0.4c-3.3,2-6.2-0.3-9.3-0.8c-21.9-3.1-43.9-4.8-65.9-4.6
			c-15.7,0.2-31.4,0.3-47.1,2.4c-9.3,1.3-18.7,2.5-28.1,3.3c-2.5,0.2-4.9,0.8-7.3,1.4c-2.4,0.2-4.9-0.1-7.3,0.9
			c-1.2,0.4-2.4,0.8-3.6,1.1c-2.4,0.1-4.8,0.4-7,1.4c-2.2-0.1-3.9,1.7-6.1,1.7c-2.1,0.7-2.8,3.2-5.3,3.7c0.5-3.6,4.3-4.3,6.2-7.3
			C464,530.8,460.6,532.7,457,532z" fill="#4B0E01"></path>
		<path d="M272.5,617.4c0.7,15.7,0.9,30.2-10.2,41.7c-8.9,9.3-21,9.9-33,9.5c-4-0.1-7.9-1-11.8-1.7
			c-1.2-0.2-2.9-0.1-3.2-1.8c-0.2-1.3,1.2-1.8,2.1-2.5c13.8-11.2,27.7-22.3,41.6-33.5C262.5,625.4,267,621.8,272.5,617.4z" fill="#FEB23C"></path>
		<path d="M258,670.9c-1.2,2.3,0.5,2.9,2.1,3.6c10.8,5.1,21.6,10.3,32.3,15.5c8.7,4.2,17.3,8.3,25.9,12.7
			c3.8,1.9,5.7,1.5,6.7-2.8c1.1-4.3,2.6-8.5,4-12.8c4,3.5,6.7,8.1,10,12.3c1.3,1.7,1,3.3,0.4,5.2c-1.6,5.1-3.2,10.1-3.5,15.5
			c-0.2,3.3-1.6,4.2-4.9,2.4c-26.4-14.1-52.8-28-79.2-42.1c-2.7-1.4-6.3-1.5-8.3-4.9C248.5,673.9,253.3,672.4,258,670.9z" fill="#C5142B"></path>
		<path d="M460,918.9c-12,25.6-21.9,52-28.5,79.5c-3.2,13.2-5.1,26.7-4.6,40.5c0.1,1.8,0.6,3.7-0.8,5.3
			c-0.8-0.3-1.6-0.5-2.4-0.8c-12.3-4.9-12.2-4.9-9.8-18c4-21.6,9.8-42.6,18.4-62.8c7.1-16.6,16.5-31.8,26.7-46.6
			C461.3,916.3,460.5,917.6,460,918.9z" fill="#ED90A1"></path>
		<path d="M413.1,553.6c12.4-5.6,25-10.6,37.9-15.1c0.8-0.3,1.7-0.8,2.3-0.1c1,1.1-0.1,1.8-0.8,2.5
			c-15.1,16.1-27.2,34.3-37.1,54c-5.4,10.7-10.2,21.6-13.4,33.2c-0.8,2.8-1.6,5.5-5.2,5.9c-0.2-0.4-0.3-0.9-0.2-1.3
			c1.1-2.4,1.1-4.9,1.6-7.4c0.1-0.5,0.3-0.9,0.6-1.4c1.4-6.7,3.9-13.1,3.9-20.1c1.4-10.2,4.6-20,6.5-30.1
			C410.5,566.9,412.6,560.5,413.1,553.6z" fill="#28222E"></path>
		<path d="M1003,723c-1,7.4-1.3,14.9-4,21.9c-2.9,0.1-1.5,2.8-2.4,3.9c-4.5-3.8-0.7-8.8-1.8-13.2
			c0.6-7.3,1.6-14.4,0.5-21.8c-2.5-16.2-11.5-27.1-25.9-34.4c-13.4-6.8-27.5-9.9-42.5-8.5c-2.8,0.3-5.6,0.5-8.2,1.9
			c-1.4,1.7-3.4,1.7-5.3,2.2c-2.1,0.2-4.2,0.4-5.9,1.6c-0.8,0.5-1.7,1-2.7,1.1c-1,0.1-2,0-2.7-0.8c-3.7-1.6-2.7-3.7,0.1-4.6
			c7.8-2.3,15.2-7.3,24.1-4.6c0.7,0.2,2.1,0.2,2.4-0.2c3.1-4.6,8-3.2,11.7-2.5c11.6,2.1,23.2,4.5,33.6,10.5c1.4,0.8,2.6,1.4,4.2,1.2
			c3.6,2.4,5.9,2.5,6.5-2.9c0.5-4.7,2.1-9.3,3.3-14c1.8-0.8,2-2.4,2.1-4.1c0.1-7.3,3.5-14.3,2.9-21.8c0,4.9,0.1,9.8-0.1,14.7
			c-0.1,1.4-0.5,2.6,1.2,3.3c0,3,0,6.1,0,9.1c-0.4,6.8-2.3,13.3-4.2,19.8c-0.6,2.1-1.2,4,0.6,6C999.5,697.2,1002.7,709.6,1003,723z" fill="#4B1000"></path>
		<path d="M394,505.8c1.7-1.2,3.5-2.4,5.2-3.7c13.6-6.1,27-12.7,40.9-18.2c25.9-10.1,52.4-17.8,79.8-22
			c0.8-0.1,1.6-0.4,2.4-0.5c3.7-0.3,5.1-1.6,2.9-5.3c-1.3-2.1-2.1-4.5-2.2-7c2.2-1.4,2.4,0.6,3.1,1.9c-0.1-1,0-1.9,0.5-2.7
			c0.3-0.4,0.8-0.5,1.2-0.5c0.4,0.2,0.7,0.5,1,0.9c1.1,2.3,1.5,4.8,2.8,7c0.4,0.8,0.8,1.6,1.3,2.5c1.5,2.9,3.3,5.7,5,8.5
			c0.9,1.4,2.2,2.6,1.4,4.4c-0.7,0.6-1.5,0.6-2.7,0.1c4,5.2,8.2,9.9,12.8,14c1.5,1.3,3.2,2.6,1.7,5c-2.4,0.5-3.5-1.4-4.9-2.7
			c-5.7-5.2-10.9-11-15.4-17.2c-5.2-2.5-10.2-0.1-15.1,0.8c-17.2,3.1-34.2,7.1-50.7,12.8c-2.1,0.7-4.4,1.9-6.7,0.3
			c-6.8-0.5-12.3,3.4-18.2,5.6c-15.8,5.9-30.7,13.6-45.7,21.2c-2.5,1.3-4.4,3.6-7.3,4C387.6,510.6,391.7,508.8,394,505.8z" fill="#4B0F01"></path>
		<path d="M751.1,972.8c10.3,4.7,20,10.3,30.4,14.6c20.2,8.4,40.9,14.5,62.4,18.3c1.5,0.3,3,0.3,3.9,1.7
			c-2.6,1.5-5.2,2.9-7.7,4.7c-3.3,2.3-6.8,2.3-10.5,1.4c-31.5-8-59.9-22.4-86.2-41.4c-2.6-1.9-5.1-3.9-7.7-5.9
			c-0.3-1-1.5-1.3-1.7-2.2c-0.4-1.7,0.3-2,1.7-1.2c2,2.2,4.7,3.4,7.2,5C745.7,969.6,748.2,971.5,751.1,972.8z" fill="#ED90A1"></path>
		<path d="M397,633c0,0.3-0.1,0.7-0.1,1c-2.3,1.8-4.3,4-8.2,4.3c1.8-8.9,3.7-17.4,5.3-26c3-16.4,7.7-32.5,7.9-49.4
			c0-2.5,1.3-3.9,3.4-5c2.6-1.4,5.2-2.9,7.8-4.3c2.6,0.8,1.3,2.6,1,4.1c-3.2,14.2-6.4,28.5-9.6,42.7c-0.3,1.1-0.3,2.3-0.5,3.4
			c-1.5,7.1-2.6,14.2-5,21.1l0,0C398.2,627.6,398.4,630.5,397,633z" fill="#939096"></path>
		<path d="M341.9,768.3c1.9,6.6,5.6,12.3,9.5,17.8c2,2.9,1.6,4.4-1.2,6.3c-6.2,4.4-12.1,9.1-18.1,13.6
			c1-3.7-0.2-6.8-2.6-9.7c-4.2-5.3-6.7-11.7-10.3-17.3c6.3-4,12.6-7.9,18.8-12C340,765.7,341,766.7,341.9,768.3z" fill="#F1936E"></path>
		<path d="M281,932.1c2.9,4.6,7.8,4.1,12.3,4.9c5.1,0.9,10.1,2,15.1,2.7c1.9,0.3,4,0.9,5.7-0.7
			c3.1,6.6,5.2,13.8,10.8,19c1.2,2.4-0.2,2.9-2.2,2.9c-6.2,0-12.3,0-18.5-0.1c-0.8,0-1.8-0.2-2.3-0.7
			C293.1,952.1,285.5,943.3,281,932.1z" fill="#E05C23"></path>
		<path d="M959,849.8c-4.5-7.5-8.9-15.1-13.5-22.5c-1.2-1.9-0.9-2.9,0.6-4.2c4.7-4.2,9.4-8.4,13.9-12.7
			c2-1.9,2.9-1.1,4,1c2.8,5.6,5.8,11.1,8.8,16.7c0.8,1.9,1.6,3.8,2.4,5.8c-2.7,3.6-6.3,6.3-9.9,9C962.7,844.8,960.5,847,959,849.8z" fill="#F1936E"></path>
		<path d="M299,415c-0.2,1-1.2,1.9,0.1,3.1c11.2,10.8,18.6,24.1,22.9,39c0.8,2.9,2.7,3.3,4.9,2.9
			c9.1-1.7,18.2-0.9,27.2,0c2.5,0.3,4.9,0.3,6.9,2.1c-6.4-0.7-12.8-1.7-19.2-1.9c-9.5-0.3-18.9,0.5-28,3.4c-3.3,1.1-4.5,0.2-5-3.5
			c-1.7-13.4-6.7-25.6-14.8-36.4c-4.2-5.6-4.4-5.5,2.1-7.8C297.1,415.5,298.1,415.3,299,415z" fill="#AF051A"></path>
		<path d="M959,849.8c0.1-1.4-0.5-3.2,0.9-4.2c5.4-3.5,9.4-8.8,15.2-11.8c0.2,0.2,0.5,0.3,0.8,0.4
			c1.5,0.8,2.1,2.1,1.9,3.8c0.6,2.2,1.6,4.2,3,6c1.9,1.7,2.3,3.9,2.4,6.3c0.1,2.5,0,5,0,7.5c0,9.9,0,9.9-8.8,13.5
			c-3.2,1.3-5.8,1-7.3-2.6c-2.5-6.1-5.2-12.1-8.2-17.9C959,850.4,959,850.1,959,849.8z" fill="#FDC6AD"></path>
		<path d="M319.2,779c2.3,0.1,2.9,2,3.6,3.6c2.5,5.4,5.5,10.6,9.3,15.2c2.5,3.1,2.9,5.4,0,8.2
			c-2.1,2.5-5.3,3.9-7.1,6.8c-1.7,1-3.2,1.5-4.5-0.7c-1.4-2.2-3.2-4.2-4.8-6.3C307.5,794.3,308.3,788.6,319.2,779z" fill="#FDC6AD"></path>
		<path d="M224.1,406.9c-30.8,8.4-47,29.6-52.7,60.1c-0.4,1.9-0.2,4-0.4,5.9c-1.1,0.1-1.4-0.6-1.4-1.5
			c0.1-4.1-0.5-8.3,0.3-12.4c3.4-21.3,14.2-37.4,33-48.1c5.8-2.3,11.2-5.3,17.4-6.4c1.2,0.3,2.5,0.2,3.5,1c0.3,0.3,0.4,0.6,0.3,0.9
			C224.2,406.8,224.2,406.9,224.1,406.9z" fill="#F9EBC5"></path>
		<path d="M981.9,844c0-0.5-0.1-1.3,0.1-1.4c2.9-1.7,4.1-6.5,2.2-10.1c-0.8-1.4-1.3-2.6-1.3-4.1
			c0-9.8,0.1-19.6-0.1-29.4c-0.1-3.1,1.1-4.3,4.1-3.9c0.4,27.3-1,54.6,1,82.2c-2.3-1.4-3.1-3.1-3.1-5.4c0-1.6,0.5-3.5-2-3.9
			c-1.1-3.9-0.4-7.9-0.4-11.8C982.5,852.1,982.1,848,981.9,844z" fill="#4C0F00"></path>
		<path d="M996.4,559.7c0.4-7,6.2-7.3,10.3-9c11.6-4.7,23.8-8.2,36.3-7.4c7.8,0.5,16-1.3,23.6,2.2
			c2.6,1.2,7.1-0.9,6.6,5.4c-12.6-4.9-26-5-39.1-3.7C1021,548.6,1008.6,553.1,996.4,559.7z" fill="#4B1000"></path>
		<path d="M1040.8,781.9c-0.3,0-0.7,0-1,0c-8.4-0.4-8.8-0.8-4.8-8c4.7-8.5,8.7-17.4,14.9-25.1c3.2-1.7,3.5,0,2.6,2.5
			C1048.7,761.6,1045.5,772.1,1040.8,781.9z" fill="#DA2244"></path>
		<path d="M490.1,528.1c20.7-2.8,41.3-5.3,62.2-6.5c19.2-1,38.2-0.2,57.2,0.7c10.1,0.5,20.5,0.8,30.4,3.7
			c-5.4,1.4-10.7-0.3-16-1c-23.2-2.4-46.5-2.8-69.7-2.1c-27.8,0.8-55.3,4.6-82.5,10.5c-1.6,0.3-3.1,1.1-4.6,1.7c0-0.4,0-0.8-0.1-1.2
			c1.8-1.4,3.7-2.2,6-2.2c2-1.9,4.8-0.8,7.1-1.8c1-0.3,1.9-0.7,2.9-1C485.2,527.7,487.9,529.3,490.1,528.1z" fill="#83412C"></path>
		<path d="M1056.8,608.1c-0.6,0-1.3-0.1-1.9-0.1c-5.3-3.8-11.6-2.8-16.8-1.5c-6.9,1.7-14,1.5-20.8,4.2
			c-5.5,2.2-10.6,5.2-16.4,7c-1.1-2.8-0.1-4.2,2.7-5.6c16.2-7.8,33.3-10.2,51.1-9.1c1.3,0.1,3.5-0.2,3.2,1.1
			C1057.7,605.4,1060.2,607.9,1056.8,608.1z" fill="#4B1000"></path>
		<path d="M982.3,791c4.8,0,8.4-0.8,11.6,0.1c9.6,2.8,19.4,1.4,29.1,1.9c3.3,0.2,6.6,0.7,9.8,1
			c0.9,0.1,1.7,0.4,1.8,1.3c0.1,1-0.7,1.3-1.5,1.7c-2.4,1.1-4.9,1.3-7.3,0.8c-9-1.9-18-2.1-27.1-1.9
			C993.3,796.1,988,795.8,982.3,791z" fill="#4C0F00"></path>
		<path d="M990.8,872.9c-1.4-1.6-0.8-3.5-0.8-5.3c-0.1-22.3,0-44.6-0.2-66.9c0-3,1.3-3.1,3.1-2.7
			c10.6,2.5,21.3,2,32.1,2.5c-9.6,0.2-19.2,1.4-28.8-0.1c-4.1-0.6-5.4,0.1-5.3,4.2c0.5,22.2,0.8,44.4,1.1,66.6
			C991.6,871.8,991.2,872.3,990.8,872.9z" fill="#DE2346"></path>
		<path d="M613,281.1c6.3-3.2,13.4-2.3,20-2.9c25.6-2,51.2-2.3,76.8,0.5c4.3,0.5,8.7-0.1,12.9,1.1
			c2,0.6,2.9-1.3,4.5-1.7c-0.6,3.6-3.2,3.2-5.7,2.9c-20.5-2.6-41.1-3.3-61.7-3.1c-13.7,0.2-27.2,1.2-40.8,2.9
			C617,281.1,615,281.7,613,281.1z" fill="#C3AFAA"></path>
		<path d="M793,210.2c0.2-1.1,0.9-2.7-1.3-1.5c-2.9,1.6-5.8,3.2-8.6,4.9c-1.7,1-3.2,2.4-5.3,2.3
			c12.1-9.9,26.5-14.6,41.4-17.7c1.9-0.4,3.9-0.5,5.9-0.7c2.7,2.2-0.7,1.7-1.1,2.6C813.4,202.8,803,205.7,793,210.2z" fill="#DE798A"></path>
		<path d="M384.7,578.9c-0.5-4.1,4.5-11.8,8.2-12.7c1.7-0.4,1.9,0.5,1.7,2c-0.5,3.4-1.3,6.9-1.3,10.3
			c0.1,5.1-1.9,4.7-5.1,2.6C387.1,580.2,386.3,578.8,384.7,578.9z" fill="#C37701"></path>
		<path d="M994.8,578c0,6.6,0,13.1,0,19.7c0.3,0,0.7,0,1,0c0-8.6,0-17.1,0-25.7c2.8,19.7-1.4,39.1-1.6,58.7
			c0-17.6,0-35.1,0-52.7C994.4,578.1,994.6,578.1,994.8,578z" fill="#4B1000"></path>
		<path d="M161.7,544.9c1.4-11.8-0.4-23.1-5.8-33.8c-0.5-1.2-0.6-2.2,1.2-2.2c7.6,11.8,11.5,24.3,7,38.3
			c-0.7-0.6-0.9-1.4-0.6-2.3c0.4-5,1.1-10-0.1-14.9c1.3,5,0.7,10-0.2,15C162.7,545.3,162.2,545.3,161.7,544.9z" fill="#B76B00"></path>
		<path d="M981.9,875.4c0.7,5.3,1.5,10.6-3.5,14.6C971.6,880,972.1,877.8,981.9,875.4z" fill="#F7F4F4"></path>
		<path d="M981.9,844c2.1,7.9,0.6,16,1,24c-3,1.4-6,2.7-8.9,4.1c-2.1,1-4.1,1.2-6.1-0.1c-1.8-1.7-3-3.7-3.5-6.2
			c-0.1-0.6,0-1.3-0.5-1.8c0.1-3.7-2.8-6.2-4.1-9.4c-0.5-1.3-1.1-2.4-0.9-3.7c4,5.3,6.4,11.6,9.3,17.5c1.6,3.4,3.3,3.5,6.2,2.2
			c7.6-3.4,7.6-3.3,7.5-11.6c-0.1-5,0.2-10-1.2-14.8C981.2,844,981.6,844,981.9,844z" fill="#56190E"></path>
		<path d="M192,834.9c3.4,6.3,6.6,12.7,6.1,21.7c-5.1-6.9-5.3-14.2-8-20.5c-0.4-0.7-0.6-1.6,0.2-2
			C191,833.6,191.6,834.2,192,834.9z" fill="#B86C00"></path>
		<path d="M328,762.9c0.9-2.9,3.3-4.8,4.8-7.4c0.8-1.4,1-3.7,2.8-3.8c1.7-0.1,1.2,1.9,1.7,3.1
			c0.9,2.2,1.1,4.2-1.2,5.6c-2,1.2-3.9,2.4-5.9,3.6C328.9,764.6,328,764.7,328,762.9z" fill="#B51325"></path>
		<path d="M444,566c-0.5-0.9-1.4-0.9-2.2-1.1c2.6-3.4,4.7-7.2,8-10c1.5-1.7,3.4-3,4.1-5.2c0.2-0.3,0.5-0.5,0.7-0.8
			c1.7-0.6,2-3.5,4.5-2.9C455,553.4,449.2,559.5,444,566z" fill="#F4D5C7"></path>
		<path d="M1071.7,529c0.5,5,2.4,10,0.1,15c-3.5,0.5-5.3-0.7-3.9-4.3c1-2.6-0.2-5.3,1-7.8l0,0
			c0.9-0.9,0.2-2.2,0.7-3.1C1070.3,527.1,1071.1,527.8,1071.7,529z" fill="#CC7C84"></path>
		<path d="M164,544.9c0.1,0.8,0.1,1.5,0.2,2.3c-0.5,5.5-2.7,10.4-6.1,14.8c-1.7,0-1.7-0.9-1.1-2.1
			c1.6-5,3.1-10,4.7-15c0.4,0,0.9,0.1,1.3,0.1C163.4,544.5,163.7,544.5,164,544.9z" fill="#B96D00"></path>
		<path d="M735.8,963c-3.1,1.1,1.1,2.2,0,3.4c-5.4-3.5-10.3-7.7-15.1-12.1c-0.2-1.7,0.5-2.1,2-1.2
			C726.4,957.2,732.2,958.7,735.8,963z" fill="#E48292"></path>
		<path d="M382,519c0,14.7,0,29.3,0,44c-1.1-0.8-1-2-1-3.2c0-12.5,0-25.1,0-37.6C381,521,380.9,519.8,382,519z" fill="#450700"></path>
		<path d="M256,404.9c-0.6,0-1.2,0.1-1.8,0.1c-3.7-1.5-7.6-2.4-11.7-2.6c-6.8,1.3-13.6,2.1-20.4,0.7
			c0.6-0.5,1.2-1.4,1.9-1.5c10.6-1,21.3-2,31.5,2.4C255.7,404.2,255.9,404.6,256,404.9z" fill="#551A0F"></path>
		<path d="M343.2,715c0.6,5.1-2.2,9.9-1.2,15c1.6,2.7,1.6,5.3,0,8c-0.9,4.8,1.7,9.2,1.2,14c-1.7-1-1.6-3-1.7-4.4
			c-0.6-10.2-1.4-20.3,0.5-30.4C342.2,716.2,342.4,715.5,343.2,715z" fill="#5A2018"></path>
		<path d="M222.1,403.1c6.8-0.7,13.6-1.9,20.4-0.7c-0.1,0.6,1.9,1.1,0,1.7c-3.4,1.2-6.9,0.9-10.4,1.1
			c-0.1-0.2-0.2-0.4-0.3-0.7c0.7-1.4,1.9-1,2.1-1c-3.1,0.8-7,2.4-11.1,1.2c-0.5-0.2-0.8-0.5-1.1-1C222,403.6,222,403.4,222.1,403.1z" fill="#EAD0A7"></path>
		<path d="M151,557c4.3-10.7,5.5-21.7,3-33c1.2,0.8,1.9,2.1,1.9,3.3c0.4,9.8,0.8,19.6-3.3,28.8
			C152.5,556.6,151.6,556.7,151,557z" fill="#561805"></path>
		<path d="M459.1,546c-1.7,0.6-2.4,2.8-4.5,2.9c3.7-4.7,7.6-9.2,12.4-12.9c0.8,0.1,2,0.4,1,1.3
			C465.1,540.3,462.6,543.7,459.1,546z" fill="#F0CAB8"></path>
		<path d="M722.7,953c-0.9,0-1.6,0.4-2,1.2c-4.2-2.9-7.8-6.4-11-10.3C715.6,944.7,718.7,949.5,722.7,953z" fill="#D6707F"></path>
		<path d="M964.9,864.9c0.8,2.4,3,4.2,3,7c-4.3,1.3,1,3.8-0.8,5.6c-1.7-0.5-1.2-3.4-3.3-3.5c0,0,0.1,0,0.1,0
			C963.1,870.9,959.9,867.4,964.9,864.9z" fill="#4C0F00"></path>
		<path d="M842.1,196.1c-3.2,3-7.2,2.9-11.2,2.9c-0.2-0.2-0.3-0.4-0.3-0.7c0-0.2,0.1-0.4,0.1-0.4
			c-0.4,0.5,0.1-0.8,0.4-0.2c0.3,0.6,1.1,0.2,0.4,0c-1.2-0.3-2.7,0.7-3.6-0.8C832.6,195.6,837.4,196.1,842.1,196.1z" fill="#D84A63"></path>
		<path d="M157.2,508.9c-0.9,0.4-1.1,1.3-1.2,2.2c-2.3-3-4.6-6.1-6.9-9.1c-0.7-1.1-0.9-1.9,0.9-1.8
			C152.1,503.3,156,505,157.2,508.9z" fill="#904A00"></path>
		<path d="M558,303c-0.8-1.2-2-0.8-3.1-1.1c2.3-2.1,5.3-2.1,8-3c1.8-0.3,3.7-1.6,5,0.9C564.7,301,561.3,302,558,303z" fill="#CE6977"></path>
		<path d="M221.1,405.1c-6.4,0.7-11.7,5-18.1,5.9c5.7-3.9,12-6.3,18.9-7.2c0.1,0.2,0.3,0.4,0.4,0.6
			C222.2,405,221.9,405.6,221.1,405.1z" fill="#EAD0A7"></path>
		<path d="M584,293.4c-3,3.2-7.3,3.1-11,4.6c-1.2-0.1-2.5,0.2-3.2-1.2C574.4,295.4,579.1,293.8,584,293.4z" fill="#C74F60"></path>
		<path d="M204.1,846.9c2.7,3.1,1.8,6.9,2,10.5c0.2,3.8,0.1,7.7,0.1,11.5c-1.1-0.7-1.4-1.8-1.3-3
			C205.5,859.5,204.8,853.2,204.1,846.9z" fill="#BCA59F"></path>
		<path d="M170,459.1c0.8,4.6-1.2,9.4,1.1,13.9c0,0.8,0.1,1.6,0.1,2.4c0,0.6-0.2,1.1-0.4,1.7
			c-0.4-0.6-0.9-1.1-1.3-1.7C168.9,469.9,168.4,464.5,170,459.1z" fill="#F9CD7B"></path>
		<path d="M1068.9,532c-0.1,2.4,0.4,5-0.3,7.2c-1.1,3.5,0.5,4.4,3.3,4.8c-1.7,2-3.3,0.5-5-0.2
			C1067,539.8,1067.6,535.8,1068.9,532z" fill="#C4606C"></path>
		<path d="M977.8,838c-0.9-1.1-1.8-2.3-1.9-3.8c0.3-1.6,0.9-2.8,2.3-0.7C979.1,834.9,981.9,836.8,977.8,838z" fill="#4C0F00"></path>
		<path d="M569.8,296.9c1.1,0.2,2.5-0.1,3.2,1.2c-1.3,1.5-3.5,0.8-5,1.9c-1.4-1.6-3.3-0.6-5-0.9
			C565.1,297.8,567.4,297.3,569.8,296.9z" fill="#C65867"></path>
		<path d="M439.9,567.8c-1,4.6-3.7,8.1-7.2,11.1C434.4,574.7,437.1,571.2,439.9,567.8z" fill="#F4D5C7"></path>
		<path d="M996.2,636.9c0-4.9,0-9.8,0-14.7c0.2,0,0.3,0,0.5,0c0,4.9,0,9.8,0,14.7
			C996.5,636.9,996.3,636.9,996.2,636.9z" fill="#4B1000"></path>
		<path d="M192,834.9c-1.4-0.8-1.9-0.3-2,1.2c-1-1.7-2-3.4-3-5.1c-0.6-1.2-0.7-2.1,1.1-2.1
			C189.1,831.1,191.9,832.1,192,834.9z" fill="#AB6200"></path>
		<path d="M992.6,561.1c0,4.5,0,9,0,13.6c-0.1,0-0.2,0-0.4,0c0-4.5,0-9.1,0-13.6
			C992.4,561.1,992.5,561.1,992.6,561.1z" fill="#4B1000"></path>
		<path d="M188.1,828.9c-0.9,0.4-1,1.2-1.1,2.1c-1.3-1.7-2.6-3.4-3.9-5c-0.7-1.2-0.7-2,1-2
			C185.6,825.5,187.3,826.8,188.1,828.9z" fill="#8B4500"></path>
		<path d="M998.9,758.9c1.9,2.2,3.4,0,5.2-0.4c2-0.5,3.7-2,6-1.5c-2.9,2.1-6.3,3.1-9.7,4.1c-1.2,0.3-2.5,0.7-2.4-1.3
			C998.2,759.5,998.5,759.2,998.9,758.9z" fill="#CDBDB8"></path>
		<path d="M152.1,571c-1.9,1.7-3.8,3.4-5.7,5c0.4-2.7,1.5-4.8,3.7-6C150.9,570,151.6,570.3,152.1,571z" fill="#6D2C00"></path>
		<path d="M157,559.9c0.1,0.8,0.2,1.7,1.1,2.1c-0.2,2.1-1.8,3.5-3,5c-1.8,0-1.7-1-1.2-2.2
			C155,563.2,156,561.6,157,559.9z" fill="#9A5300"></path>
		<path d="M1071.7,529c-3.3-1.2-0.9,3-2.9,3c-0.2-3.4,0.8-6.6,1.8-9.8C1071,524.4,1071.4,526.7,1071.7,529z" fill="#C4606C"></path>
		<path d="M154,564.9c0.1,0.9,0.2,1.7,1.2,2.2c-1,1.3-2.1,2.6-3.1,3.9c-0.8,0-1.6-0.2-2-1
			C151.4,568.3,152.7,566.6,154,564.9z" fill="#874200"></path>
		<path d="M184.1,824c-0.8,0.4-1,1.2-1,2c-1.7-1.4-3.3-2.8-4-5c0.7-0.6,1.4-0.5,2,0
			C182.4,821.6,183.4,822.6,184.1,824z" fill="#6E2C00"></path>
		<path d="M150,500.2c-0.8,0.4-0.9,1.1-0.9,1.8c-1.8-1-3.2-2.3-3.3-4.8C147.7,497.7,149.4,498.2,150,500.2z" fill="#682700"></path>
		<path d="M126.5,543.1c0.4,2.6,2.7,5.1,0.7,8C125.1,548.6,126.1,545.8,126.5,543.1z" fill="#EEB963"></path>
		<path d="M831,198.1c0,0.3,0,0.6-0.1,0.9c-2.3,0.4-4.7,0.7-7,1.1c0.2-0.9,2.3-1.1,1.1-2.6c0.6-0.1,1.3-0.2,1.9-0.3
			C828.1,198.2,829.8,197,831,198.1z" fill="#E05D75"></path>
		<path d="M167.3,465.8c0-2.9,0-5.8,0-8.7c0.2,0,0.3,0,0.5,0c0,2.9,0,5.8,0,8.7C167.7,465.8,167.5,465.8,167.3,465.8
			z" fill="#400100"></path>
		<path d="M982.8,768.8c1.8-0.5,2.7,0.1,1.9,1.9c-0.5,1.2-1.5,2.2-2.4,3.4C981.3,772.1,983.1,770.5,982.8,768.8
			C982.8,768.8,982.8,768.8,982.8,768.8z" fill="#4C0F00"></path>
		<path d="M994.1,652.1c0-3.4,0-6.6,0-9.9C994.6,645.5,995.6,648.8,994.1,652.1z" fill="#4B1000"></path>
		<path d="M167.3,480.8c0-2.9,0-5.8,0-8.7c0.2,0,0.3,0,0.5,0c0,2.9,0,5.8,0,8.8C167.7,480.8,167.5,480.8,167.3,480.8
			z" fill="#410300"></path>
		<path d="M460,918.9c0-1.1,0.2-2.2-1-2.9c0.6-1,1.3-2.1,1.9-3.1c1.8,0,1.7,0.9,1.1,2.1
			C461.4,916.3,460.7,917.6,460,918.9z" fill="#D86E7F"></path>
		<path d="M999.1,762.1c-1.6,1-3.3,2-5.3,1.7c-0.2-1.9,1.2-2.3,2.2-2.9C996.9,761.6,998.3,760.9,999.1,762.1z" fill="#855B50"></path>
		<path d="M462.1,915c-0.1-0.9-0.3-1.7-1.1-2.1c0.7-1,1.5-2.1,2.2-3.1C465,911.9,463.2,913.4,462.1,915z" fill="#D55A6E"></path>
		<path d="M181.1,820.9c-0.7,0-1.4,0-2,0c-1-0.5-1.9-1.1-2.5-2.7C178.7,818.5,180.2,819.2,181.1,820.9z" fill="#5A1B00"></path>
		<path d="M328,762.9c0.5,0.9,1.3,1,2.2,1.1c-0.9,1.2-1.9,2.7-3.4,1.4C325.6,764.4,327.1,763.6,328,762.9z" fill="#891216"></path>
		<path d="M453.9,549.7c0.1,2.9-1.9,4.2-4.1,5.2C450.6,552.8,452.3,551.2,453.9,549.7z" fill="#F0CAB8"></path>
		<path d="M994.7,562.1c0,1.6,0,3.1,0,4.7c-0.1,0-0.3,0-0.4,0.1c0-1.5,0-3,0-4.6
			C994.4,562.2,994.6,562.2,994.7,562.1z" fill="#4B1000"></path>
		<path d="M384.7,578.9c2.6-1.7,2.9,0.4,3.5,2.1C386.5,581.2,385.6,580.1,384.7,578.9z" fill="#A27148"></path>
		<path d="M555,302c-1.5,2.1-3.7,2.3-6,2C550.8,302.8,552.7,301.9,555,302z" fill="#CE6977"></path>
		<path d="M831,198.1c-1.4-0.2-2.9,0.4-4.1-1c0.3-0.1,0.7-0.1,1-0.2c1.2,0,2.3,0,3.5,0.2c0.5,0.1,1.5-0.6,1.3,0.6
			C832.7,197.9,831.6,198,831,198.1z" fill="#D77685"></path>
		<path d="M415.1,986c-0.3-2.3,0-4.5,2-6C417.1,982.2,416.2,984.1,415.1,986z" fill="#C6B3AE"></path>
		<path d="M999.1,762.1c-1.1-0.2-2.5,0.3-3.1-1.2c0.6-0.4,1.2-0.8,1.9-1.2c0.5,1.1,1.5,1.2,2.4,1.3
			C999.9,761.5,999.5,761.8,999.1,762.1z" fill="#BCA59F"></path>
		<path d="M726.7,814.1c0.5,0.6,1,1.3,1.5,1.9c1.1,1.4,3.9,2,3.1,4c-0.8,1.9-3.4,1.7-5.3,1.7c-6.3,0-12-2.4-17.5-5.2
			c-17.2-8.8-31.7-21.1-45-34.9c-1.4-1.4-2.6-3-4.5-3.8c-3.6-2.3-5.5-6.2-8.2-9.2c-3.9-5.8-8-11.5-10.8-17.9
			c-1.1-2.4-2.6-3.2-5.1-2.5c-14.4,4.2-29.2,4.8-44,4.1c-20.6-0.9-40.7-4.1-59.2-13.9c-1.6-0.9-3.3-1.6-4.7-2.8
			c-5.4-5.5-5.4-5.5-9.7,1.4c-13.3,18-29.9,32.1-50.6,41c-14.5,6.2-29.5,9.2-45.2,6.6c-1.5-0.2-3-0.4-4.3-1.3
			c-1.8-1.3-2.6-2.7,0-4.1c13.8-3.4,24.8-11.7,35.9-20c3.8-3.5,8-6.6,11.3-10.6c0.6-1,1.3-1.9,2.4-2.4c6.4-4.5,11.6-10.1,16.3-16.2
			c8.5-9.4,16.2-19.4,23.2-30c3.5-5.3,4.6-5.7,10.2-3.1c23.2,10.8,47.9,14.1,73.1,12.8c25.2-1.3,49.8-6.5,73.7-15
			c2.9-1,5.3-3.6,8.7-3.3c3.1,25.6,9.8,50.2,21,73.4c6.7,14,14.5,27.3,24.2,39.5C720,807.7,722.8,811.4,726.7,814.1z" fill="#28222E"></path>
		<path d="M798,682c4.3,5.1,0,8.9-2.1,13c-7.8,6.3-17.1,8.6-26.7,9.9c-20.8,2.8-41.3,1.1-61.3-5.7
			c-5.4-1.8-10.4-4.4-14.9-7.8c-9.2-6.9-7.7-17.8,2.9-22.4c4.6-2,9-4.3,14-4.9c1.3-1.2,3-2.2,3.1-4.3c0.5-0.1,0.9-0.1,1.4,0.2
			c3.6,3.6,5.4,8.1,6.6,12.9c0,3.7,2.9,2.8,5,3.1c1.1,0.2,2.6,0.2,2.8,1.6c0.3,1.4-1,1.9-1.2,2c5.3-2.5,11.7-5,16.8-9.7
			c2-1.8,3.8-3.8,2.9-6.8c0-1,0.1-2,1.5-1.9c7.4,1.7,14.7,3.2,22,5.1c7.7,2,15.2,4.6,21.6,9.6C794.9,677.5,796.8,679.3,798,682z" fill="#FE8E89"></path>
		<path d="M378.1,669.1c2.6-3.8,6.1-6.7,9.9-9.1c5.3-1.6,10-4.9,15.6-6.1c7.7-1.8,15.4-3.8,23.4-3.9
			c0.7,0,1.5-0.6,2.2-1c0.9-0.1,1.3,0.4,1.7,1.1c0.1,4.9,3.8,7.4,7,10.2c0.6,0.5,1.3,1,2.1,1.4c14.4,7.2,15.2,8.1,20-9.1
			c0.5-1.7,0.8-3.5,3-3.8c2.7,2.3,5.3,4.9,9.1,5.2c5.9,2.1,12.1,4,15.5,10c2.8,4.9,2.2,8.6-1.6,12.7c-7.1,7.7-16.7,10.4-26.3,13.3
			c-9.1,2.8-18.6,3.4-28,3.7c-14.9,0.5-29.8-0.9-43.7-7.3C380.6,683,376.2,677.8,378.1,669.1z" fill="#FE8E89"></path>
		<path d="M671.9,691.2c-7.7,6.1-17.2,7.7-26.3,10.2c-23.7,6.6-47.8,10.4-72.5,9.4c-20.3-0.8-40-4.5-58.3-13.6
			c-3.3-1.7-4.8-0.9-6.7,2.1c-7.3,11.3-15.2,22.3-24.9,31.8c-5.4,5.4-10.4,11-16.3,15.9c-0.7,0.7-1.4,1.3-2,2c-0.7,0.6-1.4,0.6-2,0
			c4.5-6.2,9.1-12.3,13.4-18.6c9.6-14.2,19-28.4,28.3-42.8c2.1-3.3,3.7-3.8,7.1-1.8c21.9,12.4,45.5,17.6,70.5,18.4
			c29.6,1,58.1-4.1,85.9-13.7C669.4,690.1,671,689,671.9,691.2z" fill="#939096"></path>
		<path d="M652,768.9c2.9,2.5,5.3,5.4,7,8.9c0.6,6.2-1.3,12.1-2.1,18.1c-5.4,13.5-14.7,23.1-28.9,26.6
			c-13.7,3.3-27.7,3.5-41.6,1.1c-36.7-6.5-56.4-30.4-65.6-64.8c-0.2-0.6-0.4-1.2-0.7-1.8c-2.2-5-3.4-10.3-4.2-15.7
			c-0.3-1.9,0-3.6,1.1-5.2c0-0.2,0-0.4,0.1-0.5c4.7-7.8,3.3-7.9,9.9-1.4c-1.9,1.7-1.8,3.9-1.5,6c1.7,11.2,4.1,22.1,8.4,32.6
			c8.2,17.7,20.1,31.7,38.9,38.7c17.5,6.5,35.5,6.8,53.6,3c4.6-1,8.5-3.6,12.4-6.3c8.5-6.6,11-16,11.9-26.1
			C651,777.6,649.4,773,652,768.9z" fill="#4C1000"></path>
		<path d="M464.1,572.8c-0.3-5.5,2.2-10.5,3-15.8c0.6-4.9,3.9-4.5,7.4-3.7c11,2.6,22,5.2,33.1,7.7
			c6.8,1.5,13.6,3.1,20.4,5c2.2,1.5,6.7-0.5,6.6,4.4c-0.3,1.3-0.2,2.6-0.6,3.9c-1.3,2.9-0.9,6.2-2.2,9.1c-0.9,5.6-1.4,6.2-6.6,4.8
			c-8-2.1-16.4-2.9-24.1-6c-7.2-2.1-14.4-4.2-21.9-4.7C473.9,576.1,468.4,576.3,464.1,572.8z" fill="#28222E"></path>
		<path d="M517,736c0.2,7.1,2,14,3.1,21c-2.1-1-1.7-3.4-3.2-6c0.6,3.9-1.3,5.7-3.1,7.8c-12.9,14.4-28.7,24-47.4,28.6
			c-16.2,4-32.4,4-48.5-0.8c-2.5-0.7-3.7-1.5-3.4-4.8c0.2-2.4,0.6-2.9,2.7-2.6c-2.5,3.6,1.1,3.4,2.7,3.8c10.1,2.5,20.1,1.7,30.1-0.8
			c26.5-6.6,47.4-21.6,64-43C514.8,737.9,515.5,736.5,517,736z" fill="#FEB091"></path>
		<path d="M574.3,552.1c8.9-10.8,17-11.7,27.5-3c5.6,7.8,5.2,17.9-0.9,23.4c-7.2,6.5-16.6,6.4-23.8-0.2
			C572.2,567.9,571.1,559.7,574.3,552.1z" fill="#E50112"></path>
		<path d="M610.3,666.8c-16.6-9.7-34.3-13.5-53.3-9c-1.1,0.3-2.3,0.5-3.2,1.1c-2.4,1.6-4.4,1.3-6.1-0.9
			c-1.6-2.1-2.1-4.2,0.4-6c1.6,1.1,0.6,4.5,3.1,4.4c2.6-0.2,2.4-3.1,3.4-4.9c1.1-1.9,1.4-4.5,4.2-4.9c1.4,0.2,2.5-0.4,3.6-1.2
			c6.1-4.4,12.9-6.5,20.5-5.2c1.2,0.2,2.3-0.1,3.3-0.7c1.5-0.4,2.6,0.4,3.6,1.2c7.6,6.6,14,14.1,19.6,22.4
			C610.2,664.3,611,665.4,610.3,666.8z" fill="#FEB192"></path>
		<path d="M558.8,646.7c-1.9,1.8-2.6,4.2-3.5,6.5c-1,2.4-1.4,5.8-4.9,5.1c-3.4-0.7-2.2-3.9-2.3-6.3
			c2.3-4.4,4-9.1,7-13.1c8.8-11.7,20.7-14.1,33.2-6.3c11.7,7.3,19.5,18.3,27.2,29.3c1,1.5,1.3,3,0.1,4.6c-1.7,2.2-3.5,1-5.4,0.3
			c-6.7-10.3-13.7-20.2-24.2-27c-1.8,0.1-3.1-1-4.6-1.7c-7.6-3.3-12.2-2.3-17.9,3.6C561.9,643.3,561.1,645.7,558.8,646.7z" fill="#4D1002"></path>
		<path d="M725.1,585.9c0.1,2.4-1.5,4.6-0.7,7.3c0.7,2.3-1.7,2.5-3.3,2.7c-8.7,0.8-17.5,1.4-26.2,2.1
			c-10,0.9-20.1,1.7-30.1,2.9c-7.4,0.9-9.8-1.2-10.8-11c-0.2-2.3-0.1-4.7-0.1-7c0.6-0.2,1.1-0.1,1.5,0.4c2.6,8.9,2.7,8.8,12.5,7.7
			c12.5-1.4,25.1-2.3,37.7-3.4c4-0.3,7.9-1.3,11.9-1.1c3.2,0.1,5-1.4,4.9-4.8c0.3-2-0.3-4.3,1.6-5.8c0.3,0,0.6,0.1,0.8,0.1
			C725.8,579.3,725.7,582.6,725.1,585.9z" fill="#FCAF90"></path>
		<path d="M501,581.1c8.2,1.9,16.4,3.6,24.5,5.8c4,1.1,5.6,0.1,5.6-3.9c0.2-0.1,0.4-0.2,0.6-0.4
			c0.2,0.1,0.3,0.3,0.5,0.4c-0.4,13-0.4,12.8-13,10.1c-16.3-3.6-32.6-6.9-48.9-10.4c-3.5-0.7-7.6-1.2-5.3-6.7
			c0.4-0.8-0.5-2.2-0.8-3.3c5,1.1,9.9,2.2,14.9,3.2C486.3,577.8,493.7,579.2,501,581.1z" fill="#FDB091"></path>
		<path d="M654.9,583c-0.3,0-0.6,0-0.9-0.1c-0.3-4-0.6-7.9-0.9-11.9c-0.2-2.4,0.6-3.7,3.3-3.9c20-1.6,40-3.3,60-5.1
			c3.7-0.3,6,0.2,6.1,4.7c0.1,3.1,1.1,6.2,1.7,9.3c-0.1,2-0.2,4.1-0.3,6.1c-3.3-1.3-2.1-4.5-2.6-6.9c-1.1-5.4-1.3-5.5-6.8-5.1
			c-16.6,1.2-33.1,3.4-49.7,4.5c-1,0.1-2,0.3-3,0.3c-3.6,0.2-6.2,1.2-5.6,5.6C656.3,581.4,655.8,582.3,654.9,583z" fill="#938F95"></path>
		<path d="M528,567.1c-18.1-4.2-36.2-8.4-54.2-12.6c-2.9-0.7-5.6-1.3-6.7,2.5c-0.9-3.2,1.7-5.6,2.1-8.5
			c0.2-1.6,1.6-1.2,2.8-0.9c15.2,3.5,30.4,6.9,45.5,10.6c6.2,1.5,12.7,1.9,18.6,4.8C534.5,566.5,532.3,568.8,528,567.1z" fill="#939096"></path>
		<path d="M472,654c-3.6-0.6-7.7,0-9-4.9c-0.4-0.5-0.5-1-0.3-1.5c7-10,17.2-10.6,27.9-9.6c3.4,0.3,6.9,0.9,10.2,1.8
			c0.5,0.1,1,0.2,1.5,0.4c6.3,2,12.7,3.8,18.7,6.7c1.6,1,3.3,1.5,5.1,2.1c1.1,0.4,2.1,0.8,3.1,1.4c0.9,0.7,2.2,1.1,1.8,2.6
			c-0.5,0-1,0-1.5,0.1c-1.2,0.4-0.6,0.8,0,1.2c1.8,1.1,3.5,2.2,5.3,3.4c-0.2,0.4-0.4,0.8-0.6,1.3c-3.5-1.3-6.9-2.7-10.4-3.9
			c-13-4.8-25.9-9.8-40.1-10c-4.8,0-9.1,1.5-13.3,3.4c-1.2,0.5-2.8,0.9-2.9,2.4c0,1.7,1.7,1.7,2.9,2.2
			C471,653.2,471.5,653.6,472,654z" fill="#FCB192"></path>
		<path d="M713,660c0.8,2.7-0.4,3.9-3,4c-2.2-6.6-8.3-5.4-12.9-5.8c-12.2-1.2-23.6,2.6-34.9,6.8
			c-5.7,2.1-11.4,4.2-17.3,5.9c1.5-2.6,4-3.6,6.4-5.1c-1-1.3-2.3-0.4-3.3-0.8c-0.3-0.4-0.3-0.9,0-1.3c2.9-2.3,6.7-2.5,9.8-4.4
			c0.5-0.2,0.9-0.4,1.4-0.6c8.3-3.3,16.8-6.2,25.7-7.5c8.3-1.2,16.5-1.5,24,3.3C710.9,655.8,713.4,656.8,713,660z" fill="#FDB193"></path>
		<path d="M574.3,552.1c-0.6,4.2-2.1,8.2-0.5,12.6c3.1,8.7,12.3,13.4,20.7,10.2c9.2-3.5,13.2-13.1,9.2-21.9
			c-0.6-1.3-1.3-2.7-1.9-4c5.4,3.4,4.8,8.9,4.1,13.8c-0.8,5.6,0.5,11.8-4.7,16.6c-9.3,8.6-24,5.1-27.4-7.1c-1.4-5-2.2-10.3-1.8-15.6
			C572.1,554.9,572.4,553.1,574.3,552.1z" fill="#FEB092"></path>
		<path d="M748.9,661c-0.3,0.7-0.7,1.3-1,2c-0.7,2.1-1.7,3.9-4.4,2.9c-2.7-2.9-3-7-4.8-10.3
			c-5-9.7-12.8-14.5-23.7-14.2c-1.7,0-3.3,0-5,0.1c-5.1-0.2-10,0.8-14.9,2.2c-0.5,0.2-1,0.4-1.5,0.5c-2.2,0.1-4.4,1.8-6.6,0
			c5.6-3.6,12.1-4.3,18.3-5.4c10.4-1.7,21.2-3,30.8,3C743.1,646,748.6,651.9,748.9,661z" fill="#A5877E"></path>
		<path d="M430,650c-0.3-0.4-0.6-0.7-0.9-1.1c-1.6-8.7,3.8-14.2,9.6-18.6c9.6-7.4,20.9-7.4,32.3-5
			c2.4,0.5,5,0,7.1,1.7c-0.4,0.5-0.8,0.8-1.4,1c-2.6,0.6-5.3,0.3-7.9-0.1c-6.5-1.1-12.9-0.7-19.2,1c-2.9,1.1-5.9,2.2-7.7,5
			c-5.1,5.1-6.4,12.1-9.6,18.2C430.3,652.8,430.9,650.6,430,650z" fill="#A6867D"></path>
		<path d="M658.1,660.1c-3.1,1.9-6.4,3.1-9.9,4c-1.1,0.5-2.1,0.7-2.1-1c7.6-5.7,15.9-10.2,24.9-13.1
			c1.9-0.5,3.6-2.2,5.8-1.1c0.7,2.1-1.1,2.5-2.4,3c-6.6,2.4-13.2,4.7-19.5,8C656,659.3,657.2,658.9,658.1,660.1z" fill="#4D1005"></path>
		<path d="M624,525c5.4-0.6,10.6,1.8,16,1c2.9,0.4,5.8,0.8,8.7,1.1c4.1,0.9,8.2,1.9,12.4,2.8c-0.6,0.7-1.3,0.6-2,0.3
			c-3.4-0.4-6.9,0.1-10.1-1.2C640.7,527.3,632.1,527.8,624,525z" fill="#D88E72"></path>
		<ellipse ry="0.3" rx="34.3" cy="524.5" cx="572.4" fill="#FECDB2"></ellipse>
		<path d="M511,638.1c5.2,2.7,10.8,4.8,15.3,8.7c-0.3,0.5-0.7,0.7-1.2,0.8c-6.7-2-12.4-6.3-19-8.5
			c-0.9-0.3-1.7-1.2-0.9-2.4C507.3,636.1,509.1,637.2,511,638.1z" fill="#4D1105"></path>
		<path d="M462.9,748.9c0.7,0,1.4,0,2,0c-3.3,4.2-7.3,7.5-11.9,10.1C455.9,755.2,459.5,752.2,462.9,748.9z" fill="#878186"></path>
		<path d="M477,627c0.4,0,0.7,0,1.1-0.1c4.8,0.8,9.5,1.9,13.9,4c-0.8,0.9-1.8,1.1-2.9,1.2c-3.3,0.2-6.4-0.5-9.3-1.9
			C478.8,629.3,476.8,629.1,477,627z" fill="#A7857B"></path>
		<path d="M346.1,761.9c0.3,0.4,0.6,0.8,0.9,1.1c1.2,5,4.4,9.1,6.2,13.9C348,773.2,347.1,767.5,346.1,761.9z" fill="#4D1000"></path>
		<path d="M533,574c0.1-1.1-0.2-2.4,0.9-3.2c0.3-0.3,0.7-0.3,1,0c0.5,4.4-0.1,8.6-2.8,12.3c0,0-0.2-0.2-0.2-0.2
			C531.4,579.8,532.8,577,533,574z" fill="#FDB091"></path>
		<path d="M488.8,631.1c1.1,0,2.1-0.1,3.2-0.1c3,1,6,2,9,3c0.3,0.5,0.2,1-0.3,1.4
			C496.2,635.5,491.7,635.5,488.8,631.1z" fill="#A57E72"></path>
		<path d="M677,648.9c-2,0.4-4,0.7-6,1.1c3.9-2.7,8.3-4.2,13-5c0.3,0.4,0.4,0.8,0.3,1.2c-1.7,2.1-4.1,2.5-6.6,2.8
			C677.4,649,677.2,649,677,648.9z" fill="#A47667"></path>
		<path d="M534.9,570.8c-0.3,0-0.7,0-1,0c0.2-4.7-4.6-1.5-5.9-3.8c4.1,1.3,5.6-2.3,8.1-4.2
			C536.4,565.6,534.2,568,534.9,570.8z" fill="#796769"></path>
		<path d="M684.1,646.1c0-0.4-0.1-0.7-0.1-1.1c1-0.3,2-0.7,3-1c2.4,0.3,4.6-1.6,7.1-0.9c-1.1,3.4-4.1,3.6-7,4.1
			C685.9,647.2,684.9,646.9,684.1,646.1z" fill="#7B4F43"></path>
		<path d="M725.1,585.9c0-3.3-0.1-6.6-0.1-9.9c0-0.9,0.1-1.9,0.1-2.8C725.5,577.5,727.1,581.7,725.1,585.9z" fill="#FED1B6"></path>
		<path d="M528.9,651.1c-1.2,0.2-2-0.6-2.8-1.2c-0.6-0.4-1.4-0.7-1.4-1.7c0.2-0.6,0.8-0.8,1.2-1.2
			c0.1-0.1,0.3-0.2,0.4-0.3c1.2,0.8,2.5,1.5,3.7,2.3c0.8,0.4,1.4,1,0.9,1.8C530.5,651.6,529.6,651.5,528.9,651.1z" fill="#4D1105"></path>
		<path d="M528.9,651.1c1.3-0.2,1.9-0.7,1.1-2c2.4-0.3,3.1,2.3,5,3c0.1,1.9-0.9,1.4-2,1c-0.6,0-1.3-0.1-1.9-0.1
			C530.3,652.3,529.6,651.7,528.9,651.1z" fill="#783D2B"></path>
		<path d="M501,635c0-0.3,0-0.7,0-1c3.3,1.4,7.2,1.4,10,4c-2.2,0.6-3.8-1.4-6-1.1c-0.3,0.4-0.7,0.5-1.1,0.4
			C502.6,637,501.5,636.5,501,635z" fill="#B08273"></path>
		<path d="M646,666.1c-1.4,1.1-2.9,2.8-4.5,1.2c-1.3-1.3,0.1-2.6,1.6-3.2C643.8,665.1,645.4,664.8,646,666.1z" fill="#FDB193"></path>
		<path d="M646,666.1c-1.2-0.4-3.2,0.5-2.8-2c1-0.3,2-0.6,2.9-0.9c0.7,0.3,1.4,0.7,2.1,1c0,0.3-0.1,0.6-0.2,0.8
			C647.3,665.3,646.6,665.7,646,666.1z" fill="#753A28"></path>
		<path d="M533,653.1c0.7-0.3,1.3-0.7,2-1c0.8-0.1,1.9,0.2,1.4,1.1C535.4,654.7,534.1,654.3,533,653.1z" fill="#B47A65"></path>
		<path d="M819,822.9c2-1.6,4-3.3,6-4.9c2.4-0.8,3.2-5.3,6.9-2.9c13.1,22.4,36.2,37,62.9,32.1
			c2.6-0.5,5.2-0.8,7.8-1.2c1.4-0.2,2.8-0.2,3.6,1.1c4.3,6.2,9.7,11.8,12.5,18.9c-6.4,1.2-12.2,4.1-18.5,5.5
			c-22.9,4.7-43.1,0.2-60.2-16.1c-3.7-3.5-6.8-7.7-9.7-11.9c-2.3-3.3-3.7-4-7.4-1.3c-21.5,15.6-43.8,30.1-68.1,41.3
			c-17.4,8-35.4,13.9-54.6,15.7c-12.6,1.2-25.2,1.7-37.7-0.2c-6.8-1-8.8,4.7-11.9,8.2c-12.9,15.1-23.2,32-30.5,50.5
			c-4.3,10.8-7.1,22.1-9.1,33.5c-1,5.6,1.6,11.2,0.8,16.9c-1.5-3.6-1.6-7.4-1.8-11.1c-1.4-29.5,3.7-57.9,16.4-84.6
			c5.2-11,11.8-21.1,19.2-30.8c4.1-5.4,9.7-4.7,14.8-5.2c26.5-2.5,52.4-8.2,77.8-15.9c13.5-4.1,26.7-9,39.4-15.1
			c0.6-0.3,1.3-0.2,2-0.3c6-2.4,11.9-5.2,17.5-8.5c1.3-0.4,2.6-1,3.7-1.9C807.1,830.8,813.2,827.2,819,822.9z" fill="#C21228"></path>
		<path d="M361,830.9c4.6-5,9.2-10,13.7-15.1c1.8-2,3.2-2.1,5.4-0.3c17,13.5,36.2,23.2,56.2,31.4
			c11.5,4.7,23.2,8.9,35.1,12.4c3.7,1,6,2.9,5.6,7.4c-0.6,7.1,1.5,14.1,1.9,21.2c-1.4-5-5.4-6.4-9.8-7.8c-26.3-8.7-51.9-19-76.5-32
			c-9.7-5.1-19.2-10.4-28-17C363.4,830.1,362.3,831.1,361,830.9z" fill="#C21228"></path>
		<path d="M751.1,972.8c-3.4-0.4-5.9-2.5-8.2-4.9C746.3,968.7,748.8,970.5,751.1,972.8z" fill="#E48292"></path>
		<path d="M925,654.9c-0.3,1.7,2,3.2-0.7,5.3c-2.1,1.7-2.3-1.3-3.4-0.2c-2.5,0-3.2-2.2-4.1-3.8
			c-11.4-19.9-25.8-37.5-41.7-54.1c-12.4-12.9-25.6-24.8-39-36.4c-21.4-17.6-44-33.3-68.1-47c-26.7-15.2-54.5-27.7-84-36.6
			c-2.1-0.6-4.1-1.3-6.1-2.1c-1.3-0.6-2.9-0.5-4.2-1.1c-4.8-2.3-8.4-0.9-11.5,3.1c-0.9,1.1-2.1,2.1-3.6,2.3
			c-1.4-1.2-3.6-1.3-4.8-2.9c0.2-1.4,1.1-2.4,2-3.4c9.4-10.1,16.1-21.7,19.5-35.2c0.7-2.8,0.8-2.8,3.2-3.4c0.6,1.8,0.7,3.6-0.2,5.4
			c-0.4,0.3-0.7,0.7-0.8,1.2c-0.1,2-0.1,3.9,0,5.9c0.1-2.2-0.3-4.4,0.2-6.5c0.4-0.7,1.7-0.4,1.7-0.6c0.9-13.5,2.7-27-0.7-40.5
			c-0.1-0.2-0.5-0.3-0.9-0.5c-0.6-1.9-0.4-3.9-0.3-5c0.1,1.2-0.7,3.4,0.6,5.4c0.9,1.2,0.9,2.4,0.1,3.7c-0.4,0.4-0.9,0.5-1.5,0.3
			c-2.8-4.2-4.1-8.8-4.4-13.8c2.8-2.6,2.5,0.8,4,2.6c-3.2-7.5-7.1-13.5-10.8-19.6c0.3,1.2,1.6,2.5,0.4,3.8c-4.2-1.8-7.1-4.4-7-9.4
			c1-0.5,1.9-0.3,2.5,0.6c-8.5-8.7-17.3-16.8-29-21.3c-18.1-7.1-36.4-8.3-55.1-2.4c-11.8,3.7-22.5,9.2-30.8,18.6
			c-1.4,1.5-3,2-4.9,0.7c10.2-11.8,23.2-18.9,38.1-23c16.1-4.6,32.1-3.4,48,1.1c24.3,7.4,41.3,23.1,50.9,46.4
			c10.1,24.4,8.6,48.4-3.6,71.8c-2.3,4.5-2.2,4.5,2.6,6.2c3.1,1.1,6.7,1.1,9.2,3.6c11.7,4.3,23.5,8.3,35,13.1
			c40.4,16.7,77.4,38.9,111.6,66.1c2.1,1.7,4.2,3.2,6.3,4.8c16.4,13.7,32,28.4,46.5,44.1C901.2,618.2,915,635.2,925,654.9z" fill="#4B1000"></path>
		<path d="M687,474.1c-4.3-1.1-8.7-2.2-13-3.2c-2.6-0.7-3.1-2-1.6-4.3c8.6-14,12.3-29.3,11.6-45.6
			c-1.3-30.6-20.5-59.8-49.7-71.9c-2.1-0.9-4.2-1.9-6.3-2.9c2.9-0.6,5.2,1,7.6,2c12.1,5.2,23.8,11.1,33.3,20.4
			c11.3,11,17.6,24.7,21,39.9c4.8,21.1,3.9,42-2.4,62.7C687.2,472.1,687.1,473.1,687,474.1z" fill="#C21228"></path>
		<path d="M541.9,368c5.2,0,6.4-5.4,10-7.7c7.4-4.7,14.8-9,23-12.3c12.3-4.8,25.1-5.4,37.6-3.7
			c16.8,2.3,32.6,8.3,44.1,21.9c2.4,2.8,6.6,4.1,7.5,8.8c-2.4-0.2-3-3.3-5.2-3c-2.3,0.3-3.6-1.5-5-2.8
			c-15.9-14.3-34.5-21.3-55.9-20.9c-2,0-4,0.1-5.9,0.6c-3.2,0.5-6.6,0.5-9.7,1.9c-5.9,1.7-11.7,3.4-16.9,6.8
			c-15.6,8.1-26.6,20.5-33.7,36.4c-1.1,2.4-1.8,5-3.1,7.3c-0.4,0.6-0.9,1.2-1.3,1.8c-3.8,7.4-2.7,15.4-3,23.3
			c-0.3,6.8,0.4,13.5,2.9,19.9c0.2,0.5,0.2,1-0.1,1.5c-0.2,1.8,0.1,3.6-1.5,5.4c-1.2-1.2,0.3-4.3-2.6-4.1c0,0,0,0,0,0
			c-3.5-16.4-3.5-32.8,0-49.1C526.4,387.6,532.6,376.9,541.9,368z" fill="#490E01"></path>
		<path d="M523,399.9c-1.5,16.4-1.5,32.8,0,49.1C517.4,432.7,517.4,416.3,523,399.9z" fill="#4B0F01"></path>
		<path d="M651.2,286.3c11.6,0,23.1,0,34.7,0c0,0.2,0,0.3,0,0.5c-11.5,0-23.1,0-34.6,0
			C651.3,286.6,651.2,286.5,651.2,286.3z" fill="#E52449"></path>
		<ellipse ry="18.9" rx="0.3" cy="424.6" cx="517.5" fill="#E7244B"></ellipse>
		<path d="M905,677.1c0.6-0.4,1.3-0.7,1.9-1.1c1.9-1.2,4-1.3,6-2c1.9-0.3,3.7-1.5,5.7-1.2c7.4-0.3,14.7-1.5,21.9-0.7
			c-33.5,6.7-58.7,25.2-76.4,54.2c-6,9.8-10.7,20.2-14.3,31.2c-0.5,1.6-1.2,3.2-2.1,4.5c-3.3,4.9-8.6,5.2-12.5,0.7
			c-3.8-4.3-4.4-11.8-1.4-16c10-16,21.1-31,34.6-44.1c8.6-8.3,17.9-15.8,28.4-21.7C899.5,679.3,902.2,678,905,677.1z" fill="#FEC6AD"></path>
		<path d="M887.8,756.9c6.9,0.1,13.7,1.4,20.2,3.6c5.7,2,11,4.7,15.8,8.4c1.9,1.5,4.6,3.2,2.4,6
			c-2.1,2.7-4.3,1.1-6.5-0.5c-9.3-6.7-19.6-10.4-31.1-10.4c-6.6,0-12.4,2.1-17.1,6.9c-1.7,1.8-3.6,3.5-6,1.4c-2.3-2-0.8-4.2,0.6-6.2
			c8.2-11.4,19.6-18.2,32.5-23c11.1-4.1,22.6-6.6,34.5-7.4c1.3-0.1,2.7-0.2,4-0.1c2,0.1,3.7,0.9,3.7,3.2c0.1,2.3-1.6,3.1-3.6,3.4
			c-6.6,0.7-13.2,1.2-19.7,2.7c-9.6,2.2-18.9,5.1-27.7,9.7C889.1,755,887.8,755.1,887.8,756.9z" fill="#4C0F01"></path>
		<path d="M661.2,869.1c-11.1,2.5-22.4,2.5-33.7,2.9c-39.2,1.3-78.1-1.8-116.5-9.9c-0.3-0.2-0.4-0.5-0.3-0.7
			c0.1-0.2,0.2-0.4,0.3-0.4c19.6,3.2,39.1,6.7,58.9,8c16.9,1.1,33.8,2.2,50.7,1.8c11.7-0.3,23.5-1.3,35.2-1.9
			C657.5,868.8,659.4,869,661.2,869.1z" fill="#E59D80"></path>
		<path d="M659.1,530.3c0.7-0.1,1.3-0.2,2-0.3c23.6,4.2,46.8,9.9,69.1,19c-6.9,0.4-12.5-3.8-18.9-5.4
			c-11.4-2.8-22.7-6.4-34.1-9.2C671.2,532.9,664.9,532.4,659.1,530.3z" fill="#F8B092"></path>
		<path d="M710.9,860.8c-7.7,3.2-15.7,4.7-24,5C694.8,863.4,702.8,862,710.9,860.8z" fill="#86442F"></path>
		<path d="M510.9,861c0,0.4,0,0.7,0,1.1c-7.8-1-15.5-2.4-23-5.1C495.9,857,503.2,860.3,510.9,861z" fill="#C47C62"></path>
		<path d="M888.7,359.1c2.5,2.8,6.3,4.3,8.1,7.9c-2.5,0.3-0.4,2-0.8,2.9c-3.4-3.7-6.7-7.3-10.1-11
			C886.9,356.8,887.8,358.7,888.7,359.1z" fill="#CB4255"></path>
		<path d="M888.7,359.1c-0.9,0.2-1.8-1.2-2.8-0.1c-2-1.3-3.7-2.9-5-4.9c-0.6-0.6-1.7-1-1-2.2
			C883.6,353.5,886.1,356.3,888.7,359.1z" fill="#B0323E"></path>
		<path d="M880,351.9c0.3,0.7,0.6,1.4,1,2.2c-2.2-0.4-3.1-1.9-3.1-4C878.8,350.4,879.5,351,880,351.9z" fill="#C12336"></path>
		<path d="M904,282.1c-1.9,0-4,0.3-5-2C900.9,280,902.6,280.5,904,282.1z" fill="#CE1335"></path>
		<path d="M870.9,269.1c6.6,0.7,13,2.3,19.1,4.9C883.4,273.3,876.9,272,870.9,269.1z" fill="#DF687D"></path>
		<path d="M889.9,274.1c1-0.1,1.9-0.1,3.4-0.2c-1.5-1.4-3.5-1.3-4.4-2.8c4-0.1,6.9,2.8,11.6,3.9
			c-4.3,2.3-7.3-0.7-10.4,0.1C890,274.7,890,274.4,889.9,274.1z" fill="#DF687D"></path>
		<path d="M494.8,866.1c0.4,0,0.8,0,1.2-0.1c1.1,6,0.2,12.1,0.4,17c0.6-4.8-0.7-10.9,0.6-16.9
			c13.6,3.4,27.5,5.8,41.4,7.8c29.3,4.2,58.7,5.7,88.3,5.1c3-0.1,5.9-0.6,8.9-1c0.9-0.1,2.2-0.4,2.8,0.6c0.7,1.1-0.4,1.8-1,2.5
			c-13.5,18.4-23.5,38.5-28.7,60.8c-4.4,18.7-7.3,37.7-4.8,57.1c0.8,6.2,1,12.5,2.3,18.7c0.5,2.4,0.1,3.2-2.4,2.3
			c-3.6-1.3-7.3-2.1-10.7-4.1c-1.2-1.2-3-1.3-4.4-2.2c-0.9-0.6-1.9-0.9-2.9-1.4c-2.5-1.4-4.8-3.3-7.5-4.3c-3-0.9-5.2-3.3-8.1-4.2
			c-9.4-5.5-17.4-12.8-25.5-20C531.8,972.3,521,959,512.4,944c-0.7-1.2-1.4-2.3-1.7-3.6c-0.4-2,0.3-3,2.4-2.5
			c3.1,0.7,6.2,2.1,8.9-0.8c2.9-3.2,3.6-7.3,3.5-11.2c-0.2-8.1-2.6-15.7-7.6-22.3c-2.3-3-5-5.6-9.1-5c-3.9,0.6-5.2,3.8-6.2,7
			c-0.5,1.6-1,3.5-3.1,3.3c-1.5-0.1-2-1.5-2.4-2.9c-3.1-12.4-3.8-25-3.1-37.7C493.9,867.5,494.3,866.7,494.8,866.1z" fill="#28222E"></path>
		<path d="M494.8,866.1c-0.3,14.3,0.2,28.4,4.3,42.6c2.5-1.2,2-3.5,2.6-5.2c2.4-6.8,7.9-8.6,13.7-4.3
			c8.8,6.4,14.1,25.4,9.9,35.4c-2.5,6-5.2,6.9-14.3,4.2c14.3,27.2,35.7,47.1,60,64.3c0,1.8-1,1.5-2.1,1.1
			c-10.9-5.5-20.6-12.7-29.7-20.6c-28.3-24.6-45.5-55.5-52.5-92.2c-1.4-7.5-2.2-15.1-2.8-22.7c-0.3-4.6,1.6-5.2,5.2-4.2
			C491,864.8,492.9,865.5,494.8,866.1z" fill="#939096"></path>
		<path d="M950.9,849.8c-1.8,0-3.4,0.4-5.1,1.5c-5.3,3.6-10.7,7.1-16.6,9.6c-1.9,0.8-2.4,2-2.3,3.8
			c-4.4-6.4-8.7-12.9-13.1-19.3c-1.2-1.8-1.1-2.9,1.2-3.7c7.3-2.8,14.1-6.7,20.6-11c2.3-1.6,3.5-1,4.7,1.1
			C943.8,837.9,947.4,843.8,950.9,849.8z" fill="#E15D23"></path>
		<path d="M355.1,826.8c-0.3-1,0.9-2-0.4-3.1c-4.7-4.1-9.2-8.4-13.2-13.2c-0.4-0.5-1.5-0.4-2.3-0.6
			c5.6-4.4,11.2-8.7,16.7-13.2c1.8-1.5,2.8-0.9,4.1,0.4c3.1,3.2,6.2,6.4,9.5,9.5c1.7,1.6,1.8,2.8,0.2,4.5
			C364.6,816.3,359.9,821.6,355.1,826.8z" fill="#E05C23"></path>
		<path d="M588.2,874.2c15.6,0,31.1,0,46.7,0c0,0.2,0,0.3,0,0.5c-15.6,0-31.2,0-46.7,0
			C588.2,874.5,588.2,874.4,588.2,874.2z" fill="#440900"></path>
		<path d="M797.9,837c-5.7,3.5-11.4,6.9-18.1,8c5.6-4,12.1-6.5,18.2-9.8C798.6,835.7,798.5,836.4,797.9,837z" fill="#B43737"></path>
		<path d="M819,822.9c-5.1,5.3-11.4,8.9-18,12c-0.8,0.5-1.5,0.6-2.2-0.1C805.5,830.9,811.9,826.2,819,822.9z" fill="#AD3B37"></path>
		<path d="M964.9,864.9c-3.2,2.7-1.1,6-1.1,9.1c-2.2-3.1-3.7-6.5-5-10.1c1.7,1.2,3.4,2.2,5.1,0
			C964.3,864.3,964.6,864.6,964.9,864.9z" fill="#4D1000"></path>
		<path d="M497,866c0,5.9,0,11.8,0,17.7c-0.3,0-0.7,0-1,0c0-5.9,0-11.8,0-17.8C496.4,866,496.7,866,497,866z" fill="#1E1825"></path>
		<path d="M831.9,815.1c-3.1-1-4.2,2.9-6.9,2.9c1.1-1.3,2.1-2.6,3.2-3.7C829.8,812.6,831.1,812.9,831.9,815.1z" fill="#6E100B"></path>
		<path d="M798.8,834.9c0.7,0,1.5,0.1,2.2,0.1c-0.6,1.3-1.6,2-3.1,2c0-0.6,0-1.2,0-1.8
			C798.2,835,798.5,834.9,798.8,834.9z" fill="#BF4543"></path>
		<path d="M274.9,487.2c1.7,1.8,3.4,3.6,4.9,5.5c1.1,1.3,1.8,2.8,0.5,4.5c-1.2,1.5-2.6,1.7-4.4,1.2
			c-4.9-1.3-9.4-4.3-14.8-3.4c-17.2-2.2-30,6.5-42.3,16.6c-2.3,1.9-4.3,6.4-8.2,3.3c-3.6-2.8,0.2-5.7,1.1-8.4
			c1.2-3.6,2.7-7.1,4.1-10.7c2.4-8,3-15.9-0.1-23.9c-5.2-8.8-12.5-15.4-21-20.8c-1.7-1-3.6-2.3-2.5-4.8c1.1-2.4,3.1-2.4,5.5-1.8
			c5.7,1.3,11.4,2.2,17.2,2.6c15.8,1.3,28.5-4.7,39.3-15.7c0.9-0.9,1.8-1.9,2.8-2.9c1.4-1.3,2.9-2.4,4.9-1.2
			c2.2,1.3,1.9,3.1,1.4,5.2c-3.5,12.9-5.2,25.8,0.6,38.5C266.7,477.2,270.2,482.7,274.9,487.2z" fill="#4D1000"></path>
		<path d="M215.8,472.1c0.4,0.3,1,0.5,1.1,0.9c1.5,7.7,2.8,15.5-1.1,23C217.3,488,218.3,480,215.8,472.1z" fill="#571A05"></path>
		<path d="M224.1,406.9c0-0.3,0-0.6,0-0.9c2.4-2.2,5.1-1.6,7.9-1.2c0,0,0.2,0.3,0.2,0.3
			C229.6,406.3,226.9,406.7,224.1,406.9z" fill="#EAD0A7"></path>
		<path d="M277.3,916.7c0-6.6,0-13.1,0-19.7c0.2,0,0.3,0,0.5,0c0,6.6,0,13.1,0,19.7
			C277.6,916.7,277.5,916.7,277.3,916.7z" fill="#FEBF40"></path>
		<path d="M837.1,565.1c31.4,26.3,60.4,54.8,80.9,90.8c0.8,1.4,1.9,2.7,2.9,4c2.2,3.7,0.9,5.4-3.1,5.9
			c-4.6,0.6-9.1,2.1-13.3,4.1c-3.5,1.7-5.3,0.7-7.3-2.3c-12.7-18.9-27.3-36.1-43.8-51.7c-29.8-28.2-63.6-50.1-101.3-66.3
			c-31.9-13.7-65.1-22.9-99.4-28.5c-18.7-3.1-37.5-4.7-56.5-5.6c-18.3-0.9-36.6-0.7-54.9,0.4c-47.6,3.1-93.9,12.1-136.7,34.3
			c-5.4,2.8-10.8,5.8-15.8,9.5c-1.3,0.9-2.3,3.3-3.9,2.4c-1.6-0.9-0.8-3.3-0.7-5.1c1.2-1.8,3-2.8,4.6-4.2c9.6-6.9,20.2-12.1,31-16.7
			c1.1-0.4,2.3-0.8,3.4-1.3c9.6-3.7,18.9-7.9,28.8-10.8c1.5-0.4,3-0.6,4.4-1.1c6.1-1.4,12.3-2.8,18.5-3.9c2.3-0.4,4.6-1.1,6.9-1.4
			c2.4-0.2,4.7-0.9,7-1.1c1.1-0.1,2.2-0.6,3.3-0.8c12.6-1.8,25.3-3.4,38-5c5.8-0.7,11.6-0.6,17.4-1.1c9.4-0.8,19-0.9,28.4-0.9
			c12.4,0,24.9,0.7,37.3,1.4c16,0.9,31.7,3.4,47.5,5.4c23.5,4.6,46.8,9.9,69.5,17.7c28.5,9.9,56,22,81.2,38.9
			c2.8,1.8,5.5,3.8,8.1,5.9c2.2,1.7,4,1.4,5.5-0.8c2.8-4,6.6-7,9.7-10.7C835.3,566,836,565.2,837.1,565.1z" fill="#C77A00"></path>
		<path d="M389,554c-1.4,1.4-2.5,3.3-4.8,3.3c-0.3-10-0.8-19.9-0.1-29.9c1.9-0.5,1.9,1.1,2,2
			c0.6,8.2,0.5,16.4-0.5,22.1c0.5-5.7,1.6-13.7,2.9-21.8c0.8-5.5,3-9.3,8.1-12.2c11.4-6.5,23.1-12.4,34.9-18.1
			c1.7-0.8,3.4-1.4,5.2-1.6c6.7-0.9,12.5-4.4,18.7-6.7c15.1-5.6,30.5-10,46.2-13.5c7.6-1.7,15.1-3.3,22.8-4.4
			c6.2-0.9,7.4-0.4,9.5,5.4c1.2,3.2,4.4,4.5,6.2,7c5.6,7.6,13.5,12.1,21.6,16.3c2.4,1.3,6.2,2.2,5.3,5.6c-0.8,3.1-4.6,1.9-7.1,2
			c-5,0.1-9.9,0.4-14.6-2.2c-2.8-1.5-6.2-1-9.4-0.6c-9.6,1.3-19.3,1.6-28.7,3.3c-5.6,1.1-12.5-0.3-17.1,5c-0.6,0.7-1.5,0.8-2.3,0.4
			c-7.5-3.3-14.4,0.3-21.4,1.8c-21.7,4.6-42.1,12.9-62,22.6c-3.6,1.7-6.9,4-10.4,5.9C390.9,547.4,390.6,551.1,389,554z" fill="#FEB23C"></path>
		<path d="M816,594.9c7.2,3.2,13,8.7,18.8,13.7c21.4,18.4,40.2,39.1,56.4,62.2c2.1,3,1.8,4.9-1.4,6.7
			c-19.3,11-34,26.9-47.3,44.3c-0.7,0.9-1.5,1.7-2.4,2.6c-0.4,0.4-1,0.7-2.6,1.7c1.9-8.5,0.6-16,0.5-23.5c-0.3-20-4.5-39.4-9.9-58.6
			c-4.2-14.7-9.1-29.1-15.9-42.9c-0.3-0.6-0.2-1.3-0.2-2C812.7,597.1,813.4,595.1,816,594.9z" fill="#19151D"></path>
		<path d="M436.9,499c-10.2,3.2-19.3,8.7-28.7,13.6c-4.1,2.1-7.9,4.9-12.1,6.8c-4.6,2-5.5,5.6-6.1,9.9
			c-1.2,8.6-2.8,17.2-5.1,25.7c0-7.6,0-15.3,0-22.9c0-1.6,0.7-3.3-0.8-4.7c-1.3-5.5,0.1-9,5.6-11.9c20.4-11,41.3-21,63.1-28.9
			c1.9-0.7,3.6-1.5,5.4-2.3c15.2-4.5,30.3-9.4,45.9-12.4c7.8-1.5,15.6-2.7,23.4-4.2c2.3-0.4,3.9,0.2,4.7,2.5
			c0.5,3.3-2.1,2.9-3.9,3.1c-7.4,0.6-14.8,1.9-22,3.5c-9.6,2.2-19.2,4.3-28.7,7.2C463.9,488.2,450.3,493.3,436.9,499z" fill="#FBDB9E"></path>
		<path d="M816,594.9c-1.3,1.4-2.7,2.8-4,4.2c-2.8-3.1-3.8-7-6.1-12C810.5,589.7,813.9,591.3,816,594.9z" fill="#827A7D"></path>
		<path d="M832.1,695.5c0-3.1,0-6.2,0-9.3C833.2,689.4,833.1,692.7,832.1,695.5z" fill="#400400"></path>
		<path d="M905,677.1c-2.5,1.7-5.1,3.1-8.1,3.9c0.9-2.4,3.8-2.2,5.2-3.9C903.1,677.1,904.1,677.1,905,677.1z" fill="#8E5340"></path>
		<path d="M619,519c-3.3-0.4-6.8,1-10-1C612.3,518.5,615.8,517,619,519z" fill="#4D1000"></path>
		<path d="M538,518c-2.8,2-6,0.6-9,1C531.8,517,535,518.4,538,518z" fill="#4D1000"></path>
		<path d="M300.3,477c0-5.6,0-11.1,0-16.7c0.1,0,0.3,0,0.4,0c0,5.6,0,11.1,0,16.7C300.6,477,300.5,477,300.3,477z" fill="#D18200"></path>
		<path d="M342,738c-0.5-2.7-0.5-5.3,0-8c0.4-0.3,1.1-0.9,1.1-0.8c2.1,2,0.5,4.6,0.9,6.9
			C344.3,737.5,344.1,738.8,342,738z" fill="#FEECE1"></path>
		<path d="M344.4,745.1c0.8,1.6,0.8,3.1,0,4.7C344.4,748.3,344.4,746.7,344.4,745.1z" fill="#FEF1E5"></path>
		<path d="M1052.2,610.3c2.2-0.3,3.9-0.8,5,1.9C1055.4,611.5,1054.1,611,1052.2,610.3z" fill="#DF8F9B"></path>
		<path d="M480.1,530.1c-2.4,0.6-4.7,1.2-7.1,1.8C474.8,528.9,477.7,530.3,480.1,530.1z" fill="#4D1000"></path>
		<path d="M490.1,528.1c-2.2,1.6-4.7,0.7-7.1,1C485.1,527.1,487.7,528.4,490.1,528.1z" fill="#4D1000"></path>
		<path d="M399,625c1.3-7.1,2.6-14.2,5-21.1c0.6,6.9-2.9,13.2-3.5,19.9C400.4,624.2,399.5,624.6,399,625z" fill="#322C38"></path>
		<path d="M397,633c-0.1-2.9,0.9-5.5,2-8.1C399,627.8,399.7,630.8,397,633z" fill="#322C38"></path>
		<path d="M997.6,713.3c0,5.9,0,11.7,0,17.6c-0.2,0-0.3,0-0.5,0c0-5.9,0-11.8,0-17.7
			C997.3,713.2,997.5,713.2,997.6,713.3z" fill="#400500"></path>
		<path d="M913,674c-1.8,1.2-3.7,2.2-6,2C908.6,674.2,910.6,673.6,913,674z" fill="#8E5340"></path>
		<path d="M436.9,499c7.7-5.1,16.6-7.5,25.1-10.6c13.4-4.8,27-8.8,41-11.5c7.5-1.4,14.8-3.3,22.4-4
			c2.4-0.2,5.5,0.3,6.9-2.8c5.4,7.4,11.4,14.2,18.7,19.8c1.1-0.3,1.9,0.2,2.7,0.7c1.5,0.9,2.8,2.1,3.7,3.6c6.6,5.1,14.2,7.9,22,10.2
			c11.7,3.4,23.7,2.3,35.6,2.3c0.7,0,1.3-0.3,1.9-0.6c3.8-2,8.1-1.4,12.1-2c15.3-2.2,28.6-7.9,39.1-19.6c1-1.1,1.8-2.4,3.5-2.6
			c9.2,4.2,19.1,6.7,28.6,10.2c24,8.7,47,19.4,69.2,31.9c17.7,10,34.9,20.6,51.5,32.4c5,3.6,9.9,7.3,14.9,10.9
			c-3.7,4.2-7.5,8.4-11.2,12.6c-1.4,1.6-2.7,2.2-4.6,0.8c-41.3-30.6-88.4-47.5-137.9-58.9c-6.7-1.6-13.5-3-20.2-4.5
			c-13.4-2.8-27-4.2-40.7-5.6c-10.7-1.1-21.6-0.3-32.3-1.3c-8.5-0.7-16.8-0.5-25.2,0c-2.9-0.2-5.7-0.5-8.6,0.2
			c-21.1-0.1-41.8,3-62.6,6c-1.1-0.1-2.1,0.5-3.2,0.2c-2-0.5,0.4,1.1-0.5,1.1c-2.3,0.4-4.6,0.8-6.9,1.2c-2.5-0.8-4.8-0.2-6.9,1.1
			c-6.2,1.7-12.5,3.2-19,4c-1.4,0.1-3-0.5-4.1,0.9c-9.7,3.7-19.3,7.3-29,11c-1.1,0-2.2,0.2-3,1.1c-7.3,3.8-14.6,7.5-21.8,11.3
			c-3.2,1.7-6.2,3.7-9.2,5.5c-0.9-3.7,0.4-7,3.2-8.9c7.8-5.1,16.2-9,24.7-12.9c9.3-4.3,19.1-7.2,28.6-11.1c7.3-3,15.3-4.5,23.2-5.9
			c4.7-0.8,9.2-2.9,14-2.6c0.5,0,1.2-0.6,1.4-0.4c6.1,5.1,10.5-6,16.5-1.6c13.1-4.6,26.9-3.8,40.4-5.5c2.7-0.4,5.1,0.6,7.6,1.8
			c5.3,2.6,11.1,0.8,16.7,1c1.8,0.1,1.8-1.4,0.6-2.3c-1.3-1-2.8-1.8-4.2-2.5c-8.6-4.2-16.9-8.8-22.5-17c-1.2-1.8-3.3-2.3-4.5-3.9
			c-0.8-1.1-2.4-2.2-2.3-3.1c0.9-7.4-4.3-5-7.7-4.7c-11.9,1.4-23.5,4.5-35.1,7.3c-16.1,3.9-31.7,9.3-46.9,15.9
			C440.9,498.4,439,499.2,436.9,499z" fill="#FEB23C"></path>
		<path d="M592.1,348c11.4-2.2,22.4-0.3,33.3,3c13.1,3.9,23.7,11.9,33.4,21.1c2.4,3,4.7,6.1,7.1,9.1
			c4,3.4,5.8,7.9,6.9,12.8c1.4,4.7,2.8,9.3,4.2,14c1.4,1.5,1.3,3.4,1.3,5.2c-0.7,22.7-7.5,43.2-22.7,60.3
			c-13.6,15.4-31.9,21.4-51.8,23.9c-11.2,1.4-22.2,0.8-33.2-1.1c-13.2-5.1-24.3-12.8-31.5-25.3c-2-4.5-5.8-8-7.1-12.8
			c0-2.6-1.3-4.8-2-7.2c-1.3-2.4-1-5.2-1.9-7.6c-0.4-1-0.8-1.9-1.1-2.9c-0.2-0.8-0.3-1.6-0.4-2.5c0-7.9-0.2-15.7,0-23.6
			c5.3-32.8,27-51.1,55.6-63.2c2.2-0.6,4.4-1.5,6.7-2C590.1,349,591.2,348.8,592.1,348z" fill="#FEB23C"></path>
		<path d="M539.2,471c8.2,9.7,17.4,18.1,29,23.5c0.6,0.3,1.2,0.4,1.9,0.6c0.4,0.4,0.8,0.7,1.2,1
			c13.6,6.8,28.4,7,42.8,5.2c13.7-1.7,26.3-7.6,36.8-17.2c0.7-0.7,1.5-1.3,2.4-1.8c0.2-0.1,0.5-0.2,0.7-0.3c1.8-0.2,4.1-1.1,4.1,2.1
			c-0.1,0.2-0.3,0.5-0.4,0.7c-9.3,8.8-20.2,15.5-32.5,18.6c-10.7,2.7-21.7,4.8-33.3,2.6c-9.6-1.7-18.6-4-27.5-7.9
			c-4.2-1.8-7-5.5-11.3-7c-0.7-0.4-1.3-0.8-2-1.2c-0.2-0.8-0.1-1.9-0.6-2.3c-5-3.9-9-8.8-13.2-13.4c-0.9-1-2.7-2.1-1.7-3.7
			C536.8,468.4,537.8,471.9,539.2,471z" fill="#490C00"></path>
		<path d="M529.1,443.1c1.6,2.4,0.7,5.4,2,7.9c0.6,1.7,0.8,3.3,0,5c-2.1-1.8-2.3-4.5-3-6.9
			C528.8,447.1,526.8,444.7,529.1,443.1z" fill="#E6BB7B"></path>
		<path d="M529.1,443.1c-0.4,2,0.8,4.3-1,6c-0.3-0.2-0.3-0.4-0.2-0.7c-0.5-2-2-3.7-1.4-5.9c0.3-0.8,0.9-1.3,1.7-1.5
			C528.4,441.6,528.7,442.3,529.1,443.1z" fill="#F3D6AA"></path>
		<path d="M531.1,455.9c0-1.7,0-3.3,0-5c0.8,2.3,2.7,4.5,1,7.2C531.1,457.7,531,456.9,531.1,455.9z" fill="#F9C462"></path>
		<path d="M527,442c0.3,2.1,1.5,4.1,0.8,6.3c-0.3-0.1-0.5-0.3-0.8-0.5c0.1-0.3,0.1-0.6-0.2-0.8
			c-1.5-1.7-1.7-3.7-1.2-5.9C526.6,440.7,527.2,440.8,527,442z" fill="#D6B897"></path>
		<path d="M403.8,563.1c0,3.6,0,7.1,0,10.7c-0.1,0-0.3,0-0.4,0c0-3.6,0-7.1,0-10.7
			C403.5,563.1,403.6,563.1,403.8,563.1z" fill="#999AA2"></path>
		<path d="M401.8,579c0,2.9,0,5.8,0,8.7c-0.1,0-0.3,0-0.4,0c0-2.9,0-5.8,0-8.7C401.5,579,401.7,579,401.8,579z" fill="#999BA3"></path>
		<path d="M232,404.9c-2.7-0.1-5.3,0.3-7.9,1.2c-1.1-0.1-2.3,0.2-3-1c0.4-0.2,0.8-0.5,1.2-0.7
			c4.2-0.4,8.4-0.7,13.2-1.2C234,403.9,233,404.4,232,404.9z" fill="#FEFAD8"></path>
		<path d="M164,544.9c-0.3,0-0.6,0.1-0.9,0.1c0-5.3,0-10.5,0-15.8C166.1,534.4,164.9,539.7,164,544.9z" fill="#D18200"></path>
		<path d="M533,773c-4.5-8.5-6.1-17.9-7.9-27.2c-0.7-3.2-1.1-6.4-1.1-9.8c0-2.7,1.3-2.5,3-2
			c12.9,8.5,27.5,12.2,42.5,14.8c12.1,2.1,24.4,2.6,36.7,2.1c10.3-0.4,20.5-1.5,30.3-4.8c1.6-0.6,2.9-0.9,3.6,1.1
			c2.6,8,8.3,14.3,12,21.7c-0.1,10,1,20.2-4.1,29.5c-2.3,4.1-3.7,8.9-8.9,10.6c-0.6-1.5,0.3-2.7,1.2-3.5c3.6-3.2,2.5-6.4,0.3-9.7
			c-3.9-5.8-9.4-9.8-15.1-13.5c-13.9-9-29.4-13.6-45.7-15.9c-14.2-2-28.1-0.8-42.1,1C533.7,767.9,534.5,771.1,533,773z" fill="#930514"></path>
		<path d="M467,747c5-5.7,10.1-11.3,16.2-15.9C478.7,737.2,473.6,742.9,467,747z" fill="#878186"></path>
		<path d="M672.6,705.2c0.3,2.1,0.8,4-0.2,6.1C671.8,709,671.7,707,672.6,705.2z" fill="#1A1726"></path>
		<path d="M687,646.1c2.8,0,4.7-2,7.1-3c0,0,0,0,0,0c5.2-1.9,10.7-1.9,16-3c4,0,7.9-0.3,11.9,0.5
			c9.7,2,15.5,8.3,19.1,17.1c1.1,2.8,2.2,5.5,3.2,8.3c-2.8,5.7-15.5,11.9-21.3,10.6c-2.1-0.5-2.2-2.2-2.9-3.6
			c-1-4.8-3.9-8.6-6.1-12.9c-4.3-5.7-10-8.2-17.1-8.6c-13.8-0.8-26.5,3.2-38.8,8.7c0,0,0.1,0,0.1,0c-1.1-0.1-2.2-0.3-3.5-0.4
			c5.4-5,12.3-6.3,18.6-8.7c1.4-0.5,2.8-0.8,3.7-2.1c0,0,0,0,0,0C680.3,648,683.7,647.2,687,646.1z" fill="#4D1000"></path>
		<path d="M720,672.9c1.6,2.9,4,3.4,7.1,2.5c6.4-2,12.1-5,17.1-9.5c1.2-1,2.4-2,3.7-2.9c2,0.2,1.8,1.1,1.3,2.7
			c-1.1,3.5-4,5.2-6.6,7.2c-4.9,3.7-10.4,6.2-16.3,7.9c-1.2,0.3-2.7,0.6-3.5-1.1c1.5-1.6,4,0.3,5.4-1.9
			C726.1,675.1,719.2,680.1,720,672.9z" fill="#FA8882"></path>
		<path d="M658.1,660.2c4.9-4.6,11.6-4.8,17.5-7.1c7.5-2.9,15.3-2,23.1-2.1c5.5,0,9.7,2.9,13.8,6
			c1,0.7,1.5,1.7,1.5,3c-0.3,0-0.6,0-0.9,0c-7.6-9.3-17.9-8.8-28.3-7.4C675.5,653.8,666.9,657.5,658.1,660.2z" fill="#4D1005"></path>
		<path d="M504.3,636.9c0.2-0.1,0.5-0.1,0.7,0.1c7,3.4,13.9,6.8,20.9,10.1c-0.3,0.3-0.6,0.6-1,1
			c-0.7,0.6-1.4,0.4-2.2,0.2c-6.7-3.1-13.5-5.9-20.8-7.1l0.1,0.1c-10.6-3.6-21.2-5.2-31.8,0.2c-3,1.6-5.3,3.9-7.1,6.7
			c0,0.4,0,0.7,0,1.1c-1.3,0.8-1.8,2.1-2.1,3.6c-0.8,2.4-1.9,4.6-2.7,6.9c-1.5,4.3-4.3,5-8.2,4c-6.2-1.7-11.7-4.7-16.6-8.8
			c-0.8-0.7-2-1.4-1.3-2.9c1.2-7.1,4.2-13.3,9-18.7c1-1,2.1-1.8,3.5-2.2c11.9-5.2,23.7-4,35.9-0.7
			C488.4,632.5,496.3,635,504.3,636.9z" fill="#4D1000"></path>
		<path d="M432.1,651.9c5,4.7,10.8,8.2,17.4,10.3c4.3,1.4,7.5,0.9,8.7-4.2c0.4-1.9,1.3-3.8,2.7-5.3
			c0.5,5.4-3.5,9.3-4.7,14.1c-0.5,1.9-3.2,1.4-4.9,1c-8.1-1.9-14.8-6.2-20.5-12.1c-1.6-1.7-0.6-3.8-0.8-5.7
			C430.7,650.7,431.4,651.3,432.1,651.9z" fill="#FB8882"></path>
		<path d="M533,773c-0.9-6.4-0.6-6.3,6-7.1c9.5-1.2,19.1-2.4,28.7-1.9c21.9,1.1,42.6,6.1,60.8,18.8
			c5.6,3.9,11,7.9,14.4,14.2c2,3.6,1.9,6.4-1.4,9c-1,0.8-1.7,2-2.5,3c-4.7,4.6-10.6,6.8-16.9,7.7c-17.5,2.5-34.8,2.2-51.4-4.7
			C552.6,804.4,540.4,791,533,773z" fill="#A60A27"></path>
		<path d="M592.3,822.2c7.9,0,15.7,0,23.6,0c0,0.2,0,0.3,0,0.5c-7.9,0-15.8,0-23.7,0
			C592.2,822.6,592.3,822.4,592.3,822.2z" fill="#420500"></path>
		<path d="M501,581.1c-7.5-0.9-14.9-2.4-22-5.1C486.6,576.6,493.9,578.2,501,581.1z" fill="#715350"></path>
		<path d="M533,574c0.7,3.1-0.8,5.9-1.1,8.9c-0.3,0.1-0.5,0.1-0.8,0.1C530.7,579.8,532,577,533,574z" fill="#796769"></path>
		<path d="M558.8,646.7c6.6-13,16.7-15.5,27.3-6.9c0.6,1.8-0.1,2.6-1.9,2.1c-8.6-2.3-15.9,0.1-22.4,5.8
			C560.1,649.2,559.2,648.8,558.8,646.7z" fill="#FBC5AC"></path>
		<path d="M654.9,583c0-0.2,0.1-0.3,0.1-0.5c0.2-8.8,0.2-8.7,9.2-9.5c17.6-1.6,35.3-3.2,52.9-4.9
			c3.5-0.4,5,0.3,5.2,4.2c0.2,3.2,0.1,6.6,1.5,9.7c0.8,4.2-0.7,5.7-5.2,6c-18.5,1.4-37,3.3-55.5,4.9c-7.6,0.7-7.6,0.6-8.1-7
			C655.1,585,655,584,654.9,583z" fill="#28222E"></path>
		<path d="M463.1,648.1c1.3-4.4,4.7-6.7,8.5-8.3c7.5-3,15.1-4.6,23-1.1c2.4,1.1,5.9-1.2,7.4,2.5
			c-6.9-1-13.7-2.7-20.7-2.2C473.9,639.4,468,642.8,463.1,648.1z" fill="#4D1105"></path>
		<path d="M501.9,641.1c7.8-0.2,14.4,3.6,21.1,6.7c-0.6,0.8-1.3,0.8-2,0.1C514.7,645.7,508.3,643.4,501.9,641.1z" fill="#4D1105"></path>
		<path d="M521,648c0.7,0,1.3-0.1,2-0.1c0.6,0.1,1.3,0.1,1.9,0.2c0.4,0.6,0.8,1.2,1.1,1.9
			C524.2,649.8,522.5,649.1,521,648z" fill="#783D2B"></path>
		<path d="M710,640c-5.2,1.8-10.6,2.2-16,3C699,640.3,704.5,640,710,640z" fill="#7B4F43"></path>
		<path d="M477,627c1,0.7,2,1.4,3,2.1c-3.5,1.4-6.8-0.5-10.2-0.8c-7.2-0.6-14.3-0.3-21.3,1.1
			c-0.6-0.3-0.8-0.8-0.4-1.4c6.9-2.4,14-2.7,21.1-1.4C471.8,627.1,474.4,626.8,477,627z" fill="#A8857A"></path>
		<path d="M448,628c0,0.3,0,0.7,0,1c-0.3,2.6-2.8,2-4.1,2.9c-0.9,0.4-1.9,0.8-2.8,1.3C442.3,630,445.5,629.5,448,628
			z" fill="#A7857B"></path>
		<path d="M443.9,631.9c1.4-1,2.8-2,4.1-2.9c10.7-3.3,21.3-1.6,32,0.1c2.8,1.1,5.7,2.2,8.8,2c3.8,2.2,8,3,12.2,3.9
			c1.1,0.6,2.2,1.2,3.3,1.8c-5.3,0.6-10.1-1.9-14.8-3.4c-11.2-3.5-22.5-4.9-34.2-4.5C451.2,629,448,632.1,443.9,631.9z" fill="#4D1105"></path>
		<path d="M687,646.1c-2.9,2.4-6.5,2.7-10,2.9c2.4-1,4.7-1.9,7.1-2.9C685,646.1,686,646.1,687,646.1z" fill="#4D1005"></path>
		<path d="M836,567.1c-3.1,0.2-5.3-2-7.5-3.6c-34.6-25.9-71.8-47.3-111.8-63.8c-13.7-5.6-27.5-10.7-41.8-14.7
			c-1.6-0.5-2.8-1-2.9-2.8c0.1-3.9,2.8-3.8,5.6-3.5c59.2,17.6,112.1,47,159.5,86.4C836.7,565.8,836.3,566.4,836,567.1z" fill="#FDDC9F"></path>
		<path d="M570.1,495.9c0-0.3,0-0.5,0-0.8c8.1,0.9,16.1,2.5,24.2,1.9c19.2-1.5,37.8-4.8,53.4-17.7
			c12.1-10,19.6-22.8,24.3-37.4c3.6-10.9,5.6-22.2,5.1-33.7c0.3,0,0.6,0.1,0.8,0.2c3.2,7.7,2.9,15.7,2.1,23.6
			c-0.2,2.4-0.1,5-2.1,6.9c-4,16.6-11.8,31.1-24,43.1c0,0,0,0,0,0c-18.4,17.4-40.5,23-65.1,19.9C582.4,501,575.9,499.3,570.1,495.9z" fill="#C77901"></path>
		<path d="M677.6,478.7c-2.7-0.2-4.3,1.4-5.6,3.5c-12.8,15.9-30.1,22.5-49.8,23.9c-1.4,0.1-3-0.3-4.2,0.9
			c-2.7,1.1-5.5,0.3-8.3,0.5c-0.7-0.2-1.3-0.6-0.7-1.3c0.8-0.9,2.1-0.9,3.2-1c17-1.2,31.1-8.9,43.7-19.6c0.6-0.5,1.3-1,2-1.4
			c0,0,0,0,0,0c0.8-0.6,1.8-1.1,2.3-1.8C664.8,474.8,671,475.9,677.6,478.7z" fill="#C87A02"></path>
		<path d="M677.9,438.8c1.8-10.2,0.9-20.4,0-30.5c0-1.4,0.1-2.8,0.1-4.2c0.7,0.2,1.3-2.3,1.9-0.3
			c3.3,11,2.1,22.4,1.8,33.6c-0.1,2.6-1.7,5.5-1.9,8.5c-0.1,0.8-1.1-0.7-1.8-0.8C678,443,677.9,440.9,677.9,438.8z" fill="#490E01"></path>
		<path d="M672.9,394.1c-2.3-4.3-4.6-8.6-6.9-12.8c0.2-1.8-1.5-3.3-0.5-5.6c5.2,6.4,9.1,13.1,10.6,21.2
			C674.7,396,675,393.8,672.9,394.1z" fill="#490E01"></path>
		<path d="M677.7,404.1c-1.2-2.6-0.5-4.8,0-7C677.7,399.4,677.7,401.7,677.7,404.1z" fill="#490E01"></path>
		<path d="M677.8,445c0,2.3,0,4.5,0,6.8C677.3,449.5,676.3,447.2,677.8,445z" fill="#490E01"></path>
		<path d="M527,442c-0.3-0.3-0.7-0.6-1-1c-0.5-0.7-0.8-1.4-1-2.2c-0.3-2.6-0.7-5.3-0.7-7.9c0.7-4.2,0.6-8.3,0.1-12.5
			c-0.3-2.6,0.5-5.1,0.7-7.6c0.1-0.5,0.3-1,0.5-1.4c0.9-2.8,0.8-5.9,2.5-8.5c6.4-19.6,18.2-34.6,36.8-44c4.4-2.6,9.3-3.9,13.9-5.8
			c1.4-0.6,3.4-1.7,4.3,0.9c-12.6,5.6-24.5,12.3-34.5,22.1c-10.3,10.2-17.2,22.2-19.6,36.6c-0.1,0.8-0.6,1.6-0.8,2.3
			c-0.9,8.7-0.8,17.3,0,26c0,0.6,0.1,1.3,0.1,1.9C527.8,441.3,527.4,441.6,527,442z" fill="#FAE6C2"></path>
		<path d="M525.9,439.3c0,0.6,0.1,1.2,0.1,1.7c-0.7,2.2,1,3.9,0.9,6c-3-2.6-3.4-6.6-3.7-9.9
			c-0.7-8.4-0.7-16.9,0-25.3c0.3-3.2,0.5-7.4,3.8-9.8c0.9,2.8-0.7,5.3-1.2,7.9l0-0.1C524.4,419.7,524.5,429.5,525.9,439.3z" fill="#4B0F01"></path>
		<path d="M583,352c-4.9-1.8-8.5,2.1-12.8,3.1c-1.9,0.4-3.4,2.1-5.5,1.9c5.1-3.9,11-5.7,17.1-7
			c2.7,0.4,5.4-3.4,8.1-0.1C587.6,350.6,585.3,351.3,583,352z" fill="#EDD0A7"></path>
		<path d="M589.9,349.9c-2.7-2.2-5.4,1.2-8.1,0.1c3.1-2,6.7-2,10.2-1.9C591.6,348.9,591,349.7,589.9,349.9z" fill="#DEB98A"></path>
		<path d="M525.9,410c-0.7-2.8,1.2-5.2,1.2-7.9c0.3-0.4,0.6-0.7,0.9-1.1C528.3,404.2,527.7,407.3,525.9,410z" fill="#F3D6AA"></path>
		<path d="M253.9,441.3c-0.2,3.9-0.2,6.3-0.4,8.7c-1,13.1,3,24.6,10.6,35c0.6,0.8,1.6,1.4,1.1,2.6
			c-0.4,1-1.4,0.7-2.2,0.6c-14.5-2-27.2,2.5-39,10.7c-0.5,0.3-1.2,0.4-2.6,0.8c5.5-17.3,3.2-32.4-10.3-45.3
			C227,455.8,240.9,452.3,253.9,441.3z" fill="#FEFEFE"></path>
		<path d="M563,510c7.3-2,14.9-1.2,22.2-0.7c4.6,0.3,9.2,0.7,13.8,0.7c17.5-0.1,34.9,1.5,52.1,4.9
			c3.6,0.7,7.7-0.6,10.9,2.2c-12.2-1.5-24.4-2.7-36.5-4.5c-5.8-0.8-11.6-0.7-17.4-1.3c-9.4-0.9-19-1.2-28.4-0.9
			c-20.2,0.6-40.5,0.3-60.6,3.5c-9.3,1.5-18.7,2.2-28.1,3.2c-0.3-0.2-0.3-0.5-0.3-0.7c0.1-0.2,0.2-0.4,0.2-0.4c21.6-3,43.1-6.6,65-6
			C558.3,509.3,560.7,509.3,563,510z" fill="#F9B13C"></path>
		<path d="M475,520c1.8-3.7,4.4-2,6.9-1.1C479.7,519.3,477.4,519.7,475,520z" fill="#FEB23C"></path>
		<path d="M452,525c0.7-3.3,2.3-2.2,4.1-0.9C454.9,525.3,453.4,524.9,452,525z" fill="#FEB23C"></path>
		<path d="M491,516c0,0.4,0,0.7,0,1.1c-0.5,0.7-1.3,0.9-2.1,0.7c-0.6-0.4-1.3-0.8-2.8-1.8
			C488.3,516,489.7,516,491,516z" fill="#FEB23C"></path>
		<path d="M420.1,537.1c0.7-1.2,1.2-2.9,3-1.1C422.3,537.1,421.1,537,420.1,537.1z" fill="#FEB23C"></path>
		<path d="M658,484c-10.7,11.2-23.9,17.7-38.9,21c-3.3,0.7-6.9,0.4-10.1,1.9c-19.3,2.2-36.9-2.1-53-13.1
			c-1-1-2-1.9-3-2.9c1.7-1,2.8,0.4,4,1.1c10.6,6.7,21.8,10.6,34.4,12.3c23.3,3.3,43.1-3.3,61.2-17.2C654.3,485.9,655.6,484,658,484z" fill="#4B1000"></path>
		<path d="M556.1,493.9c10.8,6.1,22.2,10.8,34.7,12.5c6.1,0.9,12.2,0.4,18.3,0.5c3,0,6,0,9,0c-1.3,1.6-3.1,1-4.7,1
			c-5.8,0.1-11.7,0.1-17.5,0c-13.9-0.2-26.5-4.7-38.3-11.7C556.6,495.7,556,495,556.1,493.9z" fill="#F9B13C"></path>
		<path d="M563,510c-2.3,0-4.6,0-7,0C558.3,508.5,560.7,508.5,563,510z" fill="#FEB23C"></path>
		<path d="M572,472.7c-5.4-3.7-10.4-8-14.9-12.7c-23.8-25.3-16-68.6,15.5-86.4c17.6-10,45.1-10.8,62.9,5.6
			c0.9,0.8,1.7,1.6,2.9,1.9c1.2,0.5,2.1,1.3,3,2.2c0.8,1.1,2,1.9,2.5,3.2c-0.1,0.2,0,0.4,0.2,0.6c0.8,1,1.9,1.9,2.7,3
			c1.3,2.1,2.8,4.2,4.2,6.3c2.1,4,4,8,5.2,12.3c0.2,3.4,1.7,6.8,0.8,10.3c-0.9,3.1-0.9,6.2,0,9.3c0.9,3.5-0.6,6.9-0.8,10.3
			c-0.9,3.2-2.4,6.2-3.3,9.3c-6.4,13-16.2,22.7-29.4,28.7c-2,0.6-4.1,0.9-6,2c-0.5,0.2-0.9,0.4-1.4,0.5c-2.1,0.4-4,1.2-6.1,1.3
			c-7.7,0-15.4,0.7-22.9-1.3C581.6,478,576.6,475.9,572,472.7z" fill="#4D0F00"></path>
		<path d="M638.8,382.1c-6.7-4.5-13.1-9.3-21.1-11.9c-19.2-6.4-42.9-0.1-57.4,14.4c-18.7,18.8-21.3,52.9-4,73.5
			c0.4,0.5,0.5,1.2,0.8,1.8c-9.7-9.1-16.1-20.2-18-33.4c-3-20.7,4.6-37.3,20.1-50.7c10.7-9.2,23-14,37.3-14
			c13.1,0.1,24.2,4.8,34.4,12.5c2.4,1.8,4.6,3.7,7,5.6C638.7,380.5,639.6,380.9,638.8,382.1z" fill="#C77900"></path>
		<path d="M622.9,475.8c12.6-6.2,22.2-15.4,28.9-27.8c1.7-2.8,2.4-6,3.7-9c0.1-1.6-0.5-3.4,0.9-4.8
			c0.3-0.4,0.8-0.6,1.3-0.6c0.8,0.2,1.3,0.6,1.6,1.3c0.2,0.7,0.3,1.4-0.3,2c-3.1,11.5-7.7,22.2-16.8,30.3
			c-7.8,6.9-16.6,12.1-27.1,13.8c-2.4,0.4-4.9,1.2-7.2-0.5c0.4-1.6,1.7-0.8,2.6-1.1c2.3,0.1,4.4-0.9,6.5-1.6l0,0
			C618.8,477,621.1,477,622.9,475.8z" fill="#F8E4BF"></path>
		<path d="M659,437c0-0.7,0-1.4-0.1-2c-1.1-7.3,0.2-14.7-0.8-22c-0.3-0.6-0.6,0.5-0.1,0.1c0.8,7,0.8,14,0,21
			c-0.3,0-0.6,0-0.9,0c-1.3-2.5,0-5.3-1-7.7c-0.1-2-0.1-4,0.1-6.1c1.1-4.2,0-8.2-1.2-12.2c-1.7-4-3.3-7.9-5-11.9
			c-1.1-2.2-2.2-4.5-4.2-6.1c-1.3-0.6-2-1.6-1.7-3.2c4.3,1.3,6.6,4.8,8.7,8.3C660.9,408.3,663.5,422.1,659,437z" fill="#F6DEB7"></path>
		<path d="M608,480.2c2.2,1.7,4.7,0.4,7,0.9c-8.4,1.3-16.8,2.5-25-1.1C596,479.3,602,479,608,480.2z" fill="#EFCD99"></path>
		<path d="M572,472.7c4.6,1.7,9.3,3.5,13.9,5.2c0.6,1.4,3.3-0.4,3.2,2.1C582.5,479.8,576.5,478.1,572,472.7z" fill="#E9B15D"></path>
		<path d="M589.1,480c-1.1-0.7-2.1-1.4-3.2-2.1c8.3,1.8,16.6,1.2,25,1.1c0.4,0.2,0.5,0.4,0.3,0.6
			c-0.1,0.2-0.3,0.3-0.4,0.3c-1,0.1-1.9,0.2-2.9,0.2c-6,0-12-0.1-18-0.1C589.7,480,589.4,480,589.1,480z" fill="#B18055"></path>
		<path d="M528,439c-1.6-8.7-1.7-17.3,0-26C528,421.7,528,430.4,528,439z" fill="#F3D6AA"></path>
		<path d="M638.8,382.1c-0.3-0.7-0.6-1.3-0.9-2c2.4-0.3,3.8,1.2,5.1,3c-0.5,0.6-1.1,1-1.9,0.9
			C640.3,383.4,639.6,382.7,638.8,382.1z" fill="#F6BC5D"></path>
		<path d="M641,384c0.4-0.8,1.1-0.9,1.9-0.9c0.6,1,1.2,2.1,0.9,3.3C642.4,386.2,641.5,385.3,641,384z" fill="#E5BE87"></path>
		<path d="M570.1,495.9c9.5,2.8,19,6,29.1,6.1c19.3,0.2,36.5-5.5,51.5-17.8c1-0.8,2.2-1.5,3.3-2.2
			c-4.6,7.1-12.1,10.2-19.1,14c-14.5,8-30.2,8-45.8,6.6C582.7,502.1,575.2,501.4,570.1,495.9z" fill="#4B1000"></path>
		<path d="M715.6,586.9c-4.1,0-8.2,0-12.3,0c0-0.2,0-0.3,0-0.5c4.2,0,8.4,0,12.6,0
			C715.8,586.5,715.7,586.7,715.6,586.9z" fill="#1D1A29"></path>
		<path d="M656.3,586c0-3.2,0-6.5,0-9.7c0.1,0,0.3,0,0.4,0c0,3.2,0,6.5,0,9.7C656.5,586,656.4,586,656.3,586z" fill="#171524"></path>
		<path d="M525.9,439.3c-2.7-9.8-2.8-19.6,0-29.4c0.7,2.9-0.4,5.6-0.7,8.4c0.5,4.2,0.4,8.3,0,12.5
			C525.5,433.6,526.6,436.4,525.9,439.3z" fill="#F3D6AA"></path>
		<path d="M525.2,430.8c0-4.2,0-8.3,0-12.5C526.5,422.4,526.4,426.6,525.2,430.8z" fill="#FEFBD6"></path>
		<path d="M624,467c-14.2,8.3-28.9,8.4-43.4,1.7c-18.7-8.7-29-24-29.2-44.5c-0.3-25.8,18.8-46.9,44.2-49.3
			c20.4-2,35.6,6.7,47.2,22.8c0.7,0.9,0.9,2.1,1.3,3.2c1.6,7.1,2.5,14.3,2.3,21.7c-0.3,14.6-5.9,26.5-17.2,35.5
			c-9,7.1-18.5,13.7-27.4,13.4c3.5,0,10.1-2.1,16.6-4.3C620.2,466.6,622.1,465.4,624,467z" fill="#297056"></path>
		<path d="M624,467c-4,1.1-8,2-11.9,3.5c-5.6,2.2-11.3,1.3-17.1,1c14.7-0.5,26.4-7.9,36.7-17.1
			c7.9-7.1,12.7-16.7,13.2-27.6c0.4-7.6,1.1-15.3-1.7-22.7c-0.4-1.1-0.2-2.3,0.9-3.1C657.2,423.8,648,454.2,624,467z" fill="#298D68"></path>
		<path d="M593,477.3c4.9,0,9.8,0,14.7,0c0,0.1,0,0.3,0,0.4c-4.9,0-9.8,0-14.7,0C593,477.6,593,477.4,593,477.3z" fill="#420300"></path>
		<path d="M656.8,420.2c0,1.9,0,3.7,0,5.6c-0.4,0.7-0.3,1.5-0.7,2.2c-1.8-3-1.8-6,0-9
			C656.6,419.3,656.7,419.8,656.8,420.2z" fill="#3C0000"></path>
		<path d="M656.1,428c0.2-0.7,0.5-1.5,0.7-2.2c0.1,2.7,0.2,5.5,0.2,8.2c-1,1.4-1.2,3.1-1.2,4.8
			c-0.2,0.7-0.5,0.7-0.9,0.2C654.5,435.3,656.9,431.8,656.1,428z" fill="#CAA88B"></path>
		<path d="M656.8,420.2c-0.2-0.4-0.5-0.8-0.7-1.2c0.6-3.8-1.7-7.2-1.2-11C657.2,411.9,657.5,416,656.8,420.2z" fill="#CAA88B"></path>
		<path d="M655,439c0.3,0,0.6,0,0.9-0.2c-1,3.2-1.4,6.7-4.1,9.1C652.8,445,653.9,442,655,439z" fill="#F4DBB4"></path>
		<path d="M645.7,390.1c2.8,1,3.9,3.3,4.2,6.1C648.5,394.2,647.1,392.2,645.7,390.1z" fill="#E9CCA1"></path>
		<path d="M610.9,479.9c0.1-0.3,0.1-0.6,0.1-0.9c2-0.4,3.8-1.5,6-1.1C615.3,479.6,613.2,480.1,610.9,479.9z" fill="#EFCD99"></path>
		<path d="M622.9,475.8c-1.6,1.9-3.7,2.3-6,2.1C618.7,476.6,620.7,475.8,622.9,475.8z" fill="#EFCD99"></path>
		<path d="M658,434c0-6.9,0-13.8,0-20.7c0.3,0,0.6,0,1,0c0,7.2,0,14.4,0,21.7C658.6,434.6,658.3,434.3,658,434z" fill="#FEFBDC"></path>
		<path d="M557,422.6c-0.5-17.7,12.2-36.5,29.6-43.3c13.9-5.4,29.4,3.9,32.5,18.8c4.1,19.8-7.1,41-24.2,49.7
			c-19.1,9.8-37.2-0.4-37.9-22.3C557,424.6,557,423.6,557,422.6z" fill="#298D69"></path>
		<path d="M572,407.6c0.3-9,12.5-23.5,21.3-25.5c5.3-1.2,8,1,7.8,6.4c-0.2,4.6-2.2,8.7-5,12.2
			c-4.5,5.5-8.7,11.4-16.2,13.2C574.1,415.5,571.8,413.6,572,407.6z" fill="#3AEDAC"></path>
		<path d="M572.2,421c-0.1,5.2-3,7.9-6.2,10.3c-1.9,1.4-2.9-0.7-4-1.8c-1.6-1.8-3.8-3.6-1.9-6.4
			c1.2-1.8,2.7-3.3,4.2-4.9c1.4-1.5,2.9-2.9,5.2-1.8C571.6,417.4,572.3,419.4,572.2,421z" fill="#39ECAB"></path>
	</g>
</g>
</svg>
